<?xml version="1.0" encoding="iso-8859-1"?>
<!-- Uploaded to: SVG Repo, www.svgrepo.com, Generator: SVG Repo Mixer Tools -->
<svg height="800px" width="800px" version="1.1" id="Layer_1" xmlns="http://www.w3.org/2000/svg" xmlns:xlink="http://www.w3.org/1999/xlink" 
	 viewBox="0 0 447.973 447.973" xml:space="preserve">
<g transform="translate(0 -1020.36)" shape-rendering="auto" image-rendering="auto" color-rendering="auto" color-interpolation="sRGB">
	<path style="fill:#EE746C;" d="M224.061,1452.41c-33.913,0-65.824-8.262-94.094-22.625l279.438-279.533
		c14.383,28.285,22.656,60.221,22.656,94.156C432.061,1359.377,339.031,1452.41,224.061,1452.41z"/>
	<path style="fill:#FFFFFF;" d="M115.467,1421.631c-27.984-17.172-51.498-40.727-68.656-68.721l285.75-285.748
		c27.992,17.156,51.548,40.67,68.719,68.656L115.467,1421.631L115.467,1421.631z"/>
	<path style="fill:#EE746C;" d="M38.655,1338.379c-14.328-28.242-22.594-60.102-22.594-93.969c0-114.969,93.03-208.002,208-207.998
		c33.868,0,65.727,8.264,93.969,22.594L38.655,1338.381V1338.379z"/>
	<path style="fill:#EBFEFF;" d="M127.163,1402.537c-24.969-15.322-45.95-36.34-61.26-61.316l254.969-254.969
		c24.977,15.309,45.995,36.291,61.316,61.262L127.163,1402.537L127.163,1402.537z"/>
	<g>
		<path style="fill:#5A3392;" d="M341.698,1178.028l23.976-23.977l-11.339-11.34l-23.976,23.977L341.698,1178.028z"/>
		<path style="fill:#5A3392;" d="M305.675,1214.051l23.976-23.977l-11.339-11.34l-23.976,23.979L305.675,1214.051z"/>
		<path style="fill:#5A3392;" d="M233.628,1286.098l24.095-24.094l-11.339-11.221l-23.976,23.977L233.628,1286.098L233.628,1286.098
			z"/>
		<path style="fill:#5A3392;" d="M269.651,1250.074l23.976-23.979l-11.22-11.338l-24.095,23.977L269.651,1250.074z"/>
		<path style="fill:#5A3392;" d="M377.722,1142.002l23.976-23.977l-11.339-11.338l-23.976,24.094L377.722,1142V1142.002z"/>
		<path style="fill:#5A3392;" d="M197.722,1322.002l23.976-23.977l-11.339-11.338l-23.976,24.094L197.722,1322V1322.002z"/>
		<path style="fill:#5A3392;" d="M161.698,1358.028l23.976-23.977l-11.339-11.34l-23.976,23.979L161.698,1358.028z"/>
		<path style="fill:#5A3392;" d="M125.675,1394.051l23.976-23.977l-11.339-11.34l-23.976,23.977L125.675,1394.051z"/>
		<path style="fill:#5A3392;" d="M93.667,1426.059l19.961-19.961l-11.22-11.34l-20.079,19.961L93.667,1426.059L93.667,1426.059z"/>
		<path style="fill:#5A3392;" d="M301.659,1138.108l23.976-24.096l-11.22-11.221l-24.095,23.979l11.339,11.34L301.659,1138.108z"/>
		<path style="fill:#5A3392;" d="M265.635,1174.012l24.095-23.977l-11.339-11.34l-23.976,24.096l11.22,11.219V1174.012z"/>
		<path style="fill:#5A3392;" d="M193.706,1246.059l23.976-23.977l-11.339-11.34l-23.976,23.977L193.706,1246.059z"/>
		<path style="fill:#5A3392;" d="M229.73,1210.035l23.976-23.977l-11.339-11.34l-23.976,23.979L229.73,1210.035z"/>
		<path style="fill:#5A3392;" d="M337.683,1102.082l23.976-23.979l-11.339-11.338l-23.976,23.977L337.683,1102.082z"/>
		<path style="fill:#5A3392;" d="M157.683,1282.082l23.976-23.979l-11.339-11.338l-23.976,23.977L157.683,1282.082z"/>
		<path style="fill:#5A3392;" d="M121.659,1318.106l23.976-24.094l-11.22-11.221l-24.094,23.979l11.339,11.338V1318.106z"/>
		<path style="fill:#5A3392;" d="M85.636,1354.012l24.094-23.977l-11.339-11.338l-23.976,24.094L85.636,1354.012z"/>
		<path style="fill:#5A3392;" d="M53.628,1386.02l20.079-19.961l-11.339-11.34l-19.961,20.08l11.22,11.219L53.628,1386.02z"/>
	</g>
	<path style="fill:#FB9761;" d="M229.717,1437.41c103.553,0,187.344-83.793,187.344-187.346c0-30.566-7.452-59.334-20.406-84.811
		l-251.688,251.779C170.429,1429.973,199.172,1437.41,229.717,1437.41L229.717,1437.41z"/>
	<g>
		<path style="fill:#FFFFFF;" d="M213.373,1423.223c-4.418,0-7.999-3.58-8-7.998c0-4.418,3.582-8,8-8h0c4.418,0,8,3.582,8,8l0,0
			C221.372,1419.643,217.791,1423.223,213.373,1423.223z"/>
		<path style="fill:#FFFFFF;" d="M243.717,1420.004c-4.403,0.205-8.14-3.197-8.345-7.602c-0.041-0.883,0.065-1.768,0.314-2.617
			c0.905-3.164,3.66-5.449,6.937-5.752c23.238-2.539,40.232-7.66,56.469-25.686c2.96-3.287,8.025-3.553,11.312-0.594
			c3.288,2.959,3.554,8.025,0.594,11.313c-19.115,21.223-41.683,28.154-66.594,30.875c-0.229,0.01-0.459,0.01-0.688,0
			L243.717,1420.004z"/>
	</g>
	<path style="fill:#FB9761;" d="M50.68,1324.237c-12.986-25.598-20.477-54.473-20.477-85.166
		c0-104.201,84.316-188.52,188.517-188.518c30.696,0,59.57,7.492,85.167,20.479L50.68,1324.239L50.68,1324.237z"/>
	<g>
		<path style="fill:#5A3392;" d="M241.176,1467.672c52.681-4.055,103.954-26.678,143.25-67
			c78.591-80.643,85.056-207.266,15.094-295.5c-69.963-88.235-194.752-110.795-291.188-52.658c-3.83,2.203-5.149,7.094-2.945,10.924
			c2.203,3.832,7.095,5.15,10.925,2.945c0.102-0.059,0.203-0.119,0.302-0.182c89.651-54.048,205.335-33.12,270.375,48.906
			c65.04,82.025,59.031,199.436-14.031,274.404s-190.263,83.998-273.938,21.094s-107.595-178.018-55.875-269.031
			c2.279-3.785,1.057-8.701-2.729-10.98s-8.702-1.059-10.981,2.729c-0.068,0.113-0.134,0.229-0.197,0.346
			c-55.635,97.902-29.852,222.053,60.156,289.719c45.004,33.834,99.1,48.338,151.781,44.281V1467.672z"/>
		<path style="fill:#5A3392;" d="M52.332,1120.86c2.633,0.1,5.145-1.104,6.719-3.217c8.357-10.881,17.762-20.912,28.094-29.938
			c3.436-2.777,3.97-7.816,1.192-11.252c-2.778-3.436-7.815-3.971-11.252-1.191c-0.163,0.131-0.32,0.268-0.472,0.412
			c-11.126,9.721-21.25,20.502-30.25,32.219c-2.747,3.461-2.168,8.494,1.294,11.24c1.335,1.059,2.973,1.664,4.675,1.729V1120.86z"/>
		<g>
			<path style="fill:#5A3392;" d="M406.082,1131.11l-295.219,295.031l11.313,11.344l295.219-295.063L406.082,1131.11z"/>
			<path style="fill:#5A3392;" d="M328.582,1048.485L33.363,1343.516l11.313,11.344l295.219-295.063L328.582,1048.485z"/>
		</g>
	</g>
</g>
</svg>