<?xml version="1.0" encoding="UTF-8"?>
<svg id="Layer_2" xmlns="http://www.w3.org/2000/svg" xmlns:xlink="http://www.w3.org/1999/xlink" viewBox="0 0 926.86 267.24">
  <defs>
    <style>
      .cls-1 {
        fill: url(#New_Gradient_Swatch_1-4);
      }

      .cls-2 {
        fill: url(#New_Gradient_Swatch_1-3);
      }

      .cls-3 {
        fill: url(#New_Gradient_Swatch_1-8);
      }

      .cls-4 {
        fill: url(#New_Gradient_Swatch_1-19);
      }

      .cls-5 {
        fill: url(#linear-gradient-2);
      }

      .cls-6 {
        fill: url(#New_Gradient_Swatch_1-18);
      }

      .cls-7 {
        fill: url(#New_Gradient_Swatch_1-21);
      }

      .cls-8 {
        fill: url(#New_Gradient_Swatch_1-13);
      }

      .cls-9 {
        fill: url(#linear-gradient-10);
      }

      .cls-10 {
        fill: url(#New_Gradient_Swatch_1-10);
      }

      .cls-11 {
        fill: #e52206;
      }

      .cls-12 {
        fill: url(#New_Gradient_Swatch_1-16);
      }

      .cls-13 {
        fill: url(#New_Gradient_Swatch_1-11);
      }

      .cls-14 {
        fill: #fff;
      }

      .cls-15 {
        fill: url(#New_Gradient_Swatch_1-7);
      }

      .cls-16 {
        fill: url(#New_Gradient_Swatch_1-17);
      }

      .cls-17 {
        fill: #e773d1;
      }

      .cls-18 {
        fill: url(#linear-gradient-4);
      }

      .cls-19 {
        fill: url(#New_Gradient_Swatch_1-12);
      }

      .cls-20 {
        fill: url(#_Áåçûìÿííûé_ãðàäèåíò_3);
      }

      .cls-21 {
        fill: url(#linear-gradient-3);
      }

      .cls-22 {
        fill: url(#linear-gradient-5);
      }

      .cls-23 {
        fill: url(#New_Gradient_Swatch_1-6);
      }

      .cls-24 {
        fill: url(#linear-gradient-8);
      }

      .cls-25 {
        fill: #c6934f;
      }

      .cls-26 {
        fill: url(#New_Gradient_Swatch_1-2);
      }

      .cls-27 {
        fill: url(#New_Gradient_Swatch_1-9);
      }

      .cls-28 {
        fill: url(#linear-gradient-7);
      }

      .cls-29 {
        fill: url(#linear-gradient-9);
      }

      .cls-30 {
        fill: url(#linear-gradient-6);
      }

      .cls-31 {
        fill: url(#New_Gradient_Swatch_1-5);
      }

      .cls-32 {
        fill: #ebebeb;
      }

      .cls-33 {
        fill: #a06927;
      }

      .cls-34 {
        fill: url(#New_Gradient_Swatch_1-15);
      }

      .cls-35 {
        fill: #fafafa;
      }

      .cls-36 {
        fill: url(#New_Gradient_Swatch_1-20);
      }

      .cls-37 {
        fill: url(#linear-gradient);
      }

      .cls-38 {
        fill: url(#New_Gradient_Swatch_1-14);
      }

      .cls-39 {
        fill: url(#New_Gradient_Swatch_1);
      }
    </style>
    <linearGradient id="New_Gradient_Swatch_1" data-name="New Gradient Swatch 1" x1="58.05" y1="56.92" x2="58.05" y2="280.24" gradientUnits="userSpaceOnUse">
      <stop offset=".09" stop-color="#563007"/>
      <stop offset=".31" stop-color="#fae5a8"/>
      <stop offset=".45" stop-color="#7a5c35"/>
      <stop offset=".48" stop-color="#7d6037"/>
      <stop offset=".51" stop-color="#896d3f"/>
      <stop offset=".54" stop-color="#9c834c"/>
      <stop offset=".56" stop-color="#b7a25e"/>
      <stop offset=".59" stop-color="#d9c976"/>
      <stop offset=".62" stop-color="#fff590"/>
      <stop offset=".63" stop-color="#e0d27b"/>
      <stop offset=".65" stop-color="#c5b268"/>
      <stop offset=".67" stop-color="#ad9758"/>
      <stop offset=".69" stop-color="#9a814b"/>
      <stop offset=".71" stop-color="#8b7041"/>
      <stop offset=".73" stop-color="#81643a"/>
      <stop offset=".77" stop-color="#7b5d36"/>
      <stop offset=".88" stop-color="#7a5c35"/>
      <stop offset=".95" stop-color="#644119" stop-opacity=".7"/>
      <stop offset="1" stop-color="#563007" stop-opacity=".5"/>
    </linearGradient>
    <linearGradient id="linear-gradient" x1="53.05" y1="243.16" x2="53.05" y2="71.43" gradientUnits="userSpaceOnUse">
      <stop offset=".07" stop-color="#bd97bb"/>
      <stop offset=".17" stop-color="#ceb3cd"/>
      <stop offset=".3" stop-color="#e0cedf"/>
      <stop offset=".43" stop-color="#ede4ed"/>
      <stop offset=".58" stop-color="#f7f3f7"/>
      <stop offset=".75" stop-color="#fdfcfd"/>
      <stop offset="1" stop-color="#fff"/>
    </linearGradient>
    <linearGradient id="New_Gradient_Swatch_1-2" data-name="New Gradient Swatch 1" x1="53.05" y1="219.92" x2="53.05" y2="77.1" xlink:href="#New_Gradient_Swatch_1"/>
    <linearGradient id="New_Gradient_Swatch_1-3" data-name="New Gradient Swatch 1" x1="172.52" y1="83.03" x2="172.52" y2="271.88" xlink:href="#New_Gradient_Swatch_1"/>
    <linearGradient id="linear-gradient-2" x1="167.52" y1="238.72" x2="167.52" y2="95.36" xlink:href="#linear-gradient"/>
    <linearGradient id="New_Gradient_Swatch_1-4" data-name="New Gradient Swatch 1" x1="167.52" y1="219.32" x2="167.52" y2="100.09" xlink:href="#New_Gradient_Swatch_1"/>
    <linearGradient id="New_Gradient_Swatch_1-5" data-name="New Gradient Swatch 1" x1="278.27" y1="100.55" x2="278.27" y2="267.72" xlink:href="#New_Gradient_Swatch_1"/>
    <linearGradient id="linear-gradient-3" x1="273.27" y1="237.04" x2="273.27" y2="111.51" xlink:href="#linear-gradient"/>
    <linearGradient id="New_Gradient_Swatch_1-6" data-name="New Gradient Swatch 1" x1="273.27" y1="220.05" x2="273.27" y2="115.65" xlink:href="#New_Gradient_Swatch_1"/>
    <linearGradient id="New_Gradient_Swatch_1-7" data-name="New Gradient Swatch 1" x1="336.89" y1="56.17" x2="336.89" y2="275.08" xlink:href="#New_Gradient_Swatch_1"/>
    <linearGradient id="linear-gradient-4" x1="331.89" y1="238.49" x2="331.89" y2="70.4" xlink:href="#linear-gradient"/>
    <linearGradient id="New_Gradient_Swatch_1-8" data-name="New Gradient Swatch 1" x1="331.89" y1="215.75" x2="331.89" y2="75.95" xlink:href="#New_Gradient_Swatch_1"/>
    <linearGradient id="New_Gradient_Swatch_1-9" data-name="New Gradient Swatch 1" x1="370" y1="101.51" x2="370" y2="261.88" xlink:href="#New_Gradient_Swatch_1"/>
    <linearGradient id="linear-gradient-5" x1="365" y1="231.97" x2="365" y2="112.04" xlink:href="#linear-gradient"/>
    <linearGradient id="New_Gradient_Swatch_1-10" data-name="New Gradient Swatch 1" x1="365" y1="215.74" x2="365" y2="116" xlink:href="#New_Gradient_Swatch_1"/>
    <linearGradient id="New_Gradient_Swatch_1-11" data-name="New Gradient Swatch 1" x1="464.56" y1="92.68" x2="464.56" y2="314.79" xlink:href="#New_Gradient_Swatch_1"/>
    <linearGradient id="linear-gradient-6" x1="459.56" y1="277.85" x2="459.56" y2="107.11" xlink:href="#linear-gradient"/>
    <linearGradient id="New_Gradient_Swatch_1-12" data-name="New Gradient Swatch 1" x1="459.56" y1="254.74" x2="459.56" y2="112.75" xlink:href="#New_Gradient_Swatch_1"/>
    <linearGradient id="New_Gradient_Swatch_1-13" data-name="New Gradient Swatch 1" x1="593.21" y1="77.97" x2="587.57" y2="296.57" gradientTransform="translate(506.16 -433.27) rotate(65.38)" xlink:href="#New_Gradient_Swatch_1"/>
    <linearGradient id="New_Gradient_Swatch_1-14" data-name="New Gradient Swatch 1" x1="542.01" y1="133.34" x2="660.42" y2="246.32" gradientTransform="translate(494.96 -428.92) rotate(65.38)" xlink:href="#New_Gradient_Swatch_1"/>
    <linearGradient id="_Áåçûìÿííûé_ãðàäèåíò_3" data-name="Áåçûìÿííûé ãðàäèåíò 3" x1="-2567.52" y1="1679.76" x2="-2440.15" y2="1679.76" gradientTransform="translate(121.76 -2794.08) rotate(-65.39)" gradientUnits="userSpaceOnUse">
      <stop offset=".22" stop-color="#a5a5a5"/>
      <stop offset=".56" stop-color="#9a9a9a"/>
      <stop offset=".83" stop-color="#a5a3a4"/>
      <stop offset="1" stop-color="#f5f5f5"/>
    </linearGradient>
    <linearGradient id="New_Gradient_Swatch_1-15" data-name="New Gradient Swatch 1" x1="541.43" y1="127.25" x2="622.1" y2="222.67" gradientTransform="translate(487.63 -425.38) rotate(65.38)" xlink:href="#New_Gradient_Swatch_1"/>
    <linearGradient id="New_Gradient_Swatch_1-16" data-name="New Gradient Swatch 1" x1="681.39" y1="72.48" x2="681.39" y2="273.61" xlink:href="#New_Gradient_Swatch_1"/>
    <linearGradient id="linear-gradient-7" x1="676.39" y1="239.05" x2="676.39" y2="85.59" xlink:href="#linear-gradient"/>
    <linearGradient id="New_Gradient_Swatch_1-17" data-name="New Gradient Swatch 1" x1="676.39" y1="218.29" x2="676.39" y2="90.65" xlink:href="#New_Gradient_Swatch_1"/>
    <linearGradient id="New_Gradient_Swatch_1-18" data-name="New Gradient Swatch 1" x1="764.26" y1="74.76" x2="764.26" y2="271.1" xlink:href="#New_Gradient_Swatch_1"/>
    <linearGradient id="linear-gradient-8" x1="759.26" y1="237.09" x2="759.26" y2="87.57" xlink:href="#linear-gradient"/>
    <linearGradient id="New_Gradient_Swatch_1-19" data-name="New Gradient Swatch 1" x1="759.26" y1="216.86" x2="759.26" y2="92.5" xlink:href="#New_Gradient_Swatch_1"/>
    <linearGradient id="New_Gradient_Swatch_1-20" data-name="New Gradient Swatch 1" x1="856.51" y1="74.83" x2="856.51" y2="271.06" xlink:href="#New_Gradient_Swatch_1"/>
    <linearGradient id="linear-gradient-9" x1="851.51" y1="237.06" x2="851.51" y2="87.62" xlink:href="#linear-gradient"/>
    <linearGradient id="New_Gradient_Swatch_1-21" data-name="New Gradient Swatch 1" x1="851.51" y1="216.84" x2="851.51" y2="92.56" xlink:href="#New_Gradient_Swatch_1"/>
    <linearGradient id="linear-gradient-10" x1="26.14" y1="12.35" x2="145.85" y2="60.93" gradientUnits="userSpaceOnUse">
      <stop offset="0" stop-color="#563007"/>
      <stop offset=".31" stop-color="#fae5a8"/>
      <stop offset=".45" stop-color="#7a5c35"/>
      <stop offset=".48" stop-color="#7d6037"/>
      <stop offset=".51" stop-color="#896d3f"/>
      <stop offset=".54" stop-color="#9c834c"/>
      <stop offset=".56" stop-color="#b7a25e"/>
      <stop offset=".59" stop-color="#d9c976"/>
      <stop offset=".62" stop-color="#fff590"/>
      <stop offset=".63" stop-color="#e0d27b"/>
      <stop offset=".65" stop-color="#c5b268"/>
      <stop offset=".67" stop-color="#ad9758"/>
      <stop offset=".69" stop-color="#9a814b"/>
      <stop offset=".71" stop-color="#8b7041"/>
      <stop offset=".73" stop-color="#81643a"/>
      <stop offset=".77" stop-color="#7b5d36"/>
      <stop offset=".88" stop-color="#7a5c35"/>
      <stop offset=".95" stop-color="#644119" stop-opacity=".7"/>
      <stop offset="1" stop-color="#563007" stop-opacity=".5"/>
    </linearGradient>
  </defs>
  <g id="Layer_1-2" data-name="Layer_1">
    <g>
      <g>
        <path class="cls-17" d="M117.1,89.6v-.5h-.5v-.5h-.5v-.5h-.5v-.5h-.5v-.5h-.5v-.5h-.5v-.5h-.5v-.5h-.5v-.5h-.5v-.5h-.5v-.5h-.5v-.5h-.5v-.5h-.5v-.5h-.5v-.5h-.5v-.5h-.5v-.5h-.5v-.5h-.5v-.5h-.5v-.5h-.5v-.5h-.5v-.5h-.5v-.5h-.5v-.5h-.5v-.5h-50.1v24.61h.5v.5h.5v.5h.5v.5h.5v.5h.5v.5h.5v.5h.5v.5h.5v.5h.5v.5h.5v.5h.5v.5h.5v.5h.5v.5h.5v.5h.5v.5h.5v.5h.5v.5h.5v.5h.5v.5h.5v.5h.5v.5h.5v.5h.5v.5h.5v.5h.5v.5h11.21v43.11c0,21.2-7.18,37.81-31.19,37.81-7.43,0-14.28-3.4-19.89-7.7-.02-.02-.03-.04-.05-.06h-.01c-.07-.04-.15-.1-.22-.16-.09-.11-.18-.23-.27-.34l-.05.07c-.15-.19-.3-.38-.45-.57l-.05.07c-.15-.19-.3-.38-.45-.57l-.05.07c-.15-.19-.3-.38-.45-.57l-.05.07c-.15-.19-.3-.38-.45-.57l-.05.07c-.15-.19-.3-.38-.45-.57l-.05.07c-.15-.19-.3-.38-.45-.57l-.05.07c-.15-.19-.3-.38-.45-.57l-.05.07c-.15-.19-.3-.38-.45-.57l-.05.07c-.15-.19-.3-.38-.45-.57l-.05.07c-.15-.19-.3-.38-.45-.57l-.05.07c-.15-.19-.3-.38-.45-.57l-.05.07c-.15-.19-.3-.38-.45-.57l-.05.07c-.15-.19-.3-.38-.45-.57l-.05.07c-.15-.19-.3-.38-.45-.57l-.05.07c-.15-.19-.3-.38-.45-.57l-.05.07c-.15-.19-.3-.38-.45-.57l-.05.07c-.15-.19-.3-.38-.45-.57l-.05.07c-.15-.19-.3-.38-.45-.57l-.05.07c-.15-.19-.3-.38-.45-.57l-.05.07c-.15-.19-.3-.38-.45-.57L1,196.83c.17.16.34.33.51.49h0c.17.17.34.34.51.5h0c.17.17.34.34.51.5h0c.17.17.34.34.51.5h0c.17.17.34.34.51.5h0c.17.17.34.34.51.5h0c.17.17.34.34.51.5h0c.17.17.34.34.51.5h0c.17.17.34.34.51.5h0c.17.17.34.34.51.5h0c.17.17.34.34.51.5h0c.17.17.34.34.51.5h0c.17.17.34.34.51.5h0c.17.17.34.34.51.5h0c.17.17.34.34.51.5h0c.17.17.34.34.51.5h0c.17.17.34.34.51.5h0c.17.17.34.34.51.5h0c.17.17.34.34.51.5h0c.17.17.34.34.51.5h0c.17.17.34.34.51.5h0c.17.17.34.34.51.5h0c.17.17.34.34.51.5h0c.17.17.34.34.51.5h0c.17.17.34.34.51.5h0c10.89,10.59,28.37,23.1,46.51,23.1,38.6,0,57.59-26.4,57.59-62.61v-80.21h-.5Z"/>
        <path class="cls-39" d="M114.6,87.1v-.5h-.5v-.5h-.5v-.5h-.5v-.5h-.5v-.5h-.5v-.5h-.5v-.5h-.5v-.5h-.5v-.5h-.5v-.5h-.5v-.5h-.5v-.5h-.5v-.5h-.5v-.5h-.5v-.5h-.5v-.5h-.5v-.5h-.5v-.5h-.5v-.5h-.5v-.5h-50.1v24.61h.5v.5h.5v.5h.5v.5h.5v.5h.5v.5h.5v.5h.5v.5h.5v.5h.5v.5h.5v.5h.5v.5h.5v.5h.5v.5h.5v.5h.5v.5h.5v.5h.5v.5h.5v.5h.5v.5h.5v.5h13.71v45.61c0,21.2-7.18,37.81-31.19,37.81-7.55,0-14.51-3.51-20.17-7.92-.09-.11-.18-.23-.27-.34l-.05.07c-.15-.19-.3-.38-.45-.57l-.05.07c-.15-.19-.3-.38-.45-.57l-.05.07c-.15-.19-.3-.38-.45-.57l-.05.07c-.15-.19-.3-.38-.45-.57l-.05.07c-.15-.19-.3-.38-.45-.57l-.05.07c-.15-.19-.3-.38-.45-.57l-.05.07c-.15-.19-.3-.38-.45-.57l-.05.07c-.15-.19-.3-.38-.45-.57l-.05.07c-.15-.19-.3-.38-.45-.57l-.05.07c-.15-.19-.3-.38-.45-.57l-.05.07c-.15-.19-.3-.38-.45-.57l-.05.07c-.15-.19-.3-.38-.45-.57l-.05.07c-.15-.19-.3-.38-.45-.57l-.05.07c-.15-.19-.3-.38-.45-.57l-.05.07c-.15-.19-.3-.38-.45-.57l-.05.07c-.15-.19-.3-.38-.45-.57l-.05.07c-.15-.19-.3-.38-.45-.57l-.05.07c-.15-.19-.3-.38-.45-.57l-.05.07c-.15-.19-.3-.38-.45-.57l-.05.07c-.15-.19-.3-.38-.45-.57L1,196.83c.17.16.34.33.51.49h0c.17.17.34.34.51.5h0c.17.17.34.34.51.5h0c.17.17.34.34.51.5h0c.17.17.34.34.51.5h0c.17.17.34.34.51.5h0c.17.17.34.34.51.5h0c.17.17.34.34.51.5h0c.17.17.34.34.51.5h0c.17.17.34.34.51.5h0c.17.17.34.34.51.5h0c.17.17.34.34.51.5h0c.17.17.34.34.51.5h0c.17.17.34.34.51.5h0c.17.17.34.34.51.5h0c.17.17.34.34.51.5h0c.17.17.34.34.51.5h0c.17.17.34.34.51.5h0c.17.17.34.34.51.5h0c.17.17.34.34.51.5h0c10.89,10.59,28.37,23.1,46.51,23.1,38.6,0,57.59-26.4,57.59-62.61v-80.21h-.5Z"/>
        <path class="cls-37" d="M54.99,77.1v24.61h23.71v55.61c0,21.2-7.18,37.81-31.19,37.81-13.23,0-24.66-10.79-30.44-18.26L1,196.83c10.89,10.58,28.37,23.09,46.51,23.09,38.6,0,57.59-26.4,57.59-62.61v-80.21h-50.1Z"/>
        <path class="cls-26" d="M103.1,79.1v78.21c0,17.99-4.78,33.06-13.83,43.58-9.72,11.3-23.77,17.03-41.75,17.03s-36.02-13.99-43.8-21.27l13.37-16.61c4.87,5.74,16.28,17.08,30.43,17.08,22.02,0,33.19-13.39,33.19-39.81v-55.61c0-1.1-.9-2-2-2h-21.71v-20.61h46.1M105.1,77.1h-50.1v24.61h23.71v55.61c0,21.2-7.18,37.81-31.19,37.81-13.23,0-24.66-10.79-30.44-18.26L1,196.83c10.89,10.58,28.37,23.09,46.51,23.09,38.6,0,57.59-26.4,57.59-62.61v-80.21h0Z"/>
      </g>
      <g>
        <path class="cls-17" d="M228.47,165.96c-16.66-19.8-35.82-35.01-47.46-51.94l-.98-1.43-.08.11-.42-.61-.08.11-.42-.61-.08.11-.42-.61-.08.11-.42-.61-.08.11-.42-.61-.08.11-.42-.61-.08.11-.42-.61-.08.11-.42-.61-.08.11-.42-.61-.08.11-.42-.61-.08.11-.42-.61-.08.11-.42-.61-.08.11-.42-.61-.08.11-.42-.61-.08.11-.42-.61-.08.11-.42-.61-.08.11-.42-.61-.08.11-.42-.61-.08.11-.42-.61-.08.11-.42-.61-.08.11-.42-.61-.08.11-.42-.61-.08.11-.42-.61-.08.11-.42-.61-.08.11-.42-.61-.99,1.43c-11.64,16.93-30.8,32.14-47.46,51.94-12.82,15.39-9.85,32.28.21,42.02.17.17.33.34.5.5.17.17.33.34.5.5.17.17.33.34.5.5.17.17.33.34.5.5.17.17.33.34.5.5.17.17.33.34.5.5.17.17.33.34.5.5.17.17.33.34.5.5.17.17.33.34.5.5.17.17.33.34.5.5.17.17.33.34.5.5.17.17.33.34.5.5.17.17.33.34.5.5.17.17.33.34.5.5.17.17.33.34.5.5.17.17.33.34.5.5.17.17.33.34.5.5.17.17.33.34.5.5.17.17.33.34.5.5.17.17.33.34.5.5.17.17.33.34.5.5.17.17.33.34.5.5.17.17.33.34.5.5.17.17.33.34.5.5,5.06,5.15,12.05,8.43,19.77,8.68-1.39,2.05-2.28,3.17-2.28,3.17h.89c-.24.32-.39.5-.39.5h.89c-.24.32-.39.5-.39.5h.89c-.24.32-.39.5-.39.5h.89c-.24.32-.39.5-.39.5h.89c-.24.32-.39.5-.39.5h.89c-.24.32-.39.5-.39.5h.89c-.24.32-.39.5-.39.5h.89c-.24.32-.39.5-.39.5h.89c-.24.32-.39.5-.39.5h.89c-.24.32-.39.5-.39.5h.89c-.24.32-.39.5-.39.5h.89c-.24.32-.39.5-.39.5h.89c-.24.32-.39.5-.39.5h.89c-.24.32-.39.5-.39.5h.89c-.24.32-.39.5-.39.5h.89c-.24.32-.39.5-.39.5h.89c-.24.32-.39.5-.39.5h.89c-.24.32-.39.5-.39.5h.89c-.24.32-.39.5-.39.5h.89c-.24.32-.39.5-.39.5h.89c-.24.32-.39.5-.39.5h.89c-.24.32-.39.5-.39.5h.89c-.24.32-.39.5-.39.5h.89c-.24.32-.39.5-.39.5h.89c-.24.32-.39.5-.39.5h37.43s-6.99-8.68-12.49-22.8c4.19,2.93,9.88,5.08,14.45,6.23,26.34,6.59,49.33-23.45,27.8-49.29ZM180.51,140.44c.16.17.33.33.5.5.16.17.33.33.5.5.16.17.33.33.5.5.16.17.33.33.5.5.16.17.33.33.5.5.16.17.33.33.5.5.16.17.33.33.5.5.16.17.33.33.5.5.16.17.33.33.5.5.16.17.33.33.5.5,4.94,5.05,10.93,10.01,16.98,15.41,10.19,14.39-4.48,29.69-21.09,26.05-2.5-.55-5.22-1.24-7.58-2.6-.13-.2-.2-.31-.2-.31,0,0-.03.05-.08.12-.27-.38-.42-.62-.42-.62,0,0-.03.05-.08.12-.27-.38-.42-.62-.42-.62,0,0-.03.05-.08.12-.27-.38-.42-.62-.42-.62,0,0-.03.05-.08.12-.27-.38-.42-.62-.42-.62,0,0-.03.05-.08.12-.27-.38-.42-.62-.42-.62,0,0-.03.05-.08.12-.27-.38-.42-.62-.42-.62,0,0-.03.05-.08.12-.27-.38-.42-.62-.42-.62,0,0-.03.05-.08.12-.27-.38-.42-.62-.42-.62,0,0-.03.05-.08.12-.27-.38-.42-.62-.42-.62,0,0-.03.05-.08.12-.27-.38-.42-.62-.42-.62,0,0-.03.05-.08.12-.27-.38-.42-.62-.42-.62,0,0-.03.05-.08.12-.27-.38-.42-.62-.42-.62,0,0-2.51,3.53-4.9,5.29-2.4,1.77-6.04,2.95-9.1,3.62-4.09.89-8.05.63-11.56-.47-1.15-4.92.22-10.59,5.36-15.95,11.17-11.64,24.09-20.55,31.93-30.48.07-.09.19-.25.32-.4.11.11.23.23.34.34.16.17.33.33.5.5Z"/>
        <path class="cls-2" d="M225.97,163.46c-16.66-19.8-35.82-35.01-47.46-51.94l-.98-1.43-.08.11-.42-.61-.08.11-.42-.61-.08.11-.42-.61-.08.11-.42-.61-.08.11-.42-.61-.08.11-.42-.61-.08.11-.42-.61-.08.11-.42-.61-.08.11-.42-.61-.08.11-.42-.61-.08.11-.42-.61-.08.11-.42-.61-.08.11-.42-.61-.08.11-.42-.61-.08.11-.42-.61-.08.11-.42-.61-.08.11-.42-.61-.08.11-.42-.61-.08.11-.42-.61-.08.11-.42-.61-.99,1.43c-11.64,16.93-30.8,32.14-47.46,51.94-12.82,15.39-9.85,32.28.21,42.02.17.17.33.34.5.5.17.17.33.34.5.5.17.17.33.34.5.5.17.17.33.34.5.5.17.17.33.34.5.5.17.17.33.34.5.5.17.17.33.34.5.5.17.17.33.34.5.5.17.17.33.34.5.5.17.17.33.34.5.5.17.17.33.34.5.5.17.17.33.34.5.5.17.17.33.34.5.5.17.17.33.34.5.5.17.17.33.34.5.5.17.17.33.34.5.5.17.17.33.34.5.5.17.17.33.34.5.5.17.17.33.34.5.5,5.98,6.07,14.63,9.55,24.01,8.5-2.34,3.76-4.02,5.84-4.02,5.84h.89c-.24.32-.39.5-.39.5h.89c-.24.32-.39.5-.39.5h.89c-.24.32-.39.5-.39.5h.89c-.24.32-.39.5-.39.5h.89c-.24.32-.39.5-.39.5h.89c-.24.32-.39.5-.39.5h.89c-.24.32-.39.5-.39.5h.89c-.24.32-.39.5-.39.5h.89c-.24.32-.39.5-.39.5h.89c-.24.32-.39.5-.39.5h.89c-.24.32-.39.5-.39.5h.89c-.24.32-.39.5-.39.5h.89c-.24.32-.39.5-.39.5h.89c-.24.32-.39.5-.39.5h.89c-.24.32-.39.5-.39.5h.89c-.24.32-.39.5-.39.5h.89c-.24.32-.39.5-.39.5h.89c-.24.32-.39.5-.39.5h.89c-.24.32-.39.5-.39.5h.89c-.24.32-.39.5-.39.5h37.43s-6.99-8.68-12.49-22.8c4.19,2.93,9.88,5.08,14.45,6.23,26.34,6.59,49.33-23.45,27.8-49.29ZM144.92,167.98c11.17-11.64,24.09-20.55,31.93-30.48.07-.09.19-.25.32-.4.11.11.23.23.34.34.16.17.33.33.5.5.16.17.33.33.5.5.16.17.33.33.5.5.16.17.33.33.5.5.16.17.33.33.5.5.16.17.33.33.5.5.16.17.33.33.5.5.16.17.33.33.5.5.16.17.33.33.5.5.16.17.33.33.5.5.16.17.33.33.5.5,5.45,5.57,12.17,11.03,18.86,17.09,11.35,14.62-3.54,30.57-20.46,26.87-2.5-.55-5.22-1.24-7.58-2.6-.13-.2-.2-.31-.2-.31,0,0-.03.05-.08.12-.27-.38-.42-.62-.42-.62,0,0-.03.05-.08.12-.27-.38-.42-.62-.42-.62,0,0-.03.05-.08.12-.27-.38-.42-.62-.42-.62,0,0-.03.05-.08.12-.27-.38-.42-.62-.42-.62,0,0-.03.05-.08.12-.27-.38-.42-.62-.42-.62,0,0-.03.05-.08.12-.27-.38-.42-.62-.42-.62,0,0-.03.05-.08.12-.27-.38-.42-.62-.42-.62,0,0-.03.05-.08.12-.27-.38-.42-.62-.42-.62,0,0-.03.05-.08.12-.27-.38-.42-.62-.42-.62,0,0-.03.05-.08.12-.27-.38-.42-.62-.42-.62,0,0-.03.05-.08.12-.27-.38-.42-.62-.42-.62,0,0-.03.05-.08.12-.27-.38-.42-.62-.42-.62,0,0-2.51,3.53-4.9,5.29-2.4,1.77-6.04,2.95-9.1,3.62-4.87,1.06-9.57.49-13.53-1.2-1.97-5.3-.95-11.71,4.82-17.73Z"/>
        <path class="cls-5" d="M215.97,153.46c-16.66-19.8-35.82-35.01-47.46-51.94l-.98-1.43-.99,1.43c-11.64,16.93-30.8,32.14-47.46,51.94-21.53,25.84,1.45,55.88,27.8,49.29,4.55-1.14,10.2-3.27,14.38-6.17-5.5,14.08-12.47,22.75-12.47,22.75h37.43s-6.99-8.68-12.49-22.8c4.19,2.93,9.88,5.08,14.45,6.23,26.34,6.59,49.33-23.45,27.8-49.29ZM181.41,186.9c-3.08-.67-6.5-1.55-9.15-3.65-2.65-2.11-4.64-5.26-4.64-5.26,0,0-2.5,3.53-4.9,5.29-2.4,1.77-6.04,2.95-9.1,3.62-17.72,3.87-33.23-13.79-18.7-28.92,11.17-11.64,24.09-20.55,31.93-30.48.17-.21.67-.85.66-.84s.5.63.66.84c7.83,9.94,20.76,18.83,31.94,30.48,14.53,15.13-.98,32.8-18.71,28.92Z"/>
        <path class="cls-1" d="M167.52,103.6c6.62,9.38,15.44,18.22,24.75,27.57,7.37,7.4,14.99,15.05,22.16,23.57,8.26,9.91,10.29,21.36,5.59,31.4-4.42,9.44-14.03,15.54-24.47,15.54-2.29,0-4.61-.29-6.9-.86-5.21-1.31-10.36-3.52-13.79-5.92-.35-.24-.75-.36-1.15-.36-.44,0-.87.14-1.24.43-.69.54-.95,1.48-.63,2.3,3.63,9.32,7.87,16.28,10.44,20.07h-29.6c2.57-3.79,6.79-10.73,10.42-20.02.32-.82.07-1.75-.62-2.3-.36-.29-.8-.43-1.24-.43-.4,0-.8.12-1.14.36-3.44,2.39-8.57,4.59-13.72,5.88-2.29.57-4.61.86-6.9.86-10.44,0-20.04-6.1-24.47-15.54-4.7-10.04-2.67-21.49,5.58-31.39,7.17-8.53,14.8-16.18,22.17-23.58,9.31-9.35,18.13-18.19,24.74-27.56M148.66,189.44c1.79,0,3.6-.2,5.39-.59,2.38-.52,6.82-1.72,9.86-3.97,1.33-.98,2.66-2.4,3.66-3.59.89,1.1,2.08,2.42,3.45,3.51,2.98,2.37,6.71,3.33,9.96,4.04,1.78.39,3.6.59,5.39.59,8.92,0,17.01-4.94,20.14-12.28,2.89-6.78,1.08-14.27-4.96-20.57-4.95-5.16-10.18-9.73-15.23-14.15-6.32-5.52-12.29-10.74-16.57-16.18l-.21-.27c-.14-.18-.31-.39-.38-.49,0-.01-.02-.03-.03-.04-.38-.51-.97-.81-1.61-.81-.01,0-.02,0-.04,0-.95.02-1.3.46-2.07,1.43l-.13.17c-4.29,5.43-10.25,10.64-16.56,16.16-5.06,4.43-10.29,9-15.25,14.17-6.04,6.3-7.85,13.79-4.97,20.57,3.13,7.35,11.23,12.28,20.15,12.28M167.52,100.09l-.99,1.43c-11.64,16.93-30.8,32.14-47.46,51.94-19.48,23.39-2.51,50.21,20.41,50.21,2.41,0,4.88-.3,7.38-.92,4.55-1.14,10.2-3.27,14.38-6.17-5.5,14.08-12.47,22.75-12.47,22.75h37.43s-6.99-8.68-12.49-22.8c4.19,2.93,9.88,5.08,14.45,6.23,2.5.63,4.98.92,7.38.92,22.93,0,39.9-26.82,20.42-50.21-16.66-19.8-35.82-35.01-47.46-51.94l-.98-1.43h0ZM148.66,187.44c-15.44,0-26.89-15.76-13.74-29.46,11.17-11.64,24.09-20.55,31.93-30.48.16-.21.66-.84.66-.84h0s.5.63.66.84c7.83,9.94,20.76,18.83,31.94,30.48,13.14,13.69,1.69,29.47-13.74,29.47-1.62,0-3.28-.17-4.97-.54-3.08-.67-6.5-1.55-9.15-3.65s-4.64-5.26-4.64-5.26c0,0-2.5,3.53-4.9,5.29s-6.04,2.95-9.1,3.62c-1.68.37-3.34.54-4.96.54h0Z"/>
      </g>
      <g>
        <path class="cls-17" d="M330.46,216.46s0,0,0,0l-.51-.49s0,0,0,0l-.51-.49s0,0,0,0l-.51-.49s0,0,0,0l-.51-.49s0,0,0,0l-.51-.49s0,0,0,0l-.51-.49s0,0,0,0l-.51-.49s0,0,0,0l-.51-.49s0,0,0,0l-.51-.49s0,0,0,0l-.51-.49s0,0,0,0l-.51-.49s0,0,0,0l-.51-.49s0,0,0,0l-.51-.49s0,0,0,0l-.51-.49s0,0,0,0l-.51-.49s0,0,0,0l-.51-.49s0,0,0,0l-.51-.49s0,0,0,0l-.51-.49s0,0,0,0l-.51-.49s0,0,0,0l-.51-.49s0,0,0,0l-.51-.49s0,0,0,0l-.51-.49s0,0,0,0l-.51-.49s0,0,0,0l-.51-.49s0,0,0,0l-16.4-16c-6,6-13.8,8.2-21.6,8.2-4.56,0-8.9-.91-12.75-2.67-1.76-3.84-2.75-8.39-2.75-13.63,0-17.2,12-29.2,28.4-29.2,6.8,0,14,2.6,19.8,7.8l15.4-16.2c-.17-.17-.34-.32-.51-.48v-.02c-.16-.17-.33-.32-.5-.48v-.02c-.16-.17-.33-.32-.5-.48v-.02c-.16-.17-.33-.32-.5-.48v-.02c-.16-.17-.33-.32-.5-.48v-.02c-.16-.17-.33-.32-.5-.48v-.02c-.16-.17-.33-.32-.5-.48v-.02c-.16-.17-.33-.32-.5-.48v-.02c-.16-.17-.33-.32-.5-.48v-.02c-.16-.17-.33-.32-.5-.48v-.02c-.16-.17-.33-.32-.5-.48v-.02c-.16-.17-.33-.32-.5-.48v-.02c-.16-.17-.33-.32-.5-.48v-.02c-.16-.17-.33-.32-.5-.48v-.02c-.16-.17-.33-.32-.5-.48v-.02c-.16-.17-.33-.32-.5-.48v-.02c-.16-.17-.33-.32-.5-.48v-.02c-.16-.17-.33-.32-.5-.48v-.02c-.16-.17-.33-.32-.5-.48v-.02c-.16-.17-.33-.32-.5-.48v-.02c-.16-.17-.33-.32-.5-.48v-.02c-.16-.17-.33-.32-.5-.48v-.02c-.16-.17-.33-.32-.5-.48v-.02c-.16-.17-.33-.32-.5-.48v-.02c-.16-.17-.33-.32-.5-.48v-.02c-10.79-10.6-21.59-14.6-35.59-14.6-28.6,0-52.4,17.2-52.4,52.2,0,16.61,5.37,29.21,14.06,37.87.16.17.33.33.5.5.16.17.33.33.5.5.16.17.33.33.5.5.16.17.33.33.5.5.16.17.33.33.5.5.16.17.33.33.5.5.16.17.33.33.5.5.16.17.33.33.5.5.16.17.33.33.5.5.16.17.33.33.5.5.16.17.33.33.5.5.16.17.33.33.5.5.16.17.33.33.5.5.16.17.33.33.5.5.16.17.33.33.5.5.16.17.33.33.5.5.16.17.33.33.5.5.16.17.33.33.5.5.16.17.33.33.5.5.16.17.33.33.5.5.16.17.33.33.5.5.16.17.33.33.5.5.16.17.33.33.5.5.16.17.33.33.5.5,9.64,9.92,23.55,14.83,38.83,14.83s26.6-4.4,38-15.6l-.51-.49Z"/>
        <path class="cls-31" d="M327.96,213.96s0,0,0,0l-.51-.49s0,0,0,0l-.51-.49s0,0,0,0l-.51-.49s0,0,0,0l-.51-.49s0,0,0,0l-.51-.49s0,0,0,0l-.51-.49s0,0,0,0l-.51-.49s0,0,0,0l-.51-.49s0,0,0,0l-.51-.49s0,0,0,0l-.51-.49s0,0,0,0l-.51-.49s0,0,0,0l-.51-.49s0,0,0,0l-.51-.49s0,0,0,0l-.51-.49s0,0,0,0l-.51-.49s0,0,0,0l-.51-.49s0,0,0,0l-.51-.49s0,0,0,0l-.51-.49s0,0,0,0l-.51-.49s0,0,0,0l-16.4-16c-6,6-13.8,8.2-21.6,8.2-5.22,0-10.17-1.18-14.4-3.5-2.28-4.18-3.6-9.29-3.6-15.3,0-17.2,12-29.2,28.4-29.2,6.8,0,14,2.6,19.8,7.8l15.4-16.2c-.17-.17-.34-.32-.51-.48v-.02c-.16-.17-.33-.32-.5-.48v-.02c-.16-.17-.33-.32-.5-.48v-.02c-.16-.17-.33-.32-.5-.48v-.02c-.16-.17-.33-.32-.5-.48v-.02c-.16-.17-.33-.32-.5-.48v-.02c-.16-.17-.33-.32-.5-.48v-.02c-.16-.17-.33-.32-.5-.48v-.02c-.16-.17-.33-.32-.5-.48v-.02c-.16-.17-.33-.32-.5-.48v-.02c-.16-.17-.33-.32-.5-.48v-.02c-.16-.17-.33-.32-.5-.48v-.02c-.16-.17-.33-.32-.5-.48v-.02c-.16-.17-.33-.32-.5-.48v-.02c-.16-.17-.33-.32-.5-.48v-.02c-.16-.17-.33-.32-.5-.48v-.02c-.16-.17-.33-.32-.5-.48v-.02c-.16-.17-.33-.32-.5-.48v-.02c-.16-.17-.33-.32-.5-.48v-.02c-.16-.17-.33-.32-.5-.48v-.02c-10.79-10.6-21.59-14.6-35.59-14.6-28.6,0-52.4,17.2-52.4,52.2,0,16.61,5.37,29.21,14.06,37.87.16.17.33.33.5.5.16.17.33.33.5.5.16.17.33.33.5.5.16.17.33.33.5.5.16.17.33.33.5.5.16.17.33.33.5.5.16.17.33.33.5.5.16.17.33.33.5.5.16.17.33.33.5.5.16.17.33.33.5.5.16.17.33.33.5.5.16.17.33.33.5.5.16.17.33.33.5.5.16.17.33.33.5.5.16.17.33.33.5.5.16.17.33.33.5.5.16.17.33.33.5.5.16.17.33.33.5.5.16.17.33.33.5.5,9.64,9.92,23.55,14.83,38.83,14.83s26.6-4.4,38-15.6l-.51-.49Z"/>
        <path class="cls-21" d="M318.47,204.45c-11.4,11.2-23.4,15.6-38,15.6-28.6,0-52.4-17.2-52.4-52.2s23.8-52.2,52.4-52.2c14,0,24.8,4,35.6,14.6l-15.4,16.2c-5.8-5.2-13-7.8-19.8-7.8-16.4,0-28.4,12-28.4,29.2,0,18.8,12.8,28.8,28,28.8,7.8,0,15.6-2.2,21.6-8.2l16.4,16Z"/>
        <path class="cls-23" d="M280.47,117.65c13.29,0,23.2,3.81,32.77,12.67l-12.72,13.39c-5.71-4.56-12.62-7.05-19.65-7.05-17.61,0-30.4,13.12-30.4,31.2,0,21.28,15.07,30.8,30,30.8,8.55,0,15.96-2.56,21.57-7.44l13.55,13.22c-10.16,9.4-21.07,13.62-35.12,13.62s-26.63-4.31-35.58-12.45c-9.7-8.83-14.82-21.88-14.82-37.75s5.13-28.91,14.82-37.75c8.95-8.15,21.25-12.45,35.58-12.45M280.47,115.65c-28.6,0-52.4,17.2-52.4,52.2s23.8,52.2,52.4,52.2c14.6,0,26.6-4.4,38-15.6l-16.4-16c-6,6-13.8,8.2-21.6,8.2-15.2,0-28-10-28-28.8,0-17.2,12-29.2,28.4-29.2,6.8,0,14,2.6,19.8,7.8l15.4-16.2c-10.8-10.6-21.6-14.6-35.6-14.6h0Z"/>
      </g>
      <g>
        <g>
          <polygon class="cls-17" points="356.57 169.25 356.57 88.45 356.07 88.45 356.07 87.95 355.57 87.95 355.57 87.45 355.07 87.45 355.07 86.95 354.57 86.95 354.57 86.45 354.07 86.45 354.07 85.95 353.57 85.95 353.57 85.45 353.07 85.45 353.07 84.95 352.57 84.95 352.57 84.45 352.07 84.45 352.07 83.95 351.57 83.95 351.57 83.45 351.07 83.45 351.07 82.95 350.57 82.95 350.57 82.45 350.07 82.45 350.07 81.95 349.57 81.95 349.57 81.45 349.07 81.45 349.07 80.95 348.57 80.95 348.57 80.45 348.07 80.45 348.07 79.95 347.57 79.95 347.57 79.45 347.07 79.45 347.07 78.95 346.57 78.95 346.57 78.45 346.07 78.45 346.07 77.95 345.57 77.95 345.57 77.45 345.07 77.45 345.07 76.95 344.57 76.95 344.57 76.45 344.07 76.45 344.07 75.95 319.67 75.95 319.67 215.75 320.17 215.75 320.17 216.25 320.67 216.25 320.67 216.75 321.17 216.75 321.17 217.25 321.67 217.25 321.67 217.75 322.17 217.75 322.17 218.25 322.67 218.25 322.67 218.75 323.17 218.75 323.17 219.25 323.67 219.25 323.67 219.75 324.17 219.75 324.17 220.25 324.67 220.25 324.67 220.75 325.17 220.75 325.17 221.25 325.67 221.25 325.67 221.75 326.17 221.75 326.17 222.25 326.67 222.25 326.67 222.75 327.17 222.75 327.17 223.25 327.67 223.25 327.67 223.75 328.17 223.75 328.17 224.25 328.67 224.25 328.67 224.75 329.17 224.75 329.17 225.25 329.67 225.25 329.67 225.75 330.17 225.75 330.17 226.25 330.67 226.25 330.67 226.75 331.17 226.75 331.17 227.25 331.67 227.25 331.67 227.75 332.17 227.75 332.17 228.25 356.57 228.25 356.57 183.65 356.62 183.71 356.62 169.19 356.57 169.25"/>
          <polygon class="cls-15" points="354.07 166.75 354.07 85.95 353.57 85.95 353.57 85.45 353.07 85.45 353.07 84.95 352.57 84.95 352.57 84.45 352.07 84.45 352.07 83.95 351.57 83.95 351.57 83.45 351.07 83.45 351.07 82.95 350.57 82.95 350.57 82.45 350.07 82.45 350.07 81.95 349.57 81.95 349.57 81.45 349.07 81.45 349.07 80.95 348.57 80.95 348.57 80.45 348.07 80.45 348.07 79.95 347.57 79.95 347.57 79.45 347.07 79.45 347.07 78.95 346.57 78.95 346.57 78.45 346.07 78.45 346.07 77.95 345.57 77.95 345.57 77.45 345.07 77.45 345.07 76.95 344.57 76.95 344.57 76.45 344.07 76.45 344.07 75.95 319.67 75.95 319.67 215.75 320.17 215.75 320.17 216.25 320.67 216.25 320.67 216.75 321.17 216.75 321.17 217.25 321.67 217.25 321.67 217.75 322.17 217.75 322.17 218.25 322.67 218.25 322.67 218.75 323.17 218.75 323.17 219.25 323.67 219.25 323.67 219.75 324.17 219.75 324.17 220.25 324.67 220.25 324.67 220.75 325.17 220.75 325.17 221.25 325.67 221.25 325.67 221.75 326.17 221.75 326.17 222.25 326.67 222.25 326.67 222.75 327.17 222.75 327.17 223.25 327.67 223.25 327.67 223.75 328.17 223.75 328.17 224.25 328.67 224.25 328.67 224.75 329.17 224.75 329.17 225.25 329.67 225.25 329.67 225.75 354.07 225.75 354.07 181.15 354.12 181.21 354.12 166.69 354.07 166.75"/>
          <polygon class="cls-18" points="344.12 156.69 344.07 156.75 344.07 75.95 319.67 75.95 319.67 215.75 344.07 215.75 344.07 171.15 344.12 171.21 344.12 156.69"/>
          <path class="cls-3" d="M342.07,77.95v78.8c0,.16.02.31.05.46v13.48c-.04.15-.05.3-.05.46v42.6h-20.4V77.95h20.4M344.07,75.95h-24.4v139.8h24.4v-44.6l.05.06v-14.53l-.05.06v-80.8h0Z"/>
        </g>
        <g>
          <polygon class="cls-17" points="417.82 227.74 417.32 227.24 417.32 227.24 416.82 226.74 416.82 226.74 416.32 226.24 416.32 226.24 415.82 225.74 415.82 225.74 415.32 225.24 415.32 225.24 414.82 224.74 414.82 224.74 414.32 224.24 414.32 224.24 413.82 223.74 413.82 223.74 413.32 223.24 413.32 223.24 412.82 222.74 412.82 222.74 412.32 222.24 412.32 222.24 411.82 221.74 411.82 221.74 411.32 221.24 411.32 221.24 410.82 220.74 410.82 220.74 410.32 220.24 410.32 220.24 409.82 219.74 409.82 219.74 409.32 219.24 409.32 219.24 408.82 218.74 408.82 218.74 408.32 218.24 408.32 218.24 407.82 217.74 407.82 217.74 407.32 217.24 407.32 217.24 406.82 216.74 406.82 216.74 406.32 216.24 406.32 216.24 405.82 215.74 405.82 215.74 368.27 178.35 418.32 128.5 417.32 128.5 417.82 128 416.82 128 417.32 127.5 416.32 127.5 416.82 127 415.82 127 416.32 126.5 415.32 126.5 415.82 126 414.82 126 415.32 125.5 414.32 125.5 414.82 125 413.82 125 414.32 124.5 413.32 124.5 413.82 124 412.82 124 413.32 123.5 412.32 123.5 412.82 123 411.82 123 412.32 122.5 411.32 122.5 411.82 122 410.82 122 411.32 121.5 410.32 121.5 410.82 121 409.82 121 410.32 120.5 409.32 120.5 409.82 120 408.82 120 409.32 119.5 408.32 119.5 408.82 119 407.82 119 408.32 118.5 407.32 118.5 407.82 118 406.82 118 407.32 117.5 406.32 117.5 406.82 117 405.82 117 406.32 116.5 405.32 116.5 405.82 116 374.25 116 324.19 165.87 324.69 166.37 324.69 166.37 325.19 166.87 325.19 166.87 325.69 167.37 325.69 167.37 326.19 167.87 326.19 167.87 326.69 168.37 326.69 168.37 327.19 168.87 327.19 168.87 327.69 169.37 327.69 169.37 328.19 169.87 328.19 169.87 328.69 170.37 328.69 170.37 329.19 170.87 329.19 170.87 329.69 171.37 329.69 171.37 330.19 171.87 330.19 171.87 330.69 172.37 330.69 172.37 331.19 172.87 331.19 172.87 331.69 173.37 331.69 173.37 332.19 173.87 332.19 173.87 332.69 174.37 332.69 174.37 333.19 174.87 333.19 174.87 333.69 175.37 333.69 175.37 334.19 175.87 334.19 175.87 334.69 176.37 334.69 176.37 335.19 176.87 335.19 176.87 335.69 177.37 335.69 177.37 336.19 177.87 336.19 177.87 336.69 178.37 336.69 178.37 386.75 228.24 418.32 228.24 417.82 227.74 417.82 227.74"/>
          <polygon class="cls-27" points="415.32 225.24 414.82 224.74 414.82 224.74 414.32 224.24 414.32 224.24 413.82 223.74 413.82 223.74 413.32 223.24 413.32 223.24 412.82 222.74 412.82 222.74 412.32 222.24 412.32 222.24 411.82 221.74 411.82 221.74 411.32 221.24 411.32 221.24 410.82 220.74 410.82 220.74 410.32 220.24 410.32 220.24 409.82 219.74 409.82 219.74 409.32 219.24 409.32 219.24 408.82 218.74 408.82 218.74 408.32 218.24 408.32 218.24 407.82 217.74 407.82 217.74 407.32 217.24 407.32 217.24 406.82 216.74 406.82 216.74 406.32 216.24 406.32 216.24 405.82 215.74 405.82 215.74 365.77 175.85 415.82 126 414.82 126 415.32 125.5 414.32 125.5 414.82 125 413.82 125 414.32 124.5 413.32 124.5 413.82 124 412.82 124 413.32 123.5 412.32 123.5 412.82 123 411.82 123 412.32 122.5 411.32 122.5 411.82 122 410.82 122 411.32 121.5 410.32 121.5 410.82 121 409.82 121 410.32 120.5 409.32 120.5 409.82 120 408.82 120 409.32 119.5 408.32 119.5 408.82 119 407.82 119 408.32 118.5 407.32 118.5 407.82 118 406.82 118 407.32 117.5 406.32 117.5 406.82 117 405.82 117 406.32 116.5 405.32 116.5 405.82 116 374.25 116 324.19 165.87 324.69 166.37 324.69 166.37 325.19 166.87 325.19 166.87 325.69 167.37 325.69 167.37 326.19 167.87 326.19 167.87 326.69 168.37 326.69 168.37 327.19 168.87 327.19 168.87 327.69 169.37 327.69 169.37 328.19 169.87 328.19 169.87 328.69 170.37 328.69 170.37 329.19 170.87 329.19 170.87 329.69 171.37 329.69 171.37 330.19 171.87 330.19 171.87 330.69 172.37 330.69 172.37 331.19 172.87 331.19 172.87 331.69 173.37 331.69 173.37 332.19 173.87 332.19 173.87 332.69 174.37 332.69 174.37 333.19 174.87 333.19 174.87 333.69 175.37 333.69 175.37 334.19 175.87 334.19 175.87 384.25 225.74 415.82 225.74 415.32 225.24 415.32 225.24"/>
          <polygon class="cls-22" points="405.82 116 374.25 116 324.19 165.87 374.25 215.74 405.82 215.74 355.75 165.87 405.82 116"/>
          <path class="cls-10" d="M400.98,118l-46.64,46.45c-.38.38-.59.89-.59,1.42s.21,1.04.59,1.42l46.64,46.45h-25.9l-48.06-47.87,48.06-47.87h25.9M405.82,116h-31.56l-50.07,49.87,50.07,49.87h31.56l-50.07-49.87,50.07-49.87h0Z"/>
        </g>
      </g>
      <g>
        <path class="cls-17" d="M511.18,139.69c-.16-.17-.33-.33-.5-.5-.16-.17-.33-.33-.5-.5-.16-.17-.33-.33-.5-.5-.16-.17-.33-.33-.5-.5-.16-.17-.33-.33-.5-.5-.16-.17-.33-.33-.5-.5-.16-.17-.33-.33-.5-.5-.16-.17-.33-.33-.5-.5-.16-.17-.33-.33-.5-.5-.16-.17-.33-.33-.5-.5-.16-.17-.33-.33-.5-.5-.16-.17-.33-.33-.5-.5-.16-.17-.33-.33-.5-.5-.16-.17-.33-.33-.5-.5-.16-.17-.33-.33-.5-.5-.16-.17-.33-.33-.5-.5-.16-.17-.33-.33-.5-.5-.16-.17-.33-.33-.5-.5-.16-.17-.33-.33-.5-.5-.16-.17-.33-.33-.5-.5-.16-.17-.33-.33-.5-.5-.16-.17-.33-.33-.5-.5-.16-.17-.33-.33-.5-.5-.16-.17-.33-.33-.5-.5-8.85-9.29-21.51-14.95-36.72-14.95-8.85,0-18.94,3.01-26.54,9.7h0l-.06-.5h-.44l-.06-.5h-.44l-.06-.5h-.44l-.06-.5h-.44l-.06-.5h-.44l-.06-.5h-.44l-.06-.5h-.44l-.06-.5h-.44l-.06-.5h-.44l-.06-.5h-.44l-.06-.5h-.44l-.06-.5h-.44l-.06-.5h-.44l-.06-.5h-.44l-.06-.5h-22.8v139.8h.5v.5h.5v.5h.5v.5h.5v.5h.5v.5h.5v.5h.5v.5h.5v.5h.5v.5h.5v.5h.5v.5h.5v.5h.5v.5h.5v.5h.5v.5h.5v.5h.5v.5h.5v.5h.5v.5h.5v.5h.5v.5h.5v.5h.5v.5h.5v.5h.5v.5h24.4v-52.09c.09.09.19.17.28.26.16.17.33.34.5.5.16.17.33.34.5.5.16.17.33.34.5.5.16.17.33.34.5.5.16.17.33.34.5.5,7.75,8.02,20.83,10.53,30.02,10.53,31.6,0,49.8-22.8,49.8-51.6,0-14.76-5.24-27.84-14.38-37.15ZM488.66,164.35c0,15.4-11.4,28-28,28-4.67,0-8.93-1-12.63-2.77-1.85-3.83-2.87-8.15-2.87-12.73,0-15.4,10.4-28,28-28,4.81,0,9.09.95,12.76,2.63,1.8,3.86,2.74,8.23,2.74,12.87Z"/>
        <path class="cls-13" d="M508.68,137.19c-.16-.17-.33-.33-.5-.5-.16-.17-.33-.33-.5-.5-.16-.17-.33-.33-.5-.5-.16-.17-.33-.33-.5-.5-.16-.17-.33-.33-.5-.5-.16-.17-.33-.33-.5-.5-.16-.17-.33-.33-.5-.5-.16-.17-.33-.33-.5-.5-.16-.17-.33-.33-.5-.5-.16-.17-.33-.33-.5-.5-.16-.17-.33-.33-.5-.5-.16-.17-.33-.33-.5-.5-.16-.17-.33-.33-.5-.5-.16-.17-.33-.33-.5-.5-.16-.17-.33-.33-.5-.5-.16-.17-.33-.33-.5-.5-.16-.17-.33-.33-.5-.5-.16-.17-.33-.33-.5-.5-.16-.17-.33-.33-.5-.5-8.85-9.29-21.51-14.95-36.72-14.95-8.85,0-18.94,3.01-26.54,9.7h0l-.06-.5h-.44l-.06-.5h-.44l-.06-.5h-.44l-.06-.5h-.44l-.06-.5h-.44l-.06-.5h-.44l-.06-.5h-.44l-.06-.5h-.44l-.06-.5h-.44l-.06-.5h-.44l-.06-.5h-.44l-.06-.5h-.44l-.06-.5h-.44l-.06-.5h-.44l-.06-.5h-22.8v139.8h.5v.5h.5v.5h.5v.5h.5v.5h.5v.5h.5v.5h.5v.5h.5v.5h.5v.5h.5v.5h.5v.5h.5v.5h.5v.5h.5v.5h.5v.5h.5v.5h.5v.5h.5v.5h.5v.5h.5v.5h24.4v-52.09c.09.09.19.17.28.26.16.17.33.34.5.5.16.17.33.34.5.5.16.17.33.34.5.5.16.17.33.34.5.5.16.17.33.34.5.5,7.75,8.02,20.83,10.53,30.02,10.53,31.6,0,49.8-22.8,49.8-51.6,0-14.76-5.24-27.84-14.38-37.15ZM460.66,192.35c-5.38,0-10.21-1.33-14.28-3.64-2.4-4.21-3.72-9.12-3.72-14.36,0-15.4,10.4-28,28-28,5.56,0,10.4,1.26,14.42,3.46,2.34,4.24,3.58,9.22,3.58,14.54,0,15.4-11.4,28-28,28Z"/>
        <path class="cls-30" d="M406.06,254.74V114.95h22.8l1.6,13.6c7.6-11,20.8-15.8,32-15.8,30.4,0,50.6,22.6,50.6,51.6s-18.2,51.6-49.8,51.6c-10.4,0-25.8-3.2-32.8-14v52.8h-24.4ZM488.66,164.35c0-15.4-10.4-28-28-28s-28,12.6-28,28,11.4,28,28,28,28-12.6,28-28Z"/>
        <path class="cls-19" d="M462.46,114.75c14.13,0,26.32,4.95,35.25,14.31,8.61,9.02,13.35,21.55,13.35,35.29,0,29.67-19.21,49.6-47.8,49.6-10.94,0-24.87-3.44-31.12-13.09-.38-.58-1.01-.91-1.68-.91-.19,0-.38.03-.57.08-.85.25-1.43,1.03-1.43,1.92v50.8h-20.4V116.95h19.02l1.39,11.83c.1.83.7,1.51,1.5,1.71.16.04.32.06.48.06.65,0,1.27-.31,1.65-.86,7.61-11.01,20.67-14.94,30.35-14.94M460.66,194.35c17.1,0,30-12.9,30-30s-12.34-30-30-30-30,12.34-30,30,12.9,30,30,30M462.46,112.75c-11.2,0-24.4,4.8-32,15.8l-1.6-13.6h-22.8v139.8h24.4v-52.8c7,10.8,22.4,14,32.8,14,31.6,0,49.8-22.8,49.8-51.6s-20.2-51.6-50.6-51.6h0ZM460.66,192.35c-16.6,0-28-12.6-28-28s10.4-28,28-28,28,12.6,28,28-11.4,28-28,28h0Z"/>
      </g>
      <g>
        <ellipse class="cls-17" cx="592.64" cy="179.71" rx="65.23" ry="60.78" transform="translate(182.39 643.62) rotate(-65.38)"/>
        <ellipse class="cls-8" cx="590.64" cy="177.71" rx="65.23" ry="60.78" transform="translate(183.04 640.64) rotate(-65.38)"/>
        <ellipse class="cls-38" cx="581.65" cy="171.16" rx="65.23" ry="60.78" transform="translate(183.76 628.64) rotate(-65.38)"/>
        <g>
          <ellipse class="cls-32" cx="576.59" cy="168.31" rx="63.69" ry="59.4" transform="translate(183.4 622.39) rotate(-65.38)"/>
          <path class="cls-20" d="M603.12,110.41l4.8,2.2c29.82,13.66,42.12,50.66,27.47,82.64-14.65,31.98-50.71,46.82-80.53,33.16l-4.8-2.2c.8.37,1.61.72,2.42,1.04,29.33,11.81,63.85-3.08,78.1-34.2,14.26-31.11,2.99-66.99-25.1-81.49-.78-.4-1.57-.79-2.37-1.15Z"/>
          <ellipse class="cls-35" cx="576.11" cy="168.09" rx="62.32" ry="58.07" transform="translate(183.32 621.82) rotate(-65.38)"/>
          <path class="cls-11" d="M603.12,110.41c.15.07.31.14.46.21.08.04.16.07.23.11.02,0,.04.02.06.03.15.07.29.14.44.21.18.09.35.17.53.26.22.11.43.22.64.33l-2.12.49-7.77,15.94c5.75,2.78,10.73,7.12,14.28,11.93l13.45-11.19,2.22.31,4.8,2.2c6.76,9.53,10.64,21.11,11.15,33.23l-4.79-2.2s0,.06,0,.09c0-.03,0-.06,0-.09l-1.81-.03-16.73,1.64c.11,2.89-.11,5.99-.16,6.09-.04.45-.49,4.25-.6,4.29-.56,3.02-1.47,6.14-2.68,9.12,0,0,0,0,0,.01l15.36,6.11,1.69.78,4.8,2.2c-.37.92-.77,1.84-1.19,2.76-5.09,11.1-12.75,20.13-21.84,26.63l-4.8-2.2-1.15-1.39-8.96-14.29h0c-5.57,3.99-11.64,6.46-17.62,7.52-.02,0-.04,0-.06.01l1.93,17.29.45,1.6c-.06.01-.13.02-.19.03.07,0,.13-.02.2-.03l4.8,2.2c-11.05,1.93-22.57.7-33.29-4.21l-4.8-2.2c-.39-.18-.78-.36-1.16-.55l-.12-1.57,7.77-15.94c-4.78-2.19-10.21-6.48-14.27-11.97l-13.45,11.19-.36,1.37c-7.3-9.76-11.49-21.82-12.01-34.46l.85-.48,16.73-1.64c-.25-6.42.87-13.05,3.46-19.43,0,0,0-.02.01-.03l-15.36-6.11-.76-.26c.38-.92.77-1.85,1.19-2.76,5.11-11.16,12.83-20.23,21.98-26.73l.08,1.03h0s8.96,14.29,8.96,14.29c5.2-3.73,10.98-6.25,17.68-7.51l-1.93-17.28.34-1.13c11.08-1.96,22.66-.74,33.41,4.19Z"/>
          <ellipse class="cls-33" cx="576.4" cy="168.22" rx="38.8" ry="36.16" transform="translate(183.37 622.16) rotate(-65.38)"/>
          <ellipse class="cls-14" cx="576.4" cy="168.22" rx="38.62" ry="35.99" transform="translate(183.37 622.16) rotate(-65.38)"/>
          <ellipse class="cls-34" cx="575.21" cy="167.21" rx="31.44" ry="29.15" transform="translate(183.61 620.49) rotate(-65.38)"/>
          <path class="cls-35" d="M585.41,144.93c11.4,5.23,16.08,19.43,10.44,31.74-5.64,12.3-19.45,18.04-30.86,12.81-11.4-5.23-16.08-19.43-10.44-31.74,5.64-12.3,19.45-18.04,30.85-12.81Z"/>
          <ellipse class="cls-25" cx="575.21" cy="167.21" rx="20.46" ry="18.97" transform="translate(183.61 620.49) rotate(-65.38)"/>
        </g>
      </g>
      <g>
        <path class="cls-17" d="M719.09,205.75c-.09.05-.2.09-.29.14l-.21-.64c-.09.05-.2.09-.29.14l-.21-.64c-.09.05-.2.09-.29.14l-.21-.64c-.09.05-.2.09-.29.14l-.21-.64c-.09.05-.2.09-.29.14l-.21-.64c-.09.05-.2.09-.29.14l-.21-.64c-.09.05-.2.09-.29.14l-.21-.64c-.09.05-.2.09-.29.14l-.21-.64c-.09.05-.2.09-.29.14l-.21-.64c-.09.05-.2.09-.29.14l-.21-.64c-.09.05-.2.09-.29.14l-.21-.64c-.09.05-.2.09-.29.14l-.21-.64c-.09.05-.2.09-.29.14l-.21-.64c-.09.05-.2.09-.29.14l-.21-.64c-.09.05-.2.09-.29.14l-.21-.64c-.09.05-.2.09-.29.14l-.21-.64c-.09.05-.2.09-.29.14l-.21-.64c-.09.05-.2.09-.29.14l-.21-.64c-.09.05-.2.09-.29.14l-.21-.64c-.09.05-.2.09-.29.14l-.21-.64c-.09.05-.2.09-.29.14l-.21-.64c-.09.05-.2.09-.29.14l-.21-.64c-.09.05-.2.09-.29.14l-.21-.64c-.09.05-.2.09-.29.14l-.21-.64c-.09.05-.2.09-.29.14l-.21-.64c-3.6,1.8-8,3-11.8,3-.08,0-.16,0-.25,0-.03-.48-.05-.98-.05-1.49v-42.6h27.4v-21h-.5v-.5h-.5v-.5h-.5v-.5h-.5v-.5h-.5v-.5h-.5v-.5h-.5v-.5h-.5v-.5h-.5v-.5h-.5v-.5h-.5v-.5h-.5v-.5h-.5v-.5h-.5v-.5h-.5v-.5h-.5v-.5h-.5v-.5h-.5v-.5h-.5v-.5h-.5v-.5h-.5v-.5h-.5v-.5h-.5v-.5h-.5v-.5h-.5v-.5h-14.7v-15.5l-.5.05v-.55l-.5.05v-.55l-.5.05v-.55l-.5.05v-.55l-.5.05v-.55l-.5.05v-.55l-.5.05v-.55l-.5.05v-.55l-.5.05v-.55l-.5.05v-.55l-.5.05v-.55l-.5.05v-.55l-.5.05v-.55l-.5.05v-.55l-.5.05v-.55l-.5.05v-.55l-.5.05v-.55l-.5.05v-.55l-.5.05v-.55l-.5.05v-.55l-.5.05v-.55l-.5.05v-.55l-.5.05v-.55l-.5.05v-.55l-.5.05v-.55l-24.4,2.6v25.4h-18.4v21h.5v.5h.5v.5h.5v.5h.5v.5h.5v.5h.5v.5h.5v.5h.5v.5h.5v.5h.5v.5h.5v.5h.5v.5h.5v.5h.5v.5h.5v.5h.5v.5h.5v.5h.5v.5h.5v.5h.5v.5h.5v.5h.5v.5h.5v.5h.5v.5h.5v.5h5.9v30.1c0,12.4,3.56,21.64,9.83,27.67.17.17.33.34.5.5.17.17.33.34.5.5.17.17.33.34.5.5.17.17.33.34.5.5.17.17.33.34.5.5.17.17.33.34.5.5.17.17.33.34.5.5.17.17.33.34.5.5.17.17.33.34.5.5.17.17.33.34.5.5.17.17.33.34.5.5.17.17.33.34.5.5.17.17.33.34.5.5.17.17.33.34.5.5.17.17.33.34.5.5.17.17.33.34.5.5.17.17.33.34.5.5.17.17.33.34.5.5.17.17.33.34.5.5.17.17.33.34.5.5.17.17.33.34.5.5.17.17.33.34.5.5.17.17.33.34.5.5.17.17.33.34.5.5,6.19,6.27,15.17,9.24,26.07,8.83,7.4-.2,13.2-1.4,20.2-4.2l-6.8-20.8Z"/>
        <path class="cls-12" d="M716.59,203.25c-.09.05-.2.09-.29.14l-.21-.64c-.09.05-.2.09-.29.14l-.21-.64c-.09.05-.2.09-.29.14l-.21-.64c-.09.05-.2.09-.29.14l-.21-.64c-.09.05-.2.09-.29.14l-.21-.64c-.09.05-.2.09-.29.14l-.21-.64c-.09.05-.2.09-.29.14l-.21-.64c-.09.05-.2.09-.29.14l-.21-.64c-.09.05-.2.09-.29.14l-.21-.64c-.09.05-.2.09-.29.14l-.21-.64c-.09.05-.2.09-.29.14l-.21-.64c-.09.05-.2.09-.29.14l-.21-.64c-.09.05-.2.09-.29.14l-.21-.64c-.09.05-.2.09-.29.14l-.21-.64c-.09.05-.2.09-.29.14l-.21-.64c-.09.05-.2.09-.29.14l-.21-.64c-.09.05-.2.09-.29.14l-.21-.64c-.09.05-.2.09-.29.14l-.21-.64c-.09.05-.2.09-.29.14l-.21-.64c-.09.05-.2.09-.29.14l-.21-.64c-3.6,1.8-8,3-11.8,3-.85,0-1.67-.07-2.46-.18-.22-1.17-.34-2.44-.34-3.82v-42.6h27.4v-21h-.5v-.5h-.5v-.5h-.5v-.5h-.5v-.5h-.5v-.5h-.5v-.5h-.5v-.5h-.5v-.5h-.5v-.5h-.5v-.5h-.5v-.5h-.5v-.5h-.5v-.5h-.5v-.5h-.5v-.5h-.5v-.5h-.5v-.5h-.5v-.5h-.5v-.5h-.5v-.5h-17.2v-18l-.5.05v-.55l-.5.05v-.55l-.5.05v-.55l-.5.05v-.55l-.5.05v-.55l-.5.05v-.55l-.5.05v-.55l-.5.05v-.55l-.5.05v-.55l-.5.05v-.55l-.5.05v-.55l-.5.05v-.55l-.5.05v-.55l-.5.05v-.55l-.5.05v-.55l-.5.05v-.55l-.5.05v-.55l-.5.05v-.55l-.5.05v-.55l-.5.05v-.55l-24.4,2.6v25.4h-18.4v21h.5v.5h.5v.5h.5v.5h.5v.5h.5v.5h.5v.5h.5v.5h.5v.5h.5v.5h.5v.5h.5v.5h.5v.5h.5v.5h.5v.5h.5v.5h.5v.5h.5v.5h.5v.5h.5v.5h.5v.5h8.4v32.6c0,12.4,3.56,21.64,9.83,27.67.17.17.33.34.5.5.17.17.33.34.5.5.17.17.33.34.5.5.17.17.33.34.5.5.17.17.33.34.5.5.17.17.33.34.5.5.17.17.33.34.5.5.17.17.33.34.5.5.17.17.33.34.5.5.17.17.33.34.5.5.17.17.33.34.5.5.17.17.33.34.5.5.17.17.33.34.5.5.17.17.33.34.5.5.17.17.33.34.5.5.17.17.33.34.5.5.17.17.33.34.5.5.17.17.33.34.5.5.17.17.33.34.5.5,6.19,6.27,15.17,9.24,26.07,8.83,7.4-.2,13.2-1.4,20.2-4.2l-6.8-20.8Z"/>
        <path class="cls-28" d="M682.19,90.65v28h27.2v21h-27.4v42.6c0,9.4,5.2,14,12.8,14,3.8,0,8.2-1.2,11.8-3l6.8,20.8c-7,2.8-12.8,4-20.2,4.2-21.4.8-35.4-11.4-35.4-36v-42.6h-18.4v-21h18.4v-25.4l24.4-2.6Z"/>
        <path class="cls-16" d="M680.19,92.88v25.78c0,1.1.9,2,2,2h25.2v17h-25.4c-1.1,0-2,.9-2,2v42.6c0,10.02,5.53,16,14.8,16,3.26,0,7.09-.83,10.59-2.26l5.52,16.88c-5.98,2.21-11.26,3.21-17.78,3.38-.63.02-1.26.04-1.88.04-9.63,0-17.54-2.93-22.89-8.47-5.67-5.87-8.55-14.48-8.55-25.57v-42.6c0-1.1-.9-2-2-2h-16.4v-17h16.4c1.1,0,2-.9,2-2v-23.6l20.4-2.17M682.19,90.65l-24.4,2.6v25.4h-18.4v21h18.4v42.6c0,23.84,13.15,36.04,33.44,36.04.64,0,1.3-.01,1.96-.04,7.4-.2,13.2-1.4,20.2-4.2l-6.8-20.8c-3.6,1.8-8,3-11.8,3-7.6,0-12.8-4.6-12.8-14v-42.6h27.4v-21h-27.2v-28h0Z"/>
      </g>
      <g>
        <g>
          <path class="cls-17" d="M797.56,105v-.5h-.5v-.5h-.5v-.5h-.5v-.5h-.5v-.5h-.5v-.5h-.5v-.5h-.5v-.5h-.5v-.5h-.5v-.5h-.5v-.5h-.5v-.5h-.5v-.5h-.5v-.5h-.5v-.5h-.5v-.5h-.5v-.5h-.5v-.5h-.5v-.5h-.5v-.5h-.5v-.5h-.5v-.5h-.5v-.5h-.5v-.5h-.5v-.5h-16.2c-4.98,3.79-10.55,7.27-16.71,10.43-6.16,3.17-12.72,5.77-19.68,7.8v22.56c.17-.02.33-.05.5-.07v.57c.17-.02.33-.05.5-.07v.57c.17-.02.33-.05.5-.07v.57c.17-.02.33-.05.5-.07v.57c.17-.02.33-.05.5-.07v.57c.17-.02.33-.05.5-.07v.57c.17-.02.33-.05.5-.07v.57c.17-.02.33-.05.5-.07v.57c.17-.02.33-.05.5-.07v.57c.17-.02.33-.05.5-.07v.57c.17-.02.33-.05.5-.07v.57c.17-.02.33-.05.5-.07v.57c.17-.02.33-.05.5-.07v.57c.17-.02.33-.05.5-.07v.57c.17-.02.33-.05.5-.07v.57c.17-.02.33-.05.5-.07v.57c.17-.02.33-.05.5-.07v.57c.17-.02.33-.05.5-.07v.57c.17-.02.33-.05.5-.07v.57c.17-.02.33-.05.5-.07v.57c.17-.02.33-.05.5-.07v.57c.17-.02.33-.05.5-.07v.57c.17-.02.33-.05.5-.07v.57c.17-.02.33-.05.5-.07v.57c.17-.02.33-.05.5-.07v.57c2.38-.28,4.78-.75,7.21-1.4,2.12-.57,4.17-1.26,6.16-2.05v74.5h.5v.5h.5v.5h.5v.5h.5v.5h.5v.5h.5v.5h.5v.5h.5v.5h.5v.5h.5v.5h.5v.5h.5v.5h.5v.5h.5v.5h.5v.5h.5v.5h.5v.5h.5v.5h.5v.5h.5v.5h.5v.5h.5v.5h.5v.5h.5v.5h.5v.5h26.72v-124.35h-.5Z"/>
          <path class="cls-6" d="M795.06,102.5v-.5h-.5v-.5h-.5v-.5h-.5v-.5h-.5v-.5h-.5v-.5h-.5v-.5h-.5v-.5h-.5v-.5h-.5v-.5h-.5v-.5h-.5v-.5h-.5v-.5h-.5v-.5h-.5v-.5h-.5v-.5h-.5v-.5h-.5v-.5h-.5v-.5h-.5v-.5h-16.2c-4.98,3.79-10.55,7.27-16.71,10.43-6.16,3.17-12.72,5.77-19.68,7.8v22.56c.17-.02.33-.05.5-.07v.57c.17-.02.33-.05.5-.07v.57c.17-.02.33-.05.5-.07v.57c.17-.02.33-.05.5-.07v.57c.17-.02.33-.05.5-.07v.57c.17-.02.33-.05.5-.07v.57c.17-.02.33-.05.5-.07v.57c.17-.02.33-.05.5-.07v.57c.17-.02.33-.05.5-.07v.57c.17-.02.33-.05.5-.07v.57c.17-.02.33-.05.5-.07v.57c.17-.02.33-.05.5-.07v.57c.17-.02.33-.05.5-.07v.57c.17-.02.33-.05.5-.07v.57c.17-.02.33-.05.5-.07v.57c.17-.02.33-.05.5-.07v.57c.17-.02.33-.05.5-.07v.57c.17-.02.33-.05.5-.07v.57c.17-.02.33-.05.5-.07v.57c.17-.02.33-.05.5-.07v.57c2.38-.28,4.78-.75,7.21-1.4,2.43-.65,4.78-1.44,7.04-2.37.56-.23,1.08-.49,1.62-.73v78.06h.5v.5h.5v.5h.5v.5h.5v.5h.5v.5h.5v.5h.5v.5h.5v.5h.5v.5h.5v.5h.5v.5h.5v.5h.5v.5h.5v.5h.5v.5h.5v.5h.5v.5h.5v.5h.5v.5h.5v.5h26.72v-124.35h-.5Z"/>
          <path class="cls-24" d="M785.56,92.5v124.35h-26.72v-94.15c-1.47,1.3-3.21,2.53-5.22,3.69-2.01,1.16-4.14,2.21-6.4,3.14s-4.61,1.73-7.04,2.37c-2.43.65-4.83,1.12-7.21,1.4v-22.56c6.96-2.04,13.52-4.64,19.68-7.8,6.16-3.17,11.73-6.64,16.71-10.43h16.2Z"/>
          <path class="cls-4" d="M783.56,94.5v120.35h-22.72v-92.15c0-.79-.46-1.5-1.18-1.82-.26-.12-.54-.18-.82-.18-.48,0-.95.17-1.33.5-1.36,1.21-3.01,2.37-4.89,3.46-1.92,1.11-3.99,2.12-6.17,3.02-2.18.9-4.46,1.67-6.79,2.29-1.57.42-3.14.76-4.69,1.02v-18.77c6.53-2,12.78-4.52,18.59-7.51,6.02-3.09,11.55-6.52,16.47-10.21h13.53M785.56,92.5h-16.2c-4.98,3.79-10.55,7.27-16.71,10.43-6.16,3.17-12.72,5.77-19.68,7.8v22.56c2.38-.28,4.78-.75,7.21-1.4,2.43-.65,4.78-1.44,7.04-2.37,2.26-.93,4.4-1.98,6.4-3.14,2.01-1.16,3.75-2.39,5.22-3.69v94.15h26.72v-124.35h0Z"/>
        </g>
        <g>
          <polygon class="cls-17" points="926.86 229.34 880.49 165.08 923.85 105.06 922.99 105.06 923.35 104.56 922.49 104.56 922.85 104.06 921.99 104.06 922.35 103.56 921.49 103.56 921.85 103.06 920.99 103.06 921.35 102.56 920.49 102.56 920.85 102.06 919.99 102.06 920.35 101.56 919.49 101.56 919.85 101.06 918.99 101.06 919.35 100.56 918.49 100.56 918.85 100.06 917.99 100.06 918.35 99.56 917.49 99.56 917.85 99.06 916.99 99.06 917.35 98.56 916.49 98.56 916.85 98.06 915.99 98.06 916.35 97.56 915.49 97.56 915.85 97.06 914.99 97.06 915.35 96.56 914.49 96.56 914.85 96.06 913.99 96.06 914.35 95.56 913.49 95.56 913.85 95.06 912.99 95.06 913.35 94.56 912.49 94.56 912.85 94.06 911.99 94.06 912.35 93.56 911.49 93.56 911.85 93.06 910.99 93.06 911.35 92.56 880.09 92.56 853.93 130.2 836.13 105.06 835.99 105.06 835.63 104.56 835.49 104.56 835.13 104.06 834.99 104.06 834.63 103.56 834.49 103.56 834.13 103.06 833.99 103.06 833.63 102.56 833.49 102.56 833.13 102.06 832.99 102.06 832.63 101.56 832.49 101.56 832.13 101.06 831.99 101.06 831.63 100.56 831.49 100.56 831.13 100.06 830.99 100.06 830.63 99.56 830.49 99.56 830.13 99.06 829.99 99.06 829.63 98.56 829.49 98.56 829.13 98.06 828.99 98.06 828.63 97.56 828.49 97.56 828.13 97.06 827.99 97.06 827.63 96.56 827.49 96.56 827.13 96.06 826.99 96.06 826.63 95.56 826.49 95.56 826.13 95.06 825.99 95.06 825.63 94.56 825.49 94.56 825.13 94.06 824.99 94.06 824.63 93.56 824.49 93.56 824.13 93.06 823.99 93.06 823.63 92.56 790.97 92.56 834.55 153.56 788.66 216.84 789.52 216.84 789.16 217.34 790.02 217.34 789.66 217.84 790.52 217.84 790.16 218.34 791.02 218.34 790.66 218.84 791.52 218.84 791.16 219.34 792.02 219.34 791.66 219.84 792.52 219.84 792.16 220.34 793.02 220.34 792.66 220.84 793.52 220.84 793.16 221.34 794.02 221.34 793.66 221.84 794.52 221.84 794.16 222.34 795.02 222.34 794.66 222.84 795.52 222.84 795.16 223.34 796.02 223.34 795.66 223.84 796.52 223.84 796.16 224.34 797.02 224.34 796.66 224.84 797.52 224.84 797.16 225.34 798.02 225.34 797.66 225.84 798.52 225.84 798.16 226.34 799.02 226.34 798.66 226.84 799.52 226.84 799.16 227.34 800.02 227.34 799.66 227.84 800.52 227.84 800.16 228.34 801.02 228.34 800.66 228.84 801.52 228.84 801.16 229.34 834.18 229.34 861.8 188.93 881.16 216.84 881.31 216.84 881.66 217.34 881.81 217.34 882.16 217.84 882.31 217.84 882.66 218.34 882.81 218.34 883.16 218.84 883.31 218.84 883.66 219.34 883.81 219.34 884.16 219.84 884.31 219.84 884.66 220.34 884.81 220.34 885.16 220.84 885.31 220.84 885.66 221.34 885.81 221.34 886.16 221.84 886.31 221.84 886.66 222.34 886.81 222.34 887.16 222.84 887.31 222.84 887.66 223.34 887.81 223.34 888.16 223.84 888.31 223.84 888.66 224.34 888.81 224.34 889.16 224.84 889.31 224.84 889.66 225.34 889.81 225.34 890.16 225.84 890.31 225.84 890.66 226.34 890.81 226.34 891.16 226.84 891.31 226.84 891.66 227.34 891.81 227.34 892.16 227.84 892.31 227.84 892.66 228.34 892.81 228.34 893.16 228.84 893.31 228.84 893.66 229.34 926.86 229.34"/>
          <polygon class="cls-36" points="924.36 226.84 877.99 162.58 921.35 102.56 920.49 102.56 920.85 102.06 919.99 102.06 920.35 101.56 919.49 101.56 919.85 101.06 918.99 101.06 919.35 100.56 918.49 100.56 918.85 100.06 917.99 100.06 918.35 99.56 917.49 99.56 917.85 99.06 916.99 99.06 917.35 98.56 916.49 98.56 916.85 98.06 915.99 98.06 916.35 97.56 915.49 97.56 915.85 97.06 914.99 97.06 915.35 96.56 914.49 96.56 914.85 96.06 913.99 96.06 914.35 95.56 913.49 95.56 913.85 95.06 912.99 95.06 913.35 94.56 912.49 94.56 912.85 94.06 911.99 94.06 912.35 93.56 911.49 93.56 911.85 93.06 910.99 93.06 911.35 92.56 880.09 92.56 853.57 130.72 833.63 102.56 833.49 102.56 833.13 102.06 832.99 102.06 832.63 101.56 832.49 101.56 832.13 101.06 831.99 101.06 831.63 100.56 831.49 100.56 831.13 100.06 830.99 100.06 830.63 99.56 830.49 99.56 830.13 99.06 829.99 99.06 829.63 98.56 829.49 98.56 829.13 98.06 828.99 98.06 828.63 97.56 828.49 97.56 828.13 97.06 827.99 97.06 827.63 96.56 827.49 96.56 827.13 96.06 826.99 96.06 826.63 95.56 826.49 95.56 826.13 95.06 825.99 95.06 825.63 94.56 825.49 94.56 825.13 94.06 824.99 94.06 824.63 93.56 824.49 93.56 824.13 93.06 823.99 93.06 823.63 92.56 790.97 92.56 834.55 153.56 788.66 216.84 789.52 216.84 789.16 217.34 790.02 217.34 789.66 217.84 790.52 217.84 790.16 218.34 791.02 218.34 790.66 218.84 791.52 218.84 791.16 219.34 792.02 219.34 791.66 219.84 792.52 219.84 792.16 220.34 793.02 220.34 792.66 220.84 793.52 220.84 793.16 221.34 794.02 221.34 793.66 221.84 794.52 221.84 794.16 222.34 795.02 222.34 794.66 222.84 795.52 222.84 795.16 223.34 796.02 223.34 795.66 223.84 796.52 223.84 796.16 224.34 797.02 224.34 796.66 224.84 797.52 224.84 797.16 225.34 798.02 225.34 797.66 225.84 798.52 225.84 798.16 226.34 799.02 226.34 798.66 226.84 831.68 226.84 859.68 185.88 881.16 216.84 881.31 216.84 881.66 217.34 881.81 217.34 882.16 217.84 882.31 217.84 882.66 218.34 882.81 218.34 883.16 218.84 883.31 218.84 883.66 219.34 883.81 219.34 884.16 219.84 884.31 219.84 884.66 220.34 884.81 220.34 885.16 220.84 885.31 220.84 885.66 221.34 885.81 221.34 886.16 221.84 886.31 221.84 886.66 222.34 886.81 222.34 887.16 222.84 887.31 222.84 887.66 223.34 887.81 223.34 888.16 223.84 888.31 223.84 888.66 224.34 888.81 224.34 889.16 224.84 889.31 224.84 889.66 225.34 889.81 225.34 890.16 225.84 890.31 225.84 890.66 226.34 890.81 226.34 891.16 226.84 924.36 226.84"/>
          <polygon class="cls-29" points="914.36 216.84 881.16 216.84 851.2 173.65 821.68 216.84 788.66 216.84 834.55 153.56 790.97 92.56 823.63 92.56 852.13 132.8 880.09 92.56 911.35 92.56 867.99 152.58 914.36 216.84"/>
          <path class="cls-7" d="M907.44,94.56l-41.07,56.85c-.5.7-.5,1.64,0,2.34l44.08,61.09h-28.25l-29.36-42.33c-.37-.54-.99-.86-1.64-.86h0c-.66,0-1.27.33-1.64.87l-28.93,42.32h-28.04l43.59-60.11c.5-.7.51-1.64,0-2.34l-41.32-57.84h27.74l27.9,39.4c.38.53.98.84,1.63.84h0c.65,0,1.26-.32,1.63-.86l27.37-39.38h26.3M911.35,92.56h-31.26l-27.97,40.24-28.49-40.24h-32.67l43.58,61-45.89,63.28h33.02l29.53-43.19,29.95,43.19h33.2l-46.37-64.26,43.36-60.02h0Z"/>
        </g>
      </g>
      <g>
        <path class="cls-9" d="M126.37,31.73l-8.52,26.78c-8.71-3.08-20.46-4.97-33.37-4.97s-24.65,1.89-33.37,4.97l-8.52-26.78s24.88,30.84,15.95-14.04c0,0,21.63,45.97,25.94-17.7,4.32,63.67,25.94,17.7,25.94,17.7-8.93,44.88,15.95,14.04,15.95,14.04Z"/>
        <path class="cls-25" d="M117.1,60.87l-.99,2.63c-8.5-2.74-19.55-4.39-31.64-4.39s-23.16,1.7-31.63,4.39l-.94-2.64c8.64-2.94,20-4.68,32.57-4.68s23.97,1.74,32.62,4.7Z"/>
      </g>
    </g>
  </g>
</svg>