<svg width="37" height="16" viewBox="0 0 37 16" fill="none" xmlns="http://www.w3.org/2000/svg">
<path d="M21.0083 16H14.9833C14.7245 16 14.5146 15.7901 14.5146 15.5312C14.5146 10.821 17.1092 8.72587 19.6728 6.16228L20.939 4.89603C20.6447 4.93472 20.3329 4.95412 20.0042 4.95412C18.6852 4.95412 17.5463 4.45206 16.4896 4.45206C15.3638 4.45206 14.4479 5.36797 14.4479 6.49372C14.4479 6.75259 14.2381 6.96247 13.9792 6.96247H11.4688C11.2099 6.96247 11 6.75259 11 6.49372V0.46875C11 0.209875 11.2099 0 11.4688 0H13.9792C14.238 0 14.4479 0.209875 14.4479 0.46875V0.99625C15.4272 0.355531 16.6718 0 17.9958 0C20.0991 0 21.113 1.00419 23.0167 1.00419C23.3119 1.00419 23.5521 0.763969 23.5521 0.46875C23.5521 0.209875 23.762 0 24.0208 0H26.5312C26.7901 0 27 0.209875 27 0.46875C27 2.79341 25.8825 4.42266 24.6995 6.14762C23.1891 8.34987 21.4771 10.846 21.4771 15.5312C21.4771 15.7901 21.2672 16 21.0083 16Z" fill="#FF6320"/>
<path d="M33.2552 13H29.4896C29.3278 13 29.1966 12.8688 29.1966 12.707C29.1966 9.76314 30.8182 8.45367 32.4205 6.85143L33.2119 6.06002C33.0279 6.0842 32.8331 6.09633 32.6276 6.09633C31.8032 6.09633 31.0915 5.78254 30.431 5.78254C29.7274 5.78254 29.155 6.35498 29.155 7.05857C29.155 7.22037 29.0238 7.35154 28.862 7.35154H27.293C27.1312 7.35154 27 7.22037 27 7.05857V3.29297C27 3.13117 27.1312 3 27.293 3H28.862C29.0238 3 29.1549 3.13117 29.1549 3.29297V3.62266C29.767 3.22221 30.5449 3 31.3724 3C32.687 3 33.3206 3.62762 34.5104 3.62762C34.6949 3.62762 34.8451 3.47748 34.8451 3.29297C34.8451 3.13117 34.9762 3 35.138 3H36.707C36.8688 3 37 3.13117 37 3.29297C37 4.74588 36.3016 5.76416 35.5622 6.84227C34.6182 8.21867 33.5482 9.77873 33.5482 12.707C33.5482 12.8688 33.417 13 33.2552 13Z" fill="#FF6320"/>
<path d="M6.25521 13H2.48959C2.32779 13 2.19662 12.8688 2.19662 12.707C2.19662 9.76314 3.81822 8.45367 5.42047 6.85143L6.21187 6.06002C6.02793 6.0842 5.83309 6.09633 5.62764 6.09633C4.80324 6.09633 4.09146 5.78254 3.43102 5.78254C2.7274 5.78254 2.15496 6.35498 2.15496 7.05857C2.15496 7.22037 2.02379 7.35154 1.86199 7.35154H0.292969C0.131172 7.35154 0 7.22037 0 7.05857V3.29297C0 3.13117 0.131172 3 0.292969 3H1.86197C2.02377 3 2.15494 3.13117 2.15494 3.29297V3.62266C2.76699 3.22221 3.54486 3 4.37238 3C5.68695 3 6.32061 3.62762 7.51041 3.62762C7.69492 3.62762 7.84506 3.47748 7.84506 3.29297C7.84506 3.13117 7.97623 3 8.13803 3H9.70703C9.86883 3 10 3.13117 10 3.29297C10 4.74588 9.30158 5.76416 8.56217 6.84227C7.61816 8.21867 6.54818 9.77873 6.54818 12.707C6.54818 12.8688 6.41701 13 6.25521 13Z" fill="#FF6320"/>
</svg>
