<svg width="1252" height="214" viewBox="0 0 1252 214" fill="none" xmlns="http://www.w3.org/2000/svg">
<path d="M1154.69 25.5454C1154.69 18.52 1156.4 13.1245 1159.83 9.3589C1163.31 5.59329 1168.62 3.71049 1175.76 3.71049C1182.9 3.71049 1188.46 5.98671 1192.45 10.5392C1196.45 15.0354 1198.44 22.2856 1198.44 32.2898C1198.44 36.7298 1197.99 40.9732 1197.09 45.0198C1196.19 49.0102 1194.67 52.5791 1192.54 55.7265C1190.4 58.8177 1187.51 61.2625 1183.86 63.061C1180.26 64.8595 1175.71 65.7587 1170.2 65.7587C1168.29 65.7587 1166.4 65.6463 1164.55 65.4215C1162.7 65.1967 1160.92 64.9157 1159.24 64.5785L1160.84 51.2583C1163.99 51.8766 1166.69 52.1857 1168.93 52.1857C1172.76 52.1857 1175.54 51.3707 1177.28 49.7409C1179.02 48.111 1180.17 45.4694 1180.74 41.8162C1178.94 42.5469 1177.2 43.1089 1175.51 43.5023C1173.82 43.8957 1172.19 44.0924 1170.62 44.0924C1166.01 44.0924 1162.19 42.5187 1159.15 39.3714C1156.18 36.224 1154.69 31.6153 1154.69 25.5454ZM1177.03 32.3741C1178.21 32.3741 1179.61 32.1493 1181.24 31.6996C1181.24 26.8662 1181.13 23.2411 1180.9 20.8243C1180.68 18.4076 1180.2 16.8058 1179.47 16.019C1178.74 15.1759 1177.62 14.7544 1176.1 14.7544C1174.69 14.7544 1173.51 15.5412 1172.56 17.1149C1171.66 18.6324 1171.21 20.7119 1171.21 23.3535C1171.21 26.6133 1171.66 28.9457 1172.56 30.3508C1173.46 31.6996 1174.95 32.3741 1177.03 32.3741ZM1203.1 25.5454C1203.1 18.52 1204.81 13.1245 1208.24 9.3589C1211.72 5.59329 1217.03 3.71049 1224.17 3.71049C1231.31 3.71049 1236.87 5.98671 1240.86 10.5392C1244.85 15.0354 1246.85 22.2856 1246.85 32.2898C1246.85 36.7298 1246.4 40.9732 1245.5 45.0198C1244.6 49.0102 1243.08 52.5791 1240.95 55.7265C1238.81 58.8177 1235.92 61.2625 1232.26 63.061C1228.67 64.8595 1224.12 65.7587 1218.61 65.7587C1216.7 65.7587 1214.81 65.6463 1212.96 65.4215C1211.1 65.1967 1209.33 64.9157 1207.65 64.5785L1209.25 51.2583C1212.4 51.8766 1215.09 52.1857 1217.34 52.1857C1221.16 52.1857 1223.95 51.3707 1225.69 49.7409C1227.43 48.111 1228.58 45.4694 1229.15 41.8162C1227.35 42.5469 1225.6 43.1089 1223.92 43.5023C1222.23 43.8957 1220.6 44.0924 1219.03 44.0924C1214.42 44.0924 1210.6 42.5187 1207.56 39.3714C1204.58 36.224 1203.1 31.6153 1203.1 25.5454ZM1225.44 32.3741C1226.62 32.3741 1228.02 32.1493 1229.65 31.6996C1229.65 26.8662 1229.54 23.2411 1229.31 20.8243C1229.09 18.4076 1228.61 16.8058 1227.88 16.019C1227.15 15.1759 1226.03 14.7544 1224.51 14.7544C1223.1 14.7544 1221.92 15.5412 1220.97 17.1149C1220.07 18.6324 1219.62 20.7119 1219.62 23.3535C1219.62 26.6133 1220.07 28.9457 1220.97 30.3508C1221.87 31.6996 1223.36 32.3741 1225.44 32.3741Z" fill="url(#paint0_linear_72_2)"/>
<path d="M1168.15 31.8611C1172.46 35.9248 1179.25 35.7251 1183.31 31.415C1187.38 27.1048 1187.18 20.3164 1182.87 16.2526C1178.56 12.1889 1171.77 12.3886 1167.71 16.6987C1163.64 21.0089 1163.84 27.7973 1168.15 31.8611Z" fill="#60060A"/>
<path d="M1185.86 21.255C1185.5 23.201 1184.59 25.0684 1183.13 26.6162C1179.06 30.9264 1172.28 31.1262 1167.97 27.0623C1166.47 25.6509 1165.47 23.9109 1164.97 22.0601C1164.32 25.533 1165.39 29.2567 1168.15 31.8609C1172.46 35.9247 1179.25 35.725 1183.31 31.4148C1185.97 28.6016 1186.8 24.7326 1185.86 21.2547L1185.86 21.255Z" fill="#780F13"/>
<path d="M1168.11 18.3952C1171.88 14.3935 1178.19 14.2081 1182.19 17.9811C1184.53 20.1864 1185.56 23.2561 1185.26 26.2252C1186.06 22.8734 1185.09 19.2001 1182.41 16.6667C1178.41 12.8938 1172.1 13.0792 1168.33 17.0809C1166.76 18.7436 1165.88 20.8037 1165.67 22.9141C1166.06 21.2736 1166.87 19.7098 1168.11 18.395L1168.11 18.3952Z" fill="#C03141"/>
<mask id="mask0_72_2" style="mask-type:luminance" maskUnits="userSpaceOnUse" x="1164" y="13" width="23" height="22">
<path d="M1168.15 31.8611C1172.46 35.9248 1179.25 35.7251 1183.31 31.415C1187.38 27.1048 1187.18 20.3164 1182.87 16.2526C1178.56 12.1889 1171.77 12.3886 1167.71 16.6987C1163.64 21.0089 1163.84 27.7973 1168.15 31.8611Z" fill="white"/>
</mask>
<g mask="url(#mask0_72_2)">
<path d="M1184.07 15.2001L1183.85 14.9922L1167.69 32.1283L1167.91 32.3362L1184.07 15.2001Z" fill="#493B32"/>
<path d="M1181.8 15.7945C1181.72 15.718 1181.72 15.5901 1181.79 15.5089L1182.37 14.8968C1182.45 14.8156 1182.57 14.8118 1182.66 14.8884C1182.74 14.9649 1182.74 15.0928 1182.66 15.174L1182.09 15.7861C1182.01 15.8673 1181.88 15.871 1181.8 15.7945Z" fill="white"/>
<path d="M1179.49 18.2425C1179.41 18.166 1179.41 18.0381 1179.48 17.9569L1180.06 17.3448C1180.14 17.2636 1180.27 17.2598 1180.35 17.3364C1180.43 17.4129 1180.43 17.5408 1180.36 17.622L1179.78 18.2341C1179.7 18.3153 1179.57 18.319 1179.49 18.2425Z" fill="white"/>
<path d="M1180.65 17.0184C1180.57 16.9418 1180.56 16.8139 1180.64 16.7328L1181.22 16.1206C1181.29 16.0395 1181.42 16.0357 1181.5 16.1122C1181.58 16.1888 1181.59 16.3167 1181.51 16.3978L1180.93 17.01C1180.86 17.0911 1180.73 17.0949 1180.65 17.0184Z" fill="white"/>
<path d="M1178.34 19.4664C1178.26 19.3898 1178.25 19.2619 1178.33 19.1808L1178.91 18.5686C1178.98 18.4875 1179.11 18.4837 1179.19 18.5602C1179.27 18.6368 1179.28 18.7647 1179.2 18.8458L1178.62 19.458C1178.55 19.5391 1178.42 19.5429 1178.34 19.4664Z" fill="white"/>
<path d="M1176.03 21.9144C1175.95 21.8378 1175.95 21.7099 1176.02 21.6288L1176.6 21.0166C1176.68 20.9355 1176.8 20.9317 1176.89 21.0082C1176.97 21.0848 1176.97 21.2127 1176.89 21.2938L1176.32 21.906C1176.24 21.9871 1176.11 21.9909 1176.03 21.9144Z" fill="white"/>
<path d="M1177.19 20.6905C1177.1 20.614 1177.1 20.4861 1177.18 20.4049L1177.75 19.7928C1177.83 19.7116 1177.96 19.7078 1178.04 19.7844C1178.12 19.8609 1178.12 19.9888 1178.05 20.07L1177.47 20.6821C1177.39 20.7633 1177.27 20.767 1177.19 20.6905Z" fill="white"/>
<path d="M1174.88 23.1385C1174.8 23.062 1174.79 22.9341 1174.87 22.8529L1175.45 22.2408C1175.52 22.1596 1175.65 22.1558 1175.73 22.2323C1175.81 22.3089 1175.82 22.4368 1175.74 22.518L1175.16 23.1301C1175.09 23.2113 1174.96 23.215 1174.88 23.1385Z" fill="white"/>
<path d="M1172.57 25.5865C1172.49 25.51 1172.48 25.382 1172.56 25.3009L1173.14 24.6888C1173.21 24.6076 1173.34 24.6038 1173.42 24.6803C1173.5 24.7569 1173.51 24.8848 1173.43 24.966L1172.85 25.5781C1172.78 25.6592 1172.65 25.663 1172.57 25.5865Z" fill="white"/>
<path d="M1173.72 24.3624C1173.64 24.2858 1173.64 24.1579 1173.71 24.0768L1174.29 23.4646C1174.37 23.3835 1174.5 23.3797 1174.58 23.4562C1174.66 23.5328 1174.66 23.6607 1174.59 23.7418L1174.01 24.354C1173.93 24.4351 1173.8 24.4389 1173.72 24.3624Z" fill="white"/>
<path d="M1171.41 26.8106C1171.33 26.7341 1171.33 26.6062 1171.41 26.525L1171.98 25.9129C1172.06 25.8317 1172.19 25.8279 1172.27 25.9045C1172.35 25.981 1172.35 26.1089 1172.28 26.1901L1171.7 26.8022C1171.62 26.8834 1171.5 26.8871 1171.41 26.8106Z" fill="white"/>
<path d="M1169.11 29.2586C1169.03 29.1821 1169.02 29.0542 1169.1 28.973L1169.68 28.3609C1169.75 28.2797 1169.88 28.2759 1169.96 28.3525C1170.04 28.429 1170.05 28.5569 1169.97 28.6381L1169.39 29.2502C1169.32 29.3314 1169.19 29.3351 1169.11 29.2586Z" fill="white"/>
<path d="M1170.26 28.0347C1170.18 27.9582 1170.18 27.8303 1170.25 27.7491L1170.83 27.137C1170.91 27.0558 1171.03 27.0521 1171.12 27.1286C1171.2 27.2051 1171.2 27.333 1171.12 27.4142L1170.55 28.0263C1170.47 28.1075 1170.34 28.1113 1170.26 28.0347Z" fill="white"/>
<path d="M1167.95 30.4825C1167.87 30.406 1167.87 30.278 1167.94 30.1969L1168.52 29.5847C1168.6 29.5036 1168.73 29.4998 1168.81 29.5763C1168.89 29.6529 1168.89 29.7808 1168.82 29.8619L1168.24 30.4741C1168.16 30.5552 1168.03 30.559 1167.95 30.4825Z" fill="white"/>
<path d="M1166.82 31.6876C1166.74 31.611 1166.73 31.4831 1166.81 31.402L1167.39 30.7898C1167.46 30.7087 1167.59 30.7049 1167.67 30.7814C1167.75 30.8579 1167.76 30.9859 1167.68 31.067L1167.1 31.6792C1167.03 31.7603 1166.9 31.7641 1166.82 31.6876Z" fill="white"/>
<path d="M1183.39 17.2908C1183.31 17.2143 1183.3 17.0864 1183.38 17.0052L1183.96 16.3931C1184.03 16.3119 1184.16 16.3082 1184.24 16.3847C1184.32 16.4612 1184.33 16.5891 1184.25 16.6703L1183.67 17.2824C1183.6 17.3636 1183.47 17.3674 1183.39 17.2908Z" fill="white"/>
<path d="M1181.08 19.7388C1181 19.6623 1181 19.5344 1181.07 19.4532L1181.65 18.8411C1181.73 18.7599 1181.85 18.7562 1181.94 18.8327C1182.02 18.9092 1182.02 19.0371 1181.94 19.1183L1181.37 19.7304C1181.29 19.8116 1181.16 19.8154 1181.08 19.7388Z" fill="white"/>
<path d="M1182.23 18.515C1182.15 18.4384 1182.15 18.3105 1182.23 18.2294L1182.8 17.6172C1182.88 17.5361 1183.01 17.5323 1183.09 17.6088C1183.17 17.6853 1183.17 17.8133 1183.1 17.8944L1182.52 18.5066C1182.44 18.5877 1182.32 18.5915 1182.23 18.515Z" fill="white"/>
<path d="M1179.93 20.963C1179.85 20.8864 1179.84 20.7585 1179.92 20.6773L1180.5 20.0652C1180.57 19.9841 1180.7 19.9803 1180.78 20.0568C1180.86 20.1333 1180.87 20.2613 1180.79 20.3424L1180.21 20.9545C1180.14 21.0357 1180.01 21.0395 1179.93 20.963Z" fill="white"/>
<path d="M1177.62 23.4107C1177.54 23.3342 1177.53 23.2063 1177.61 23.1251L1178.19 22.513C1178.26 22.4318 1178.39 22.428 1178.47 22.5046C1178.55 22.5811 1178.56 22.709 1178.48 22.7902L1177.9 23.4023C1177.83 23.4835 1177.7 23.4872 1177.62 23.4107Z" fill="white"/>
<path d="M1178.77 22.1868C1178.69 22.1103 1178.69 21.9824 1178.76 21.9012L1179.34 21.2891C1179.42 21.2079 1179.55 21.2042 1179.63 21.2807C1179.71 21.3572 1179.71 21.4851 1179.64 21.5663L1179.06 22.1784C1178.98 22.2596 1178.85 22.2634 1178.77 22.1868Z" fill="white"/>
<path d="M1176.46 24.6348C1176.38 24.5583 1176.38 24.4304 1176.46 24.3492L1177.03 23.7371C1177.11 23.6559 1177.24 23.6522 1177.32 23.7287C1177.4 23.8052 1177.4 23.9331 1177.33 24.0143L1176.75 24.6264C1176.67 24.7076 1176.55 24.7114 1176.46 24.6348Z" fill="white"/>
<path d="M1174.16 27.0828C1174.08 27.0063 1174.07 26.8784 1174.15 26.7972L1174.73 26.1851C1174.8 26.1039 1174.93 26.1002 1175.01 26.1767C1175.09 26.2532 1175.1 26.3811 1175.02 26.4623L1174.44 27.0744C1174.37 27.1556 1174.24 27.1594 1174.16 27.0828Z" fill="white"/>
<path d="M1175.31 25.8587C1175.23 25.7822 1175.23 25.6543 1175.3 25.5731L1175.88 24.961C1175.96 24.8798 1176.08 24.876 1176.16 24.9526C1176.25 25.0291 1176.25 25.157 1176.17 25.2382L1175.6 25.8503C1175.52 25.9315 1175.39 25.9352 1175.31 25.8587Z" fill="white"/>
<path d="M1173 28.3072C1172.92 28.2307 1172.92 28.1028 1172.99 28.0216L1173.57 27.4095C1173.65 27.3283 1173.78 27.3245 1173.86 27.4011C1173.94 27.4776 1173.94 27.6055 1173.86 27.6867L1173.29 28.2988C1173.21 28.38 1173.08 28.3837 1173 28.3072Z" fill="white"/>
<path d="M1170.69 30.7549C1170.61 30.6784 1170.61 30.5505 1170.69 30.4693L1171.26 29.8572C1171.34 29.776 1171.47 29.7723 1171.55 29.8488C1171.63 29.9253 1171.63 30.0532 1171.56 30.1344L1170.98 30.7465C1170.9 30.8277 1170.78 30.8315 1170.69 30.7549Z" fill="white"/>
<path d="M1171.85 29.5311C1171.77 29.4545 1171.76 29.3266 1171.84 29.2455L1172.42 28.6333C1172.49 28.5522 1172.62 28.5484 1172.7 28.6249C1172.78 28.7015 1172.79 28.8294 1172.71 28.9105L1172.13 29.5227C1172.06 29.6038 1171.93 29.6076 1171.85 29.5311Z" fill="white"/>
<path d="M1169.54 31.9791C1169.46 31.9025 1169.46 31.7746 1169.53 31.6935L1170.11 31.0813C1170.19 31.0002 1170.31 30.9964 1170.39 31.0729C1170.48 31.1495 1170.48 31.2774 1170.4 31.3585L1169.83 31.9707C1169.75 32.0518 1169.62 32.0556 1169.54 31.9791Z" fill="white"/>
</g>
<path d="M1179.68 14.1718L1165.89 28.8C1165.95 28.9279 1166.02 29.0542 1166.08 29.18L1180.07 14.3463C1179.94 14.2855 1179.81 14.2273 1179.68 14.1718Z" fill="white"/>
<path d="M1184.94 18.9341L1170.95 33.7678C1171.08 33.8285 1171.21 33.8868 1171.34 33.9422L1185.13 19.314C1185.07 19.1862 1185 19.0598 1184.94 18.9341Z" fill="white"/>
<path d="M1216.97 31.8611C1221.28 35.9248 1228.07 35.7251 1232.13 31.415C1236.2 27.1048 1236 20.3164 1231.69 16.2526C1227.38 12.1889 1220.59 12.3886 1216.53 16.6987C1212.46 21.0089 1212.66 27.7973 1216.97 31.8611Z" fill="#60060A"/>
<path d="M1234.68 21.255C1234.32 23.201 1233.41 25.0684 1231.95 26.6162C1227.88 30.9264 1221.1 31.1262 1216.79 27.0623C1215.29 25.6509 1214.29 23.9109 1213.79 22.0601C1213.13 25.533 1214.21 29.2567 1216.97 31.8609C1221.28 35.9247 1228.07 35.725 1232.13 31.4148C1234.79 28.6016 1235.62 24.7326 1234.68 21.2547L1234.68 21.255Z" fill="#780F13"/>
<path d="M1216.93 18.3952C1220.7 14.3935 1227 14.2081 1231.01 17.9811C1233.35 20.1864 1234.38 23.2561 1234.08 26.2252C1234.88 22.8734 1233.91 19.2001 1231.23 16.6667C1227.22 12.8938 1220.92 13.0792 1217.15 17.0809C1215.58 18.7436 1214.7 20.8037 1214.49 22.9141C1214.88 21.2736 1215.69 19.7098 1216.93 18.395L1216.93 18.3952Z" fill="#C03141"/>
<mask id="mask1_72_2" style="mask-type:luminance" maskUnits="userSpaceOnUse" x="1213" y="13" width="23" height="22">
<path d="M1216.97 31.8611C1221.28 35.9248 1228.07 35.7251 1232.13 31.415C1236.2 27.1048 1236 20.3164 1231.69 16.2526C1227.38 12.1889 1220.59 12.3886 1216.53 16.6987C1212.46 21.0089 1212.66 27.7973 1216.97 31.8611Z" fill="white"/>
</mask>
<g mask="url(#mask1_72_2)">
<path d="M1232.89 15.2001L1232.67 14.9922L1216.51 32.1283L1216.73 32.3362L1232.89 15.2001Z" fill="#493B32"/>
<path d="M1230.62 15.7943C1230.54 15.7177 1230.54 15.5898 1230.61 15.5086L1231.19 14.8965C1231.27 14.8154 1231.39 14.8116 1231.48 14.8881C1231.56 14.9646 1231.56 15.0926 1231.48 15.1737L1230.91 15.7858C1230.83 15.867 1230.7 15.8708 1230.62 15.7943Z" fill="white"/>
<path d="M1228.31 18.2422C1228.23 18.1657 1228.23 18.0378 1228.3 17.9566L1228.88 17.3445C1228.96 17.2633 1229.09 17.2596 1229.17 17.3361C1229.25 17.4126 1229.25 17.5405 1229.18 17.6217L1228.6 18.2338C1228.52 18.315 1228.39 18.3188 1228.31 18.2422Z" fill="white"/>
<path d="M1229.47 17.0184C1229.39 16.9418 1229.38 16.8139 1229.46 16.7328L1230.04 16.1206C1230.11 16.0395 1230.24 16.0357 1230.32 16.1122C1230.4 16.1888 1230.41 16.3167 1230.33 16.3978L1229.75 17.01C1229.68 17.0911 1229.55 17.0949 1229.47 17.0184Z" fill="white"/>
<path d="M1227.16 19.4664C1227.08 19.3898 1227.07 19.2619 1227.15 19.1808L1227.73 18.5686C1227.8 18.4875 1227.93 18.4837 1228.01 18.5602C1228.09 18.6368 1228.1 18.7647 1228.02 18.8458L1227.44 19.458C1227.37 19.5391 1227.24 19.5429 1227.16 19.4664Z" fill="white"/>
<path d="M1224.85 21.9141C1224.77 21.8376 1224.77 21.7097 1224.84 21.6285L1225.42 21.0164C1225.5 20.9352 1225.62 20.9315 1225.71 21.008C1225.79 21.0845 1225.79 21.2124 1225.71 21.2936L1225.14 21.9057C1225.06 21.9869 1224.93 21.9906 1224.85 21.9141Z" fill="white"/>
<path d="M1226 20.6902C1225.92 20.6137 1225.92 20.4858 1226 20.4046L1226.57 19.7925C1226.65 19.7113 1226.78 19.7076 1226.86 19.7841C1226.94 19.8606 1226.94 19.9885 1226.87 20.0697L1226.29 20.6818C1226.21 20.763 1226.09 20.7668 1226 20.6902Z" fill="white"/>
<path d="M1223.7 23.1382C1223.62 23.0617 1223.61 22.9338 1223.69 22.8526L1224.27 22.2405C1224.34 22.1593 1224.47 22.1556 1224.55 22.2321C1224.63 22.3086 1224.64 22.4365 1224.56 22.5177L1223.98 23.1298C1223.91 23.211 1223.78 23.2148 1223.7 23.1382Z" fill="white"/>
<path d="M1221.39 25.5862C1221.31 25.5097 1221.3 25.3818 1221.38 25.3006L1221.96 24.6885C1222.03 24.6073 1222.16 24.6036 1222.24 24.6801C1222.32 24.7566 1222.33 24.8845 1222.25 24.9657L1221.67 25.5778C1221.6 25.659 1221.47 25.6628 1221.39 25.5862Z" fill="white"/>
<path d="M1222.54 24.3624C1222.46 24.2858 1222.46 24.1579 1222.53 24.0768L1223.11 23.4646C1223.19 23.3835 1223.32 23.3797 1223.4 23.4562C1223.48 23.5328 1223.48 23.6607 1223.41 23.7418L1222.83 24.354C1222.75 24.4351 1222.62 24.4389 1222.54 24.3624Z" fill="white"/>
<path d="M1220.23 26.8106C1220.15 26.7341 1220.15 26.6062 1220.23 26.525L1220.8 25.9129C1220.88 25.8317 1221.01 25.8279 1221.09 25.9045C1221.17 25.981 1221.17 26.1089 1221.1 26.1901L1220.52 26.8022C1220.44 26.8834 1220.32 26.8871 1220.23 26.8106Z" fill="white"/>
<path d="M1217.93 29.2586C1217.85 29.1821 1217.84 29.0542 1217.92 28.973L1218.5 28.3609C1218.57 28.2797 1218.7 28.2759 1218.78 28.3525C1218.86 28.429 1218.87 28.5569 1218.79 28.6381L1218.21 29.2502C1218.14 29.3314 1218.01 29.3351 1217.93 29.2586Z" fill="white"/>
<path d="M1219.08 28.0345C1219 27.958 1219 27.83 1219.07 27.7489L1219.65 27.1367C1219.73 27.0556 1219.85 27.0518 1219.93 27.1283C1220.02 27.2049 1220.02 27.3328 1219.94 27.4139L1219.37 28.0261C1219.29 28.1072 1219.16 28.111 1219.08 28.0345Z" fill="white"/>
<path d="M1216.77 30.4825C1216.69 30.406 1216.69 30.278 1216.76 30.1969L1217.34 29.5847C1217.42 29.5036 1217.55 29.4998 1217.63 29.5763C1217.71 29.6529 1217.71 29.7808 1217.64 29.8619L1217.06 30.4741C1216.98 30.5552 1216.85 30.559 1216.77 30.4825Z" fill="white"/>
<path d="M1215.64 31.6876C1215.56 31.611 1215.55 31.4831 1215.63 31.402L1216.2 30.7898C1216.28 30.7087 1216.41 30.7049 1216.49 30.7814C1216.57 30.8579 1216.58 30.9859 1216.5 31.067L1215.92 31.6792C1215.85 31.7603 1215.72 31.7641 1215.64 31.6876Z" fill="white"/>
<path d="M1232.21 17.2908C1232.13 17.2143 1232.12 17.0864 1232.2 17.0052L1232.78 16.3931C1232.85 16.3119 1232.98 16.3082 1233.06 16.3847C1233.14 16.4612 1233.15 16.5891 1233.07 16.6703L1232.49 17.2824C1232.42 17.3636 1232.29 17.3674 1232.21 17.2908Z" fill="white"/>
<path d="M1229.9 19.7388C1229.82 19.6623 1229.82 19.5344 1229.89 19.4532L1230.47 18.8411C1230.55 18.7599 1230.67 18.7562 1230.75 18.8327C1230.84 18.9092 1230.84 19.0371 1230.76 19.1183L1230.19 19.7304C1230.11 19.8116 1229.98 19.8154 1229.9 19.7388Z" fill="white"/>
<path d="M1231.05 18.515C1230.97 18.4384 1230.97 18.3105 1231.05 18.2294L1231.62 17.6172C1231.7 17.5361 1231.83 17.5323 1231.91 17.6088C1231.99 17.6853 1231.99 17.8133 1231.92 17.8944L1231.34 18.5066C1231.26 18.5877 1231.14 18.5915 1231.05 18.515Z" fill="white"/>
<path d="M1228.75 20.9627C1228.66 20.8862 1228.66 20.7583 1228.74 20.6771L1229.31 20.065C1229.39 19.9838 1229.52 19.98 1229.6 20.0566C1229.68 20.1331 1229.69 20.261 1229.61 20.3422L1229.03 20.9543C1228.96 21.0355 1228.83 21.0392 1228.75 20.9627Z" fill="white"/>
<path d="M1226.44 23.4107C1226.36 23.3342 1226.35 23.2063 1226.43 23.1251L1227.01 22.513C1227.08 22.4318 1227.21 22.428 1227.29 22.5046C1227.37 22.5811 1227.38 22.709 1227.3 22.7902L1226.72 23.4023C1226.65 23.4835 1226.52 23.4872 1226.44 23.4107Z" fill="white"/>
<path d="M1227.59 22.1868C1227.51 22.1103 1227.51 21.9824 1227.58 21.9012L1228.16 21.2891C1228.24 21.2079 1228.37 21.2042 1228.45 21.2807C1228.53 21.3572 1228.53 21.4851 1228.45 21.5663L1227.88 22.1784C1227.8 22.2596 1227.67 22.2634 1227.59 22.1868Z" fill="white"/>
<path d="M1225.28 24.6346C1225.2 24.5581 1225.2 24.4301 1225.28 24.349L1225.85 23.7368C1225.93 23.6557 1226.06 23.6519 1226.14 23.7284C1226.22 23.805 1226.22 23.9329 1226.15 24.014L1225.57 24.6262C1225.49 24.7073 1225.37 24.7111 1225.28 24.6346Z" fill="white"/>
<path d="M1222.98 27.0828C1222.89 27.0063 1222.89 26.8784 1222.97 26.7972L1223.54 26.1851C1223.62 26.1039 1223.75 26.1002 1223.83 26.1767C1223.91 26.2532 1223.92 26.3811 1223.84 26.4623L1223.26 27.0744C1223.19 27.1556 1223.06 27.1594 1222.98 27.0828Z" fill="white"/>
<path d="M1224.13 25.8587C1224.05 25.7822 1224.05 25.6543 1224.12 25.5731L1224.7 24.961C1224.78 24.8798 1224.9 24.876 1224.98 24.9526C1225.07 25.0291 1225.07 25.157 1224.99 25.2382L1224.42 25.8503C1224.34 25.9315 1224.21 25.9352 1224.13 25.8587Z" fill="white"/>
<path d="M1221.82 28.3069C1221.74 28.2304 1221.74 28.1025 1221.81 28.0213L1222.39 27.4092C1222.47 27.328 1222.59 27.3243 1222.68 27.4008C1222.76 27.4773 1222.76 27.6052 1222.68 27.6864L1222.11 28.2985C1222.03 28.3797 1221.9 28.3835 1221.82 28.3069Z" fill="white"/>
<path d="M1219.51 30.7549C1219.43 30.6784 1219.43 30.5505 1219.51 30.4693L1220.08 29.8572C1220.16 29.776 1220.29 29.7723 1220.37 29.8488C1220.45 29.9253 1220.45 30.0532 1220.38 30.1344L1219.8 30.7465C1219.72 30.8277 1219.59 30.8315 1219.51 30.7549Z" fill="white"/>
<path d="M1220.67 29.5311C1220.59 29.4545 1220.58 29.3266 1220.66 29.2455L1221.24 28.6333C1221.31 28.5522 1221.44 28.5484 1221.52 28.6249C1221.6 28.7015 1221.61 28.8294 1221.53 28.9105L1220.95 29.5227C1220.88 29.6038 1220.75 29.6076 1220.67 29.5311Z" fill="white"/>
<path d="M1218.36 31.9788C1218.28 31.9023 1218.27 31.7744 1218.35 31.6932L1218.93 31.0811C1219 30.9999 1219.13 30.9962 1219.21 31.0727C1219.3 31.1492 1219.3 31.2771 1219.22 31.3583L1218.65 31.9704C1218.57 32.0516 1218.44 32.0553 1218.36 31.9788Z" fill="white"/>
</g>
<path d="M1228.5 14.1718L1214.71 28.8C1214.77 28.9279 1214.83 29.0542 1214.9 29.18L1228.89 14.3463C1228.76 14.2855 1228.63 14.2273 1228.5 14.1718Z" fill="white"/>
<path d="M1233.76 18.9341L1219.77 33.7678C1219.9 33.8285 1220.03 33.8868 1220.16 33.9422L1233.95 19.314C1233.89 19.1862 1233.82 19.0598 1233.76 18.9341Z" fill="white"/>
<path d="M4.36 125.61C4.36 104.973 6.758 88.768 11.554 76.996C16.35 65.0787 23.544 56.6493 33.136 51.708C42.8733 46.7667 54.936 44.296 69.324 44.296C73.9747 44.296 79.2793 44.5867 85.238 45.168C91.342 45.604 97.228 46.476 102.896 47.784V105.336H76.518L73.03 78.958C69.106 78.958 65.6907 79.4667 62.784 80.484C60.0227 81.356 57.6973 83.318 55.808 86.37C53.9187 89.422 52.4653 94.0727 51.448 100.322C50.576 106.571 50.14 114.928 50.14 125.392C50.14 136.728 51.3753 145.666 53.846 152.206C56.3167 158.601 60.0227 163.179 64.964 165.94C70.0507 168.556 76.518 169.864 84.366 169.864C87.854 169.864 91.1967 169.646 94.394 169.21C97.5913 168.774 101.007 168.265 104.64 167.684V202.128C100.425 203.145 95.3387 203.872 89.38 204.308C83.4213 204.889 78.1167 205.18 73.466 205.18C48.614 205.18 30.8833 198.495 20.274 185.124C9.66467 171.753 4.36 151.915 4.36 125.61ZM170.912 46.04C183.701 46.04 194.383 47.7113 202.958 51.054C211.533 54.2513 217.927 59.7013 222.142 67.404C226.502 74.9613 228.682 85.3527 228.682 98.578C228.682 109.623 227.011 118.707 223.668 125.828C220.325 132.804 215.239 138.399 208.408 142.614L235.004 203H187.698L170.476 151.988H163.5V203H120.99V75.906L109 46.04H170.912ZM163.5 122.776C170.185 122.776 175.127 121.105 178.324 117.762C181.521 114.419 183.12 108.533 183.12 100.104C183.12 93.4187 182.539 88.4773 181.376 85.28C180.213 81.9373 178.179 79.6847 175.272 78.522C172.511 77.3593 168.587 76.778 163.5 76.778V122.776ZM245.906 46.04H288.416V203H245.906V46.04ZM302.62 125.61C302.62 104.973 305.018 88.768 309.814 76.996C314.61 65.0787 321.804 56.6493 331.396 51.708C341.133 46.7667 353.196 44.296 367.584 44.296C372.234 44.296 377.539 44.5867 383.498 45.168C389.602 45.604 395.488 46.476 401.156 47.784V105.336H374.778L371.29 78.958C367.366 78.958 363.95 79.4667 361.044 80.484C358.282 81.356 355.957 83.318 354.068 86.37C352.178 89.422 350.725 94.0727 349.708 100.322C348.836 106.571 348.4 114.928 348.4 125.392C348.4 136.728 349.635 145.666 352.106 152.206C354.576 158.601 358.282 163.179 363.224 165.94C368.31 168.556 374.778 169.864 382.626 169.864C386.114 169.864 389.456 169.646 392.654 169.21C395.851 168.774 399.266 168.265 402.9 167.684V202.128C398.685 203.145 393.598 203.872 387.64 204.308C381.681 204.889 376.376 205.18 371.726 205.18C346.874 205.18 329.143 198.495 318.534 185.124C307.924 171.753 302.62 151.915 302.62 125.61Z" fill="url(#paint1_linear_72_2)"/>
<path d="M419.25 203V75.906L407.26 46.04H472.66C490.245 46.04 503.034 49.6007 511.028 56.722C519.021 63.698 523.018 73.1447 523.018 85.062C523.018 92.7647 521.564 99.7407 518.658 105.99C515.751 112.239 510.228 117.471 502.09 121.686V122.122C511.972 125.319 518.948 130.043 523.018 136.292C527.232 142.541 529.34 150.753 529.34 160.926C529.34 174.442 524.398 184.833 514.516 192.1C504.633 199.367 489.591 203 469.39 203H419.25ZM461.76 110.568H463.722C470.262 110.568 474.985 109.333 477.892 106.862C480.944 104.246 482.47 99.7407 482.47 93.346C482.47 86.806 480.944 82.3007 477.892 79.83C474.985 77.214 470.262 75.906 463.722 75.906H461.76V110.568ZM461.76 174.224H463.94C471.206 174.224 476.511 172.916 479.854 170.3C483.342 167.539 485.086 162.743 485.086 155.912C485.086 148.936 483.342 144.14 479.854 141.524C476.511 138.763 471.206 137.382 463.94 137.382H461.76V174.224ZM582.169 181.854L578.027 203H532.465L563.857 65.66L558.843 44.296H624.679L658.905 203H613.779L609.637 181.854H582.169ZM586.529 148.064H605.059L595.903 90.948L586.529 148.064ZM665.411 46.04H765.909V72.418L715.769 168.12H766.999V203H663.231V176.622L713.153 80.92H665.411V46.04ZM821.032 181.854L816.89 203H771.328L802.72 65.66L797.706 44.296H863.542L897.768 203H852.642L848.5 181.854H821.032ZM825.392 148.064H843.922L834.766 90.948L825.392 148.064ZM949.618 181.854L945.476 203H899.914L931.306 65.66L926.292 44.296H992.128L1026.35 203H981.228L977.086 181.854H949.618ZM953.978 148.064H972.508L963.352 90.948L953.978 148.064ZM1087.19 46.04C1099.98 46.04 1110.66 47.7113 1119.24 51.054C1127.81 54.2513 1134.21 59.7013 1138.42 67.404C1142.78 74.9613 1144.96 85.3527 1144.96 98.578C1144.96 109.623 1143.29 118.707 1139.95 125.828C1136.61 132.804 1131.52 138.399 1124.69 142.614L1151.29 203H1103.98L1086.76 151.988H1079.78V203H1037.27V75.906L1025.28 46.04H1087.19ZM1079.78 122.776C1086.47 122.776 1091.41 121.105 1094.61 117.762C1097.8 114.419 1099.4 108.533 1099.4 100.104C1099.4 93.4187 1098.82 88.4773 1097.66 85.28C1096.49 81.9373 1094.46 79.6847 1091.55 78.522C1088.79 77.3593 1084.87 76.778 1079.78 76.778V122.776Z" fill="url(#paint2_linear_72_2)"/>
<defs>
<linearGradient id="paint0_linear_72_2" x1="1252" y1="69.2227" x2="1202.13" y2="90.8694" gradientUnits="userSpaceOnUse">
<stop stop-color="#FFCC00"/>
<stop offset="1" stop-color="#CC8500"/>
</linearGradient>
<linearGradient id="paint1_linear_72_2" x1="804.693" y1="365.644" x2="67.371" y2="-47.8377" gradientUnits="userSpaceOnUse">
<stop stop-color="#208C30"/>
<stop offset="1" stop-color="#55FFC4"/>
</linearGradient>
<linearGradient id="paint2_linear_72_2" x1="1153" y1="314.5" x2="367.467" y2="-98.7563" gradientUnits="userSpaceOnUse">
<stop stop-color="#780F13"/>
<stop offset="1" stop-color="#FF5A5D"/>
</linearGradient>
</defs>
</svg>
