<svg width="35" height="35" viewBox="0 0 35 35" fill="none" xmlns="http://www.w3.org/2000/svg">
<path d="M34.9802 16.6626C34.9781 16.6188 34.9761 16.5744 34.9733 16.5307C34.9727 16.5047 34.9706 16.4787 34.9692 16.4521C34.959 16.2777 34.946 16.1034 34.931 15.9291C34.9132 15.7295 34.892 15.5306 34.8681 15.3323C34.8592 15.2612 34.8503 15.1895 34.84 15.1184C34.8305 15.0473 34.8209 14.9762 34.81 14.9058C34.7881 14.7574 34.7648 14.6091 34.7389 14.4621C34.7279 14.3979 34.7163 14.3336 34.704 14.27C34.691 14.1996 34.678 14.1292 34.6637 14.0595C34.65 13.9891 34.6356 13.9193 34.6206 13.8496C34.5933 13.719 34.5645 13.5892 34.5338 13.46C34.516 13.3861 34.4982 13.3123 34.4805 13.2385C34.3574 12.7449 34.2132 12.2582 34.0478 11.779C34.0245 11.7106 34.0006 11.643 33.976 11.5753C33.9069 11.3812 33.8338 11.1877 33.7565 10.9963C33.7306 10.9307 33.7039 10.865 33.6766 10.7994C33.6533 10.7427 33.6294 10.6866 33.6055 10.6299C33.5788 10.567 33.5515 10.5041 33.5234 10.4419C33.4988 10.3858 33.4742 10.3305 33.4489 10.2751C33.4291 10.2307 33.4086 10.1869 33.3881 10.1425C33.3813 10.1261 33.373 10.1104 33.3655 10.0939C33.3437 10.0475 33.3218 10.0003 33.2992 9.95381C33.2486 9.84648 33.196 9.74053 33.1427 9.63525C33.1119 9.57305 33.0798 9.51152 33.0477 9.44932C32.9745 9.30781 32.8986 9.16699 32.8207 9.02754C32.8009 8.99062 32.7811 8.9544 32.7599 8.91816C32.7435 8.88809 32.7264 8.85869 32.7093 8.8293H32.7086C32.6847 8.78691 32.6614 8.74453 32.6368 8.70283C32.5992 8.63926 32.5623 8.57637 32.5247 8.51416C32.3928 8.29404 32.2554 8.07666 32.1132 7.86201C32.04 7.75195 31.9669 7.64326 31.891 7.53457C31.8411 7.46211 31.7905 7.39102 31.7393 7.31992C31.6969 7.26045 31.6538 7.20098 31.6101 7.14219C31.5916 7.11621 31.5725 7.09092 31.5533 7.06563C31.4829 6.97061 31.4111 6.87695 31.3387 6.78398C31.2505 6.67051 31.1603 6.55771 31.0687 6.44561C31.0454 6.41758 31.0222 6.38887 30.9982 6.36016C30.7863 6.10381 30.5669 5.85361 30.3393 5.6082C30.3071 5.57402 30.275 5.53916 30.2422 5.5043L30.236 5.49814C30.1902 5.44961 30.1444 5.40107 30.0973 5.35322C30.0241 5.27666 29.9496 5.20078 29.8744 5.12559C29.8204 5.07158 29.7664 5.01826 29.7117 4.96562C29.6796 4.9335 29.6468 4.90205 29.614 4.87061C29.5647 4.82275 29.5148 4.77559 29.4643 4.72842C29.4041 4.67168 29.3433 4.61562 29.2824 4.56025C29.2154 4.49873 29.1478 4.43857 29.0801 4.37842C29.0076 4.31416 28.9352 4.25059 28.8613 4.18838C28.8142 4.14668 28.7656 4.10635 28.7171 4.06602C28.6604 4.01816 28.6029 3.971 28.5455 3.92383C28.4881 3.87666 28.4307 3.83018 28.3726 3.78437C28.3254 3.74678 28.2775 3.70918 28.2297 3.67158C28.1791 3.63262 28.1285 3.59297 28.0772 3.55469C28.0444 3.52939 28.0116 3.50479 27.9788 3.48018C27.9392 3.4501 27.8995 3.42002 27.8592 3.39062C27.8394 3.37627 27.8195 3.36191 27.7997 3.34687C27.7601 3.31885 27.7211 3.29014 27.6808 3.26143C27.6158 3.21426 27.5509 3.16846 27.4846 3.12266C27.3643 3.03789 27.2426 2.95586 27.1195 2.87451C27.0491 2.82803 26.9787 2.78223 26.9076 2.73711C26.8434 2.69609 26.7791 2.65508 26.7148 2.61543C26.6984 2.60449 26.6807 2.59355 26.6636 2.5833C26.6109 2.55049 26.5576 2.51904 26.505 2.48691C26.4838 2.47393 26.4626 2.46162 26.4414 2.44863C26.3765 2.40967 26.3115 2.37139 26.2459 2.33379C26.1734 2.29141 26.101 2.25039 26.0271 2.20937C25.9937 2.19023 25.9602 2.17178 25.926 2.15332C25.7346 2.04736 25.5411 1.94551 25.3449 1.84775C25.2984 1.82383 25.252 1.80059 25.2048 1.77803C25.1583 1.75479 25.1118 1.73223 25.0646 1.70967C25.0175 1.68711 24.971 1.66455 24.9238 1.64268C24.8767 1.62012 24.8295 1.59824 24.7823 1.57705C24.5253 1.45947 24.2655 1.34805 24.0037 1.24346C23.9381 1.2168 23.8718 1.19082 23.8055 1.16553C23.7392 1.14023 23.6729 1.11494 23.6065 1.09033C23.556 1.07119 23.5054 1.05273 23.4541 1.03428C23.3639 1.00146 23.2736 0.97002 23.1827 0.939258C23.1232 0.91875 23.0638 0.898926 23.0043 0.879102C22.6208 0.751953 22.2325 0.63916 21.8401 0.539355C21.7882 0.526367 21.7355 0.513379 21.6829 0.500391C21.6234 0.486035 21.5646 0.47168 21.5045 0.458008C21.4546 0.445703 21.4047 0.434766 21.3541 0.423145C21.2864 0.408105 21.2188 0.39375 21.1504 0.379395C21.1032 0.369141 21.0561 0.35957 21.0082 0.35C20.972 0.34248 20.9364 0.335645 20.9002 0.328809C20.5311 0.255664 20.1592 0.195508 19.7839 0.146973C19.7333 0.140137 19.682 0.133984 19.6308 0.127832C19.4681 0.108008 19.3054 0.090918 19.142 0.0758789C19.1406 0.0751953 19.1399 0.0751953 19.1393 0.0758789C19.0825 0.0697266 19.0251 0.0649414 18.9677 0.0608398C18.8207 0.0478516 18.673 0.0375977 18.5254 0.0300781C18.4905 0.0273438 18.455 0.025293 18.4201 0.0239258C18.3853 0.021875 18.3504 0.0205078 18.3148 0.0191406C18.3019 0.018457 18.2895 0.0177734 18.2766 0.0177734C18.1959 0.0136719 18.1152 0.0109375 18.0346 0.00820312C18.0236 0.00751953 18.012 0.00751953 18.0004 0.00751953C17.9184 0.00478516 17.8363 0.00273437 17.7536 0.00205078C17.6695 0.000683594 17.5848 0 17.5 0C17.1568 0 16.815 0.00957031 16.4746 0.0300781C14.0424 0.168848 11.7038 0.80459 9.57646 1.8874C9.51631 1.91816 9.45684 1.94893 9.39736 1.98037C9.21826 2.07334 9.03984 2.17041 8.86416 2.2709C8.50459 2.47529 8.15186 2.69268 7.80664 2.92305C7.63848 3.03584 7.47236 3.15137 7.30762 3.26963C6.53857 3.82266 5.8085 4.44268 5.12559 5.12559C4.41465 5.83652 3.77207 6.59873 3.20195 7.40264C3.07686 7.57832 2.95586 7.75605 2.8376 7.93584C2.46162 8.51006 2.12119 9.10342 1.81768 9.71455C0.767676 11.8241 0.154492 14.1374 0.0259766 16.5409C0.00888672 16.8595 0 17.1787 0 17.5C0 17.8657 0.0109375 18.2294 0.0334961 18.5917C0.0444336 18.7776 0.0587891 18.9629 0.0765625 19.1481C0.259082 21.121 0.77041 23.0241 1.58252 24.7946C1.67686 24.9997 1.77461 25.2027 1.87715 25.4037C2.18545 26.0121 2.53066 26.6034 2.91074 27.1749C3.55059 28.1354 4.29092 29.0397 5.12559 29.8744C5.98691 30.7357 6.92275 31.4966 7.91738 32.1494C8.49092 32.5268 9.08428 32.8686 9.69541 33.1728C9.86768 33.2589 10.0413 33.3423 10.2163 33.4223C11.995 34.2371 13.9084 34.7478 15.8908 34.9269C16.0993 34.9467 16.3085 34.9617 16.5184 34.9727C16.8438 34.9911 17.1712 35 17.5 35C17.6087 35 17.7167 34.9993 17.8247 34.9966C17.8814 34.9959 17.9382 34.9945 17.9942 34.9925C17.9997 34.9932 18.0052 34.9932 18.0106 34.9925C18.0318 34.9918 18.053 34.9918 18.0742 34.9904C18.0776 34.9904 18.0817 34.9904 18.0852 34.9897C18.1576 34.9877 18.2301 34.985 18.3025 34.9815C18.3812 34.9781 18.4598 34.974 18.5377 34.9692C18.5479 34.9692 18.5582 34.9686 18.5691 34.9679C18.6484 34.9631 18.7277 34.9583 18.8063 34.9521C18.9506 34.9412 19.0948 34.9289 19.2384 34.9152C19.3136 34.9077 19.3895 34.9002 19.4646 34.8913C19.5392 34.8831 19.6137 34.8742 19.6875 34.8653C19.7524 34.8578 19.8167 34.8489 19.8816 34.84C19.9261 34.8346 19.9698 34.8284 20.0143 34.8216C20.045 34.8175 20.0758 34.8127 20.1065 34.8079C20.1735 34.7983 20.2405 34.7881 20.3068 34.7771C20.3574 34.7696 20.4073 34.7614 20.4572 34.7525C20.4948 34.7464 20.5331 34.7396 20.5707 34.7327C20.5775 34.732 20.5844 34.7307 20.5912 34.7293C20.6302 34.7225 20.6691 34.7156 20.7074 34.7081C20.7218 34.7061 20.7361 34.7033 20.7505 34.6999C20.7888 34.6931 20.8264 34.6862 20.864 34.678C20.8722 34.6773 20.8804 34.676 20.8886 34.6732C20.9187 34.6678 20.9487 34.6623 20.9781 34.6562C21.0362 34.6445 21.093 34.6329 21.1504 34.6206C21.3315 34.583 21.5113 34.542 21.6904 34.4976C21.752 34.4832 21.8128 34.4675 21.8736 34.4518C21.9099 34.4429 21.9461 34.4333 21.9823 34.4237C22.0302 34.4114 22.0773 34.3984 22.1252 34.3854C22.1266 34.3854 22.1272 34.3848 22.1286 34.3848C22.186 34.369 22.2441 34.3533 22.3016 34.3362C22.3521 34.3219 22.4034 34.3075 22.454 34.2925C22.5511 34.2638 22.6488 34.2344 22.7452 34.2043C22.8095 34.1845 22.873 34.164 22.9366 34.1428C23.0063 34.1202 23.0761 34.097 23.1458 34.073C23.1807 34.0614 23.2155 34.0498 23.2504 34.0375C23.2853 34.0259 23.3201 34.0136 23.355 34.0006C23.424 33.976 23.4937 33.9514 23.5628 33.9254C23.6318 33.9001 23.7002 33.8748 23.7692 33.8481C23.8376 33.8215 23.9066 33.7948 23.975 33.7675C24.0434 33.7401 24.1117 33.7128 24.1794 33.6848C24.2478 33.6567 24.3154 33.628 24.3831 33.5993C24.3872 33.5979 24.392 33.5959 24.3968 33.5938C24.4788 33.5583 24.5608 33.5228 24.6429 33.4858C24.6456 33.4852 24.6483 33.4838 24.6511 33.4824C24.7324 33.4455 24.8131 33.4086 24.8938 33.371C25.0585 33.2938 25.2219 33.2145 25.3839 33.1324C25.4598 33.0941 25.5356 33.0552 25.6115 33.0155C25.6703 32.9848 25.7291 32.9533 25.7872 32.9219C25.9595 32.8303 26.129 32.7346 26.2972 32.6368C26.3669 32.5958 26.4359 32.5548 26.505 32.5131C26.6629 32.4188 26.8187 32.321 26.9732 32.2212C27.0348 32.1815 27.0956 32.1412 27.1564 32.1009C27.3178 31.9942 27.4777 31.8842 27.6356 31.7707C27.7348 31.7003 27.8325 31.6285 27.9303 31.5561C28.028 31.4836 28.1244 31.4104 28.2201 31.3353L28.335 31.245C28.3924 31.1999 28.4498 31.1541 28.5065 31.1076C28.5544 31.0693 28.6016 31.0304 28.648 30.9914C28.7034 30.9456 28.7581 30.8998 28.8128 30.8533C29.1778 30.5437 29.5319 30.2169 29.8744 29.8744C29.9544 29.7944 30.0337 29.7138 30.1116 29.6324C30.1588 29.5839 30.2053 29.5347 30.2511 29.4854C30.3413 29.3904 30.4288 29.2947 30.5163 29.1983C30.599 29.1061 30.6811 29.0138 30.7617 28.9201C30.7699 28.9105 30.7781 28.901 30.7863 28.8914C30.8349 28.8354 30.8827 28.7786 30.9299 28.7219C31.0023 28.6357 31.0741 28.5489 31.1445 28.4614C31.1739 28.4245 31.2033 28.3876 31.2327 28.3507C31.2744 28.298 31.3154 28.2461 31.3564 28.1928C31.3975 28.1401 31.4385 28.0868 31.4788 28.0328C31.5465 27.9439 31.6128 27.8544 31.6777 27.7648C31.7112 27.7184 31.7447 27.6726 31.7775 27.6261C31.7803 27.6233 31.7823 27.6199 31.7851 27.6158C31.8568 27.5153 31.9279 27.4128 31.9977 27.3103C32.0435 27.2439 32.0879 27.177 32.1316 27.11C32.1337 27.1072 32.1357 27.1045 32.1378 27.1011C32.1398 27.0977 32.1426 27.0942 32.1439 27.0908C32.172 27.0491 32.1993 27.0081 32.226 26.9657C32.2355 26.9507 32.2458 26.9356 32.2554 26.9199C32.3094 26.8352 32.3634 26.7497 32.4167 26.6636C32.4611 26.5911 32.5049 26.5187 32.5486 26.4455C32.5657 26.4168 32.5828 26.3874 32.5999 26.358C32.6259 26.3143 32.6519 26.2705 32.6771 26.2268C32.8063 26.0039 32.9294 25.7783 33.0477 25.5507C33.0866 25.4755 33.1249 25.4003 33.1625 25.3244C33.2213 25.2075 33.2787 25.0906 33.3341 24.9724C33.3792 24.876 33.4243 24.7796 33.4681 24.6825C33.492 24.6299 33.5145 24.5779 33.5378 24.5253C33.5658 24.4624 33.5925 24.3988 33.6191 24.3359C33.7395 24.055 33.8509 23.7699 33.9548 23.4828C33.9732 23.4336 33.991 23.3837 34.0081 23.3338C34.0751 23.1458 34.138 22.9558 34.1975 22.765C34.218 22.7015 34.2371 22.6379 34.2562 22.5743C34.2747 22.5142 34.2925 22.454 34.3103 22.3938C34.3342 22.3118 34.3574 22.2291 34.38 22.1464C34.3834 22.1341 34.3868 22.1218 34.3896 22.1095C34.408 22.0425 34.4258 21.9755 34.4429 21.9078C34.4477 21.8907 34.4524 21.8736 34.4559 21.8565C34.4702 21.8019 34.4846 21.7465 34.4976 21.6911C34.5064 21.6549 34.5153 21.618 34.5242 21.5817C34.6021 21.2536 34.6712 20.9221 34.7293 20.5885C34.7382 20.5379 34.7478 20.4866 34.756 20.4354C34.7635 20.3923 34.7703 20.3499 34.7771 20.3068C34.7888 20.2364 34.7997 20.1653 34.81 20.0942C34.8209 20.0238 34.8305 19.9527 34.84 19.8816C34.8544 19.7777 34.8674 19.6745 34.879 19.5706C34.8858 19.5139 34.892 19.4564 34.8981 19.399C34.9063 19.3252 34.9139 19.2507 34.9207 19.1762C34.9248 19.1386 34.9282 19.101 34.931 19.0641C34.9344 19.0271 34.9371 18.9895 34.9405 18.952C34.946 18.8856 34.9508 18.8193 34.9556 18.753C34.9583 18.7243 34.9604 18.6949 34.9617 18.6662C34.9651 18.6115 34.9686 18.5575 34.9713 18.5028C34.9761 18.4194 34.9802 18.336 34.9836 18.2526C34.9911 18.0858 34.9959 17.919 34.9979 17.7516C34.9993 17.6675 35 17.5841 35 17.5V17.4815C35 17.2074 34.9932 16.9347 34.9802 16.6626Z" fill="#F1F1F1"/>
<path d="M35 17.5C35 17.5841 34.9993 17.6675 34.9979 17.7516C34.9959 17.919 34.9911 18.0858 34.9836 18.2526C34.9802 18.336 34.9761 18.4194 34.9713 18.5028C34.9686 18.5575 34.9651 18.6115 34.9617 18.6662C34.9604 18.6949 34.9583 18.7243 34.9556 18.753C34.9508 18.8193 34.946 18.8856 34.9405 18.952C34.9371 18.9895 34.9344 19.0271 34.931 19.0641C34.9282 19.101 34.9248 19.1386 34.9207 19.1762C34.9139 19.2507 34.9063 19.3252 34.8981 19.399C34.892 19.4564 34.8858 19.5139 34.879 19.5706C34.8674 19.6745 34.8544 19.7777 34.84 19.8816C34.8305 19.9527 34.8209 20.0238 34.81 20.0942C34.7997 20.1653 34.7888 20.2364 34.7771 20.3068C34.7703 20.3499 34.7635 20.3923 34.756 20.4354C34.7478 20.4866 34.7382 20.5379 34.7293 20.5885C34.6712 20.9221 34.6021 21.2536 34.5242 21.5817C34.5153 21.618 34.5064 21.6549 34.4976 21.6911C34.4846 21.7465 34.4702 21.8019 34.4559 21.8565C34.4524 21.8736 34.4477 21.8907 34.4429 21.9078C34.4258 21.9755 34.408 22.0425 34.3896 22.1095C34.3868 22.1218 34.3834 22.1341 34.38 22.1464C34.3574 22.2291 34.3342 22.3118 34.3103 22.3938C34.2925 22.454 34.2747 22.5142 34.2563 22.5743C34.2371 22.6379 34.218 22.7015 34.1975 22.765C34.138 22.9558 34.0751 23.1458 34.0081 23.3338C33.991 23.3837 33.9732 23.4336 33.9548 23.4828C33.8509 23.7699 33.7395 24.055 33.6191 24.3359C33.5932 24.3995 33.5658 24.4624 33.5378 24.5253C33.5145 24.5779 33.492 24.6299 33.4681 24.6825C33.4243 24.7796 33.3792 24.876 33.3341 24.9724C33.2787 25.0906 33.2213 25.2075 33.1625 25.3244C33.1249 25.4003 33.0866 25.4755 33.0477 25.5507C32.9294 25.7783 32.8063 26.0039 32.6771 26.2268C32.6348 26.2999 32.5917 26.373 32.5486 26.4455C32.5049 26.5187 32.4611 26.5911 32.4167 26.6636C32.3634 26.7497 32.3094 26.8352 32.2554 26.9199C32.2458 26.9356 32.2355 26.9507 32.226 26.9657C32.1993 27.0081 32.172 27.0491 32.1439 27.0908C32.1426 27.0942 32.1398 27.0977 32.1378 27.1011C32.1357 27.1045 32.1337 27.1072 32.1316 27.11C32.0879 27.177 32.0435 27.2439 31.9977 27.3103C31.9279 27.4128 31.8568 27.5153 31.7851 27.6158C31.7823 27.6199 31.7803 27.6233 31.7775 27.6261C31.7447 27.6726 31.7112 27.7184 31.6777 27.7648C31.6128 27.8544 31.5465 27.9439 31.4788 28.0328C31.4385 28.0868 31.3975 28.1401 31.3564 28.1928C31.3154 28.2461 31.2744 28.298 31.2327 28.3507C31.2033 28.3876 31.1739 28.4245 31.1445 28.4614C31.0741 28.5489 31.0023 28.6357 30.9299 28.7219C30.8827 28.7786 30.8349 28.8354 30.7863 28.8914C30.7781 28.901 30.7699 28.9105 30.7617 28.9201C30.6811 29.0138 30.599 29.1061 30.5163 29.1983C30.4288 29.2947 30.3413 29.3904 30.2511 29.4854C30.2053 29.5347 30.1588 29.5839 30.1116 29.6324C30.0337 29.7138 29.9544 29.7944 29.8744 29.8744C29.5319 30.2169 29.1778 30.5437 28.8128 30.8533C28.7581 30.8998 28.7034 30.9456 28.648 30.9914C28.6016 31.0304 28.5544 31.0693 28.5065 31.1076C28.4498 31.1541 28.3924 31.1999 28.335 31.245L28.2201 31.3353C28.1244 31.4104 28.028 31.4836 27.9303 31.5561C27.8325 31.6285 27.7348 31.7003 27.6356 31.7707C27.4777 31.8842 27.3178 31.9942 27.1564 32.1009C27.0956 32.1412 27.0348 32.1815 26.9732 32.2212C26.8187 32.321 26.6629 32.4188 26.505 32.5131C26.4359 32.5548 26.3669 32.5958 26.2972 32.6368C26.129 32.7346 25.9595 32.8303 25.7872 32.9219C25.7291 32.9533 25.6703 32.9848 25.6115 33.0155C25.5356 33.0552 25.4598 33.0941 25.3839 33.1324C25.2219 33.2151 25.0585 33.2944 24.8938 33.371C24.8131 33.4086 24.7324 33.4455 24.6511 33.4824C24.6483 33.4838 24.6456 33.4852 24.6429 33.4858C24.5608 33.5228 24.4788 33.5583 24.3968 33.5938C24.392 33.5959 24.3872 33.5979 24.3831 33.5993C24.3154 33.628 24.2478 33.6567 24.1794 33.6848C24.1117 33.7128 24.0434 33.7401 23.975 33.7675C23.9066 33.7948 23.8376 33.8215 23.7692 33.8481C23.7002 33.8748 23.6318 33.9001 23.5628 33.9254C23.4938 33.9514 23.424 33.976 23.355 34.0006C23.3201 34.0136 23.2853 34.0259 23.2504 34.0375C23.2155 34.0498 23.1807 34.0614 23.1458 34.073C23.0761 34.097 23.0063 34.1202 22.9366 34.1428C22.873 34.164 22.8095 34.1845 22.7452 34.2043C22.6488 34.2344 22.5511 34.2638 22.454 34.2925C22.4034 34.3075 22.3521 34.3219 22.3016 34.3362C22.2441 34.3533 22.186 34.369 22.1286 34.3848C22.1272 34.3848 22.1266 34.3854 22.1252 34.3854C22.0773 34.3984 22.0302 34.4114 21.9823 34.4237C21.9461 34.4333 21.9099 34.4429 21.8736 34.4518C21.8128 34.4675 21.752 34.4832 21.6904 34.4976C21.5113 34.542 21.3315 34.583 21.1504 34.6206C21.093 34.6329 21.0362 34.6445 20.9781 34.6562C20.9487 34.6623 20.9187 34.6678 20.8886 34.6732C20.8804 34.676 20.8722 34.6773 20.864 34.678C20.8264 34.6862 20.7888 34.6931 20.7505 34.6999C20.7361 34.7033 20.7218 34.7061 20.7074 34.7081C20.6691 34.7156 20.6302 34.7225 20.5912 34.7293C20.5844 34.7307 20.5775 34.732 20.5707 34.7327C20.5331 34.7396 20.4948 34.7464 20.4572 34.7525C20.4073 34.7614 20.3574 34.7696 20.3068 34.7771C20.2405 34.7881 20.1735 34.7983 20.1065 34.8079C20.0758 34.8127 20.045 34.8175 20.0143 34.8216C19.9698 34.8284 19.9261 34.8346 19.8816 34.84C19.8167 34.8489 19.7524 34.8578 19.6875 34.8653C19.6137 34.8742 19.5392 34.8831 19.4646 34.8913C19.3895 34.9002 19.3136 34.9077 19.2384 34.9152C19.0948 34.9289 18.9506 34.9412 18.8063 34.9521C18.7277 34.9583 18.6484 34.9631 18.5691 34.9679C18.5582 34.9686 18.5479 34.9692 18.5377 34.9692C18.4598 34.974 18.3812 34.9781 18.3025 34.9815C18.2301 34.985 18.1576 34.9877 18.0852 34.9897C18.0817 34.9904 18.0776 34.9904 18.0742 34.9904C18.053 34.9918 18.0318 34.9918 18.0106 34.9925C18.0052 34.9932 17.9997 34.9932 17.9942 34.9925C17.9382 34.9945 17.8814 34.9959 17.8247 34.9966C17.7167 34.9993 17.6087 35 17.5 35V0C17.5848 0 17.6695 0.000683594 17.7536 0.00205078C17.9416 0.00410156 18.1282 0.0102539 18.3148 0.0191406C18.3504 0.0205078 18.3853 0.021875 18.4201 0.0239258C18.455 0.025293 18.4905 0.0273438 18.5254 0.0300781C18.673 0.0375977 18.8207 0.0478516 18.9677 0.0608398C19.0251 0.0649414 19.0825 0.0697266 19.1393 0.0758789C19.1399 0.0751953 19.1406 0.0751953 19.142 0.0758789C19.3054 0.090918 19.4681 0.108008 19.6308 0.127832C19.682 0.133984 19.7333 0.140137 19.7839 0.146973C20.1592 0.195508 20.5311 0.255664 20.9002 0.328809C20.9364 0.335645 20.972 0.34248 21.0082 0.35C21.0561 0.35957 21.1032 0.369141 21.1504 0.379395C21.2187 0.39375 21.2864 0.408105 21.3541 0.423145C21.4047 0.434766 21.4546 0.445703 21.5045 0.458008C21.5646 0.47168 21.6234 0.486035 21.6829 0.500391C21.7355 0.513379 21.7882 0.526367 21.8401 0.539355C22.2325 0.63916 22.6208 0.751953 23.0043 0.879102C23.0638 0.898926 23.1232 0.91875 23.1827 0.939258C23.2736 0.97002 23.3639 1.00146 23.4541 1.03428C23.5054 1.05273 23.556 1.07119 23.6065 1.09033C23.6729 1.11494 23.7392 1.14023 23.8055 1.16553C23.8718 1.19082 23.9381 1.2168 24.0037 1.24346C24.2655 1.34805 24.5253 1.45947 24.7823 1.57705C24.8295 1.59824 24.8767 1.62012 24.9238 1.64268C24.971 1.66455 25.0175 1.68711 25.0646 1.70967C25.1118 1.73223 25.1583 1.75479 25.2048 1.77803C25.252 1.80059 25.2984 1.82383 25.3449 1.84775C25.5411 1.94551 25.7346 2.04736 25.926 2.15332C25.9602 2.17178 25.9937 2.19023 26.0271 2.20937C26.101 2.25039 26.1734 2.29141 26.2459 2.33379C26.3115 2.37139 26.3765 2.40967 26.4414 2.44863C26.5159 2.49307 26.5897 2.5375 26.6636 2.5833C26.6807 2.59355 26.6984 2.60449 26.7148 2.61543C26.7791 2.65508 26.8434 2.69609 26.9076 2.73711C26.9787 2.78223 27.0491 2.82803 27.1195 2.87451C27.2426 2.95586 27.3643 3.03789 27.4846 3.12266C27.5509 3.16846 27.6158 3.21426 27.6808 3.26143C27.7211 3.29014 27.7601 3.31885 27.7997 3.34687C27.8195 3.36191 27.8394 3.37627 27.8592 3.39062C27.8995 3.42002 27.9392 3.4501 27.9788 3.48018C28.0116 3.50479 28.0444 3.52939 28.0772 3.55469C28.1285 3.59297 28.1791 3.63262 28.2297 3.67158C28.2775 3.70918 28.3254 3.74678 28.3726 3.78437C28.4307 3.83018 28.4881 3.87666 28.5455 3.92383C28.6029 3.971 28.6604 4.01816 28.7171 4.06602C28.7656 4.10635 28.8142 4.14668 28.8613 4.18838C28.9352 4.25059 29.0076 4.31416 29.0801 4.37842C29.1478 4.43857 29.2154 4.49873 29.2824 4.56025C29.3433 4.61562 29.4041 4.67168 29.4643 4.72842C29.5148 4.77559 29.5647 4.82275 29.614 4.87061C29.6468 4.90205 29.6796 4.9335 29.7117 4.96562C29.7664 5.01826 29.8204 5.07158 29.8744 5.12559C29.9496 5.20078 30.0241 5.27666 30.0973 5.35322C30.1444 5.40107 30.1902 5.44961 30.236 5.49814L30.2422 5.5043C30.275 5.53916 30.3071 5.57402 30.3393 5.6082C30.5669 5.85361 30.7863 6.10381 30.9982 6.36016C31.0222 6.38887 31.0454 6.41758 31.0687 6.44561C31.1603 6.55771 31.2505 6.67051 31.3387 6.78398C31.4111 6.87695 31.4829 6.97061 31.5533 7.06563C31.5725 7.09092 31.5916 7.11621 31.6101 7.14219C31.6538 7.20098 31.6969 7.26045 31.7393 7.31992C31.7905 7.39102 31.8411 7.46211 31.891 7.53457C31.9669 7.64326 32.04 7.75195 32.1132 7.86201C32.2554 8.07666 32.3928 8.29404 32.5247 8.51416C32.5623 8.57637 32.5992 8.63926 32.6368 8.70283C32.6785 8.77393 32.7195 8.8457 32.7599 8.91816C32.7811 8.9544 32.8009 8.99062 32.8207 9.02754C32.8986 9.16699 32.9745 9.30781 33.0477 9.44932C33.0798 9.51152 33.1119 9.57305 33.1427 9.63525C33.196 9.74053 33.2486 9.84648 33.2992 9.95381C33.3218 10.0003 33.3437 10.0475 33.3655 10.0939C33.373 10.1104 33.3813 10.1261 33.3881 10.1425C33.4086 10.1869 33.4291 10.2307 33.4489 10.2751C33.4742 10.3305 33.4988 10.3858 33.5234 10.4419C33.5515 10.5041 33.5788 10.567 33.6055 10.6299C33.6294 10.6866 33.6533 10.7427 33.6766 10.7994C33.7039 10.865 33.7306 10.9307 33.7565 10.9963C33.8338 11.1877 33.9069 11.3812 33.976 11.5753C34.0006 11.643 34.0245 11.7106 34.0478 11.779C34.2132 12.2582 34.3574 12.7449 34.4805 13.2385C34.4982 13.3123 34.516 13.3861 34.5338 13.46C34.5646 13.5892 34.5933 13.719 34.6206 13.8496C34.6356 13.9193 34.65 13.9891 34.6637 14.0595C34.678 14.1292 34.691 14.1996 34.704 14.27C34.7163 14.3336 34.7279 14.3979 34.7389 14.4621C34.7648 14.6091 34.7881 14.7574 34.81 14.9058C34.8209 14.9762 34.8305 15.0473 34.84 15.1184C34.8503 15.1895 34.8592 15.2612 34.8681 15.3323C34.892 15.5306 34.9132 15.7295 34.931 15.9291C34.946 16.1034 34.959 16.2777 34.9692 16.4521C34.9706 16.4787 34.9727 16.5047 34.9733 16.5307C34.9761 16.5744 34.9781 16.6188 34.9802 16.6626C34.9932 16.9408 35 17.2197 35 17.5Z" fill="#E1E1E4"/>
<path d="M34.9802 16.6626C34.9781 16.6188 34.9761 16.5744 34.9733 16.5307C34.9727 16.5047 34.9706 16.4787 34.9692 16.4521C34.959 16.2777 34.946 16.1034 34.931 15.9291C34.9132 15.7295 34.892 15.5306 34.8681 15.3323C34.8592 15.2612 34.8503 15.1895 34.84 15.1184C34.8305 15.0473 34.8209 14.9762 34.81 14.9058C34.7881 14.7574 34.7648 14.6091 34.7389 14.4621C34.7279 14.3979 34.7163 14.3336 34.704 14.27C34.691 14.1996 34.678 14.1292 34.6637 14.0595C34.65 13.9891 34.6356 13.9193 34.6206 13.8496C34.5933 13.719 34.5645 13.5892 34.5338 13.46C34.516 13.3861 34.4982 13.3123 34.4805 13.2385C34.3574 12.7449 34.2132 12.2582 34.0478 11.779C34.0245 11.7106 34.0006 11.643 33.976 11.5753C33.9069 11.3812 33.8338 11.1877 33.7565 10.9963C33.7306 10.9307 33.7039 10.865 33.6766 10.7994C33.6533 10.7427 33.6294 10.6866 33.6055 10.6299C33.5788 10.567 33.5515 10.5041 33.5234 10.4419C33.4988 10.3858 33.4742 10.3305 33.4489 10.2751C33.4291 10.2307 33.4086 10.1869 33.3881 10.1425C33.3813 10.1261 33.373 10.1104 33.3655 10.0939C33.3437 10.0475 33.3218 10.0003 33.2992 9.95381C33.2486 9.84648 33.196 9.74053 33.1427 9.63525C33.1119 9.57305 33.0798 9.51152 33.0477 9.44932C32.9745 9.30781 32.8986 9.16699 32.8207 9.02754C32.8009 8.99062 32.7811 8.9544 32.7599 8.91816C32.7195 8.8457 32.6785 8.77393 32.6368 8.70283C32.5992 8.63926 32.5623 8.57637 32.5247 8.51416C32.3928 8.29404 32.2554 8.07666 32.1132 7.86201L27.5871 10.4802C26.7511 9.28184 25.7065 8.23867 24.5068 7.404L27.1195 2.87451C27.0491 2.82803 26.9787 2.78223 26.9076 2.73711C26.8434 2.69609 26.7791 2.65508 26.7148 2.61543C26.6984 2.60449 26.6807 2.59355 26.6636 2.5833C26.5897 2.5375 26.5159 2.49307 26.4414 2.44863C26.3765 2.40967 26.3115 2.37139 26.2459 2.33379C26.1734 2.29141 26.101 2.25039 26.0271 2.20937C25.9937 2.19023 25.9602 2.17178 25.926 2.15332C25.7346 2.04736 25.5411 1.94551 25.3449 1.84775C25.2984 1.82383 25.252 1.80059 25.2048 1.77803C25.1583 1.75479 25.1118 1.73223 25.0646 1.70967C25.0175 1.68711 24.971 1.66455 24.9238 1.64268C24.8767 1.62012 24.8295 1.59824 24.7823 1.57705C24.5253 1.45947 24.2655 1.34805 24.0037 1.24346C23.9381 1.2168 23.8718 1.19082 23.8055 1.16553C23.7392 1.14023 23.6729 1.11494 23.6065 1.09033C23.556 1.07119 23.5054 1.05273 23.4541 1.03428C23.3639 1.00146 23.2736 0.97002 23.1827 0.939258C23.1232 0.91875 23.0638 0.898926 23.0043 0.879102C22.6208 0.751953 22.2325 0.63916 21.8401 0.539355C21.7882 0.526367 21.7355 0.513379 21.6829 0.500391C21.6234 0.486035 21.5646 0.47168 21.5045 0.458008C21.4546 0.445703 21.4047 0.434766 21.3541 0.423145C21.2864 0.408105 21.2188 0.39375 21.1504 0.379395C21.1032 0.369141 21.0561 0.35957 21.0082 0.35C20.972 0.34248 20.9364 0.335645 20.9002 0.328809C20.5311 0.255664 20.1592 0.195508 19.7839 0.146973C19.7333 0.140137 19.682 0.133984 19.6308 0.127832C19.4681 0.108008 19.3054 0.090918 19.142 0.0758789C19.1406 0.0751953 19.1399 0.0751953 19.1393 0.0758789C19.0825 0.0697266 19.0251 0.0649414 18.9677 0.0608398C18.8207 0.0478516 18.673 0.0375977 18.5254 0.0300781C18.4905 0.0273438 18.455 0.025293 18.4201 0.0239258C18.3853 0.021875 18.3504 0.0205078 18.3148 0.0191406C18.2103 0.0143555 18.1057 0.0102539 18.0004 0.00751953C17.9594 0.00615234 17.9184 0.00478516 17.8773 0.00410156C17.8363 0.00341797 17.7946 0.00273437 17.7536 0.00205078C17.6695 0.000683594 17.5848 0 17.5 0C17.1568 0 16.815 0.00957031 16.4746 0.0300781V5.24863C14.9598 5.37441 13.5215 5.77568 12.211 6.40254L9.57646 1.8874C9.51631 1.91816 9.45684 1.94893 9.39736 1.98037C9.21826 2.07402 9.04121 2.17246 8.86484 2.27227L8.86416 2.2709C8.50459 2.47529 8.15186 2.69268 7.80664 2.92305C7.63848 3.03584 7.47236 3.15137 7.30762 3.26963C6.53857 3.82266 5.8085 4.44268 5.12559 5.12559C4.41465 5.83652 3.77207 6.59873 3.20195 7.40264C3.07686 7.57832 2.95586 7.75605 2.8376 7.93584C2.46162 8.51006 2.12119 9.10342 1.81768 9.71455L6.35674 12.3102C5.74971 13.6076 5.36279 15.0268 5.24453 16.5211L0.0259766 16.5409C0.00888672 16.8595 0 17.1787 0 17.5C0 17.8657 0.0109375 18.2294 0.0334961 18.5917C0.0444336 18.7776 0.0587891 18.9629 0.0765625 19.1481C0.259082 21.121 0.77041 23.0241 1.58252 24.7946C1.67686 24.9997 1.77461 25.2027 1.87715 25.4037C2.18545 26.0121 2.53066 26.6034 2.91074 27.1749L7.43066 24.5451C8.27012 25.7414 9.3167 26.7818 10.5185 27.6138L7.91738 32.1494C8.49092 32.5268 9.08428 32.8686 9.69541 33.1728C9.86768 33.2589 10.0413 33.3423 10.2163 33.4223C11.995 34.2371 13.9084 34.7478 15.8908 34.9269C16.0993 34.9467 16.3085 34.9617 16.5184 34.9727C16.8438 34.9911 17.1712 35 17.5 35C17.6087 35 17.7167 34.9993 17.8247 34.9966C17.8814 34.9959 17.9382 34.9945 17.9942 34.9925C17.9997 34.9932 18.0052 34.9932 18.0106 34.9925C18.0318 34.9918 18.053 34.9918 18.0742 34.9904C18.0776 34.9904 18.0817 34.9904 18.0852 34.9897C18.1576 34.9877 18.2301 34.985 18.3025 34.9815C18.3812 34.9781 18.4598 34.974 18.5377 34.9692C18.5479 34.9692 18.5582 34.9686 18.5691 34.9679L18.5562 29.7486C20.0491 29.6208 21.4669 29.2257 22.7603 28.6104L25.3839 33.1324C25.4598 33.0941 25.5356 33.0552 25.6115 33.0155C25.6703 32.9848 25.7291 32.9533 25.7872 32.9219C25.9595 32.8303 26.129 32.7346 26.2972 32.6368C26.3669 32.5958 26.4359 32.5548 26.505 32.5131C26.6629 32.4188 26.8187 32.321 26.9732 32.2212C27.0348 32.1815 27.0956 32.1412 27.1564 32.1009C27.3178 31.9942 27.4777 31.8842 27.6356 31.7707C27.7348 31.7003 27.8325 31.6285 27.9303 31.5561C28.028 31.4836 28.1244 31.4104 28.2201 31.3353L28.335 31.245C28.3924 31.1999 28.4498 31.1541 28.5065 31.1076C28.5544 31.0693 28.6016 31.0304 28.648 30.9914C28.7034 30.9456 28.7581 30.8998 28.8128 30.8533C29.1778 30.5437 29.5319 30.2169 29.8744 29.8744C29.9544 29.7944 30.0337 29.7138 30.1116 29.6324C30.1588 29.5839 30.2053 29.5347 30.2511 29.4854C30.3413 29.3904 30.4288 29.2947 30.5163 29.1983C30.599 29.1061 30.6811 29.0138 30.7617 28.9201C30.7699 28.9105 30.7781 28.901 30.7863 28.8914C30.8349 28.8354 30.8827 28.7786 30.9299 28.7219C31.0023 28.6357 31.0741 28.5489 31.1445 28.4614C31.1739 28.4245 31.2033 28.3876 31.2327 28.3507C31.2744 28.298 31.3154 28.2461 31.3564 28.1928C31.3975 28.1401 31.4385 28.0868 31.4788 28.0328C31.5465 27.9439 31.6128 27.8544 31.6777 27.7648C31.7112 27.7184 31.7447 27.6726 31.7775 27.6261C31.7803 27.6233 31.7823 27.6199 31.7851 27.6158C31.8568 27.5153 31.9279 27.4128 31.9977 27.3103C32.0435 27.2439 32.0879 27.177 32.1316 27.11C32.1337 27.1072 32.1357 27.1045 32.1378 27.1011C32.1398 27.0977 32.1426 27.0942 32.1439 27.0908C32.172 27.0491 32.1993 27.0081 32.226 26.9657C32.2355 26.9507 32.2458 26.9356 32.2554 26.9199C32.3094 26.8352 32.3634 26.7497 32.4167 26.6636C32.4611 26.5911 32.5049 26.5187 32.5486 26.4455C32.5917 26.373 32.6348 26.2999 32.6771 26.2268C32.8063 26.0039 32.9294 25.7783 33.0477 25.5507C33.0866 25.4755 33.1249 25.4003 33.1625 25.3244L28.6303 22.7179C29.24 21.4225 29.6304 20.0033 29.7527 18.5097L34.9713 18.5028C34.9761 18.4194 34.9802 18.336 34.9836 18.2526C34.9911 18.0858 34.9959 17.919 34.9979 17.7516C34.9993 17.6675 35 17.5841 35 17.5C35 17.2197 34.9932 16.9408 34.9802 16.6626ZM17.5 27.7437C11.8515 27.7437 7.25635 23.1485 7.25635 17.5C7.25635 11.8515 11.8515 7.25635 17.5 7.25635C23.1485 7.25635 27.7437 11.8515 27.7437 17.5C27.7437 23.1485 23.1485 27.7437 17.5 27.7437Z" fill="#E70020"/>
<path d="M24.7437 24.7437C22.8087 26.6779 20.2361 27.7437 17.5 27.7437V7.25635C20.2361 7.25635 22.8087 8.32221 24.7437 10.2563C26.6779 12.1913 27.7437 14.7639 27.7437 17.5C27.7437 20.2361 26.6779 22.8087 24.7437 24.7437Z" fill="#E1E1E4"/>
<path d="M35 17.5C35 17.5841 34.9993 17.6675 34.9979 17.7516C34.9959 17.919 34.9911 18.0858 34.9836 18.2526C34.9802 18.336 34.9761 18.4194 34.9713 18.5028L29.7527 18.5097C29.6304 20.0033 29.24 21.4225 28.6303 22.7179L33.1625 25.3244C33.1249 25.4003 33.0866 25.4755 33.0477 25.5507C32.9294 25.7783 32.8063 26.0039 32.6771 26.2268C32.6348 26.2999 32.5917 26.373 32.5486 26.4455C32.5049 26.5187 32.4611 26.5911 32.4167 26.6636C32.3634 26.7497 32.3094 26.8352 32.2554 26.9199C32.2458 26.9356 32.2355 26.9507 32.226 26.9657C32.1993 27.0081 32.172 27.0491 32.1439 27.0908C32.1426 27.0942 32.1398 27.0977 32.1378 27.1011C32.1357 27.1045 32.1337 27.1072 32.1316 27.11C32.0879 27.177 32.0435 27.2439 31.9977 27.3103C31.9279 27.4128 31.8568 27.5153 31.7851 27.6158C31.7823 27.6199 31.7803 27.6233 31.7775 27.6261C31.7447 27.6726 31.7112 27.7184 31.6777 27.7648C31.6128 27.8544 31.5465 27.9439 31.4788 28.0328C31.4385 28.0868 31.3975 28.1401 31.3564 28.1928C31.3154 28.2461 31.2744 28.298 31.2327 28.3507C31.2033 28.3876 31.1739 28.4245 31.1445 28.4614C31.0741 28.5489 31.0023 28.6357 30.9299 28.7219C30.8827 28.7786 30.8349 28.8354 30.7863 28.8914C30.7781 28.901 30.7699 28.9105 30.7617 28.9201C30.6811 29.0138 30.599 29.1061 30.5163 29.1983C30.4288 29.2947 30.3413 29.3904 30.2511 29.4854C30.2053 29.5347 30.1588 29.5839 30.1116 29.6324C30.0337 29.7138 29.9544 29.7944 29.8744 29.8744C29.5319 30.2169 29.1778 30.5437 28.8128 30.8533C28.7581 30.8998 28.7034 30.9456 28.648 30.9914C28.6016 31.0304 28.5544 31.0693 28.5065 31.1076C28.4498 31.1541 28.3924 31.1999 28.335 31.245L28.2201 31.3353C28.1244 31.4104 28.028 31.4836 27.9303 31.5561C27.8325 31.6285 27.7348 31.7003 27.6356 31.7707C27.4777 31.8842 27.3178 31.9942 27.1564 32.1009C27.0956 32.1412 27.0348 32.1815 26.9732 32.2212C26.8187 32.321 26.6629 32.4188 26.505 32.5131C26.4359 32.5548 26.3669 32.5958 26.2972 32.6368C26.129 32.7346 25.9595 32.8303 25.7872 32.9219C25.7291 32.9533 25.6703 32.9848 25.6115 33.0155C25.5356 33.0552 25.4598 33.0941 25.3839 33.1324L22.7603 28.6104C21.4669 29.2257 20.0491 29.6208 18.5562 29.7486L18.5691 34.9679C18.5582 34.9686 18.5479 34.9692 18.5377 34.9692C18.4598 34.974 18.3812 34.9781 18.3025 34.9815C18.2301 34.985 18.1576 34.9877 18.0852 34.9897C18.0817 34.9904 18.0776 34.9904 18.0742 34.9904C18.053 34.9918 18.0318 34.9918 18.0106 34.9925C18.0052 34.9932 17.9997 34.9932 17.9942 34.9925C17.9382 34.9945 17.8814 34.9959 17.8247 34.9966C17.7167 34.9993 17.6087 35 17.5 35V27.7437C23.1485 27.7437 27.7437 23.1485 27.7437 17.5C27.7437 11.8515 23.1485 7.25635 17.5 7.25635V0C17.5848 0 17.6695 0.000683594 17.7536 0.00205078C17.7946 0.00273437 17.8363 0.00341797 17.8773 0.00410156C17.9184 0.00478516 17.9594 0.00615234 18.0004 0.00751953C18.1057 0.0102539 18.2103 0.0143555 18.3148 0.0191406C18.3504 0.0205078 18.3853 0.021875 18.4201 0.0239258C18.455 0.025293 18.4905 0.0273438 18.5254 0.0300781C18.673 0.0375977 18.8207 0.0478516 18.9677 0.0608398C19.0251 0.0649414 19.0825 0.0697266 19.1393 0.0758789C19.1399 0.0751953 19.1406 0.0751953 19.142 0.0758789C19.3054 0.090918 19.4681 0.108008 19.6308 0.127832C19.682 0.133984 19.7333 0.140137 19.7839 0.146973C20.1592 0.195508 20.5311 0.255664 20.9002 0.328809C20.9364 0.335645 20.972 0.34248 21.0082 0.35C21.0561 0.35957 21.1032 0.369141 21.1504 0.379395C21.2187 0.39375 21.2864 0.408105 21.3541 0.423145C21.4047 0.434766 21.4546 0.445703 21.5045 0.458008C21.5646 0.47168 21.6234 0.486035 21.6829 0.500391C21.7355 0.513379 21.7882 0.526367 21.8401 0.539355C22.2325 0.63916 22.6208 0.751953 23.0043 0.879102C23.0638 0.898926 23.1232 0.91875 23.1827 0.939258C23.2736 0.97002 23.3639 1.00146 23.4541 1.03428C23.5054 1.05273 23.556 1.07119 23.6065 1.09033C23.6729 1.11494 23.7392 1.14023 23.8055 1.16553C23.8718 1.19082 23.9381 1.2168 24.0037 1.24346C24.2655 1.34805 24.5253 1.45947 24.7823 1.57705C24.8295 1.59824 24.8767 1.62012 24.9238 1.64268C24.971 1.66455 25.0175 1.68711 25.0646 1.70967C25.1118 1.73223 25.1583 1.75479 25.2048 1.77803C25.252 1.80059 25.2984 1.82383 25.3449 1.84775C25.5411 1.94551 25.7346 2.04736 25.926 2.15332C25.9602 2.17178 25.9937 2.19023 26.0271 2.20937C26.101 2.25039 26.1734 2.29141 26.2459 2.33379C26.3115 2.37139 26.3765 2.40967 26.4414 2.44863C26.5159 2.49307 26.5897 2.5375 26.6636 2.5833C26.6807 2.59355 26.6984 2.60449 26.7148 2.61543C26.7791 2.65508 26.8434 2.69609 26.9076 2.73711C26.9787 2.78223 27.0491 2.82803 27.1195 2.87451L24.5068 7.404C25.7065 8.23867 26.7511 9.28184 27.5871 10.4802L32.1132 7.86201C32.2554 8.07666 32.3928 8.29404 32.5247 8.51416C32.5623 8.57637 32.5992 8.63926 32.6368 8.70283C32.6785 8.77393 32.7195 8.8457 32.7599 8.91816C32.7811 8.9544 32.8009 8.99062 32.8207 9.02754C32.8986 9.16699 32.9745 9.30781 33.0477 9.44932C33.0798 9.51152 33.1119 9.57305 33.1427 9.63525C33.196 9.74053 33.2486 9.84648 33.2992 9.95381C33.3218 10.0003 33.3437 10.0475 33.3655 10.0939C33.373 10.1104 33.3813 10.1261 33.3881 10.1425C33.4086 10.1869 33.4291 10.2307 33.4489 10.2751C33.4742 10.3305 33.4988 10.3858 33.5234 10.4419C33.5515 10.5041 33.5788 10.567 33.6055 10.6299C33.6294 10.6866 33.6533 10.7427 33.6766 10.7994C33.7039 10.865 33.7306 10.9307 33.7565 10.9963C33.8338 11.1877 33.9069 11.3812 33.976 11.5753C34.0006 11.643 34.0245 11.7106 34.0478 11.779C34.2132 12.2582 34.3574 12.7449 34.4805 13.2385C34.4982 13.3123 34.516 13.3861 34.5338 13.46C34.5646 13.5892 34.5933 13.719 34.6206 13.8496C34.6356 13.9193 34.65 13.9891 34.6637 14.0595C34.678 14.1292 34.691 14.1996 34.704 14.27C34.7163 14.3336 34.7279 14.3979 34.7389 14.4621C34.7648 14.6091 34.7881 14.7574 34.81 14.9058C34.8209 14.9762 34.8305 15.0473 34.84 15.1184C34.8503 15.1895 34.8592 15.2612 34.8681 15.3323C34.892 15.5306 34.9132 15.7295 34.931 15.9291C34.946 16.1034 34.959 16.2777 34.9692 16.4521C34.9706 16.4787 34.9727 16.5047 34.9733 16.5307C34.9761 16.5744 34.9781 16.6188 34.9802 16.6626C34.9932 16.9408 35 17.2197 35 17.5Z" fill="#990013"/>
<path d="M22.4031 19.478C21.6336 20.7347 20.5609 21.0054 19.7966 21.0111C19.3994 21.0142 19.0017 20.9448 18.6232 20.8085C18.7063 21.152 18.813 21.3389 18.9027 21.402L19.0431 21.5007V22.4219H15.9571V21.5007L16.0975 21.4019C16.1872 21.3389 16.2939 21.1519 16.377 20.8085C15.9985 20.9447 15.601 21.0142 15.2036 21.0111C14.4393 21.0053 13.3667 20.7346 12.5971 19.4779C11.9768 18.4648 11.9605 17.2632 12.5522 16.1815C13.0087 15.3465 13.716 14.681 14.4 14.0373C14.5204 13.9243 14.6339 13.8173 14.747 13.7089C15.1709 13.3017 15.6002 12.9093 16.015 12.53C16.427 12.1533 16.8531 11.7638 17.271 11.3624L17.5001 11.1426L17.7291 11.3624C18.1471 11.7638 18.5732 12.1533 18.9852 12.53C19.4001 12.9094 19.8292 13.3017 20.2531 13.7089C20.3662 13.8173 20.4797 13.9242 20.6001 14.0373C21.2841 14.681 21.9915 15.3465 22.448 16.1815C23.0397 17.2632 23.0234 18.4648 22.4031 19.478Z" fill="#3C3A41"/>
<path d="M22.4029 19.478C21.6334 20.7347 20.5607 21.0054 19.7965 21.0111C19.3992 21.0142 19.0016 20.9448 18.6231 20.8085C18.7062 21.152 18.8128 21.3389 18.9026 21.402L19.043 21.5007V22.4219H17.5V11.1426L17.729 11.3624C18.147 11.7638 18.573 12.1533 18.985 12.53C19.3999 12.9094 19.8291 13.3017 20.253 13.7089C20.366 13.8173 20.4796 13.9242 20.6 14.0373C21.284 14.681 21.9913 15.3465 22.4479 16.1815C23.0396 17.2632 23.0232 18.4648 22.4029 19.478Z" fill="#17171A"/>
</svg>
