<svg width="22" height="22" viewBox="0 0 22 22" fill="none" xmlns="http://www.w3.org/2000/svg">
<path d="M3.17533 18.722C3.19 18.7403 3.20467 18.7587 3.223 18.777C3.23767 18.7917 3.256 18.8063 3.27433 18.8173C3.27433 18.8173 3.278 18.8247 3.28167 18.8247C5.25433 20.7717 7.94933 21.978 10.9267 21.9927C10.9377 21.9963 10.9487 21.9963 10.9633 21.9963C10.9743 22 10.989 22 11 22C11.011 22 11.0257 22 11.0367 21.9963C11.0513 21.9963 11.0623 21.9963 11.0733 21.9927C14.0653 21.978 16.775 20.757 18.7477 18.799C18.7587 18.7917 18.766 18.7843 18.7733 18.777C18.7917 18.7587 18.8063 18.7403 18.821 18.722C20.79 16.7347 22 14.0067 22 11V10.9963C22 7.98967 20.7863 5.26167 18.821 3.278C18.8063 3.25967 18.7917 3.24133 18.7733 3.22667C18.7697 3.21933 18.7623 3.212 18.755 3.20833C18.755 3.20589 18.7538 3.20467 18.7513 3.20467C16.764 1.22467 14.0213 0 11 0C7.97867 0 5.269 1.21 3.28167 3.17167C3.28167 3.17167 3.28167 3.17533 3.278 3.17533C3.25967 3.19 3.24133 3.20467 3.223 3.223C3.20467 3.24133 3.19 3.25967 3.17533 3.278C3.17533 3.28167 3.17167 3.28167 3.17167 3.28167C1.21 5.26533 0 7.99333 0 10.9963V11C0 14.0067 1.21 16.731 3.17167 18.7183C3.17167 18.7183 3.17533 18.7183 3.17533 18.722ZM11.3667 21.252V18.722C13.1743 18.6413 14.8683 17.941 16.203 16.7273L17.9887 18.5093C16.2397 20.141 13.9187 21.1677 11.3667 21.252ZM18.5093 4.00767C20.141 5.75667 21.1677 8.07767 21.2557 10.6297H18.7183C18.6377 8.822 17.9373 7.128 16.7237 5.79333L18.5093 4.00767ZM10.6333 0.740667V3.27433C8.82933 3.35867 7.13533 4.059 5.79333 5.27633L4.00767 3.49067C5.75667 1.859 8.07767 0.828667 10.6333 0.740667ZM6.04633 6.05C7.36633 4.73733 9.11167 4.01133 10.9633 4.00033H10.9707C10.9817 4.004 10.989 4.004 11 4.004C11.011 4.004 11.0183 4.004 11.0293 4.00033H11.0367C12.8847 4.01133 14.6227 4.73 15.9317 6.03167L15.9353 6.03533C15.939 6.039 15.9463 6.04633 15.95 6.05C15.9537 6.05367 15.961 6.061 15.961 6.06467C17.2737 7.381 17.996 9.13367 17.996 10.9963C17.996 12.859 17.27 14.6263 15.95 15.95L15.9463 15.9537C14.6337 17.2627 12.892 17.9887 11.0367 17.9997H11.0293C11.0183 17.996 11.011 17.996 11 17.996C10.989 17.996 10.9817 17.996 10.9707 17.9997H10.9633C9.11167 17.9887 7.36633 17.2627 6.04633 15.95C4.72633 14.6263 4.00033 12.8663 4.00033 10.9963C4.00033 9.12633 4.72633 7.37 6.04633 6.05ZM3.278 11.363C3.35867 13.1707 4.059 14.8647 5.27633 16.2067L3.49067 17.9923C1.859 16.2433 0.828667 13.9223 0.744333 11.363H3.278Z" fill="#A9A9A9"/>
<path d="M9.30244 14.1311C9.6356 14.1311 9.96876 14.0747 10.283 13.9581L9.65074 15.6727C9.6091 15.7892 9.62424 15.9171 9.69618 16.0186C9.76811 16.1163 9.88169 16.1765 10.0066 16.1765H11.998C12.1229 16.1765 12.2403 16.1163 12.3085 16.0186C12.3804 15.9171 12.3955 15.7892 12.3539 15.6727L11.7216 13.9581C12.7287 14.3266 13.9061 14.1085 14.7049 13.3114C15.7915 12.2361 15.8066 10.4689 14.7352 9.37103L11.2711 5.93071C11.1272 5.78783 10.8774 5.78783 10.7335 5.93071L7.27319 9.37103C7.27067 9.37103 7.26815 9.37229 7.26562 9.37479C6.75452 9.90118 6.47058 10.5968 6.47058 11.3262C6.47437 12.0782 6.76588 12.785 7.29969 13.3114C7.84865 13.8566 8.57555 14.1311 9.30244 14.1311Z" fill="#A9A9A9"/>
</svg>
