<svg width="39" height="39" viewBox="0 0 39 39" fill="none" xmlns="http://www.w3.org/2000/svg">
<path d="M19.5 39C30.2696 39 39 30.2696 39 19.5C39 8.73045 30.2696 0 19.5 0C8.73045 0 0 8.73045 0 19.5C0 30.2696 8.73045 39 19.5 39Z" fill="#D64C45"/>
<path d="M25.0555 21.9396L17.3043 27.6034C16.9861 27.8391 16.6166 27.975 16.2347 27.9969C15.8528 28.0187 15.4727 27.9256 15.1344 27.7275C14.7961 27.5293 14.5121 27.2334 14.3125 26.8709C14.1129 26.5085 14.0049 26.0929 14 25.6679V14.3295C14.0053 13.9047 14.1136 13.4895 14.3134 13.1274C14.5132 12.7653 14.7972 12.4697 15.1354 12.2719C15.4736 12.074 15.8536 11.9812 16.2353 12.0032C16.6169 12.0251 16.9863 12.161 17.3043 12.3966L25.0555 18.0645C25.3455 18.2746 25.5838 18.5619 25.7487 18.9002C25.9136 19.2385 26 19.6172 26 20.002C26 20.3868 25.9136 20.7655 25.7487 21.1038C25.5838 21.4421 25.3455 21.7294 25.0555 21.9396Z" fill="white"/>
</svg>
