<svg width="24" height="19" viewBox="0 0 24 19" fill="none" xmlns="http://www.w3.org/2000/svg">
<path d="M1.79186 3.97714H22.0996C23.0894 3.97714 23.8914 3.17513 23.8914 2.18529C23.8914 1.19545 23.0894 0.393433 22.0996 0.393433H1.79186C0.802019 0.393433 0 1.19545 0 2.18529C0 3.17513 0.802019 3.97714 1.79186 3.97714Z" fill="#A9A9A9"/>
<path d="M22.0996 7.56091H1.79186C0.802019 7.56091 0 8.36293 0 9.35277C0 10.3426 0.802019 11.1446 1.79186 11.1446H22.0996C23.0894 11.1446 23.8914 10.3426 23.8914 9.35277C23.8914 8.36293 23.0894 7.56091 22.0996 7.56091Z" fill="#A9A9A9"/>
<path d="M22.0996 14.7283H1.79186C0.802019 14.7283 0 15.5303 0 16.5201C0 17.51 0.802019 18.312 1.79186 18.312H22.0996C23.0894 18.312 23.8914 17.51 23.8914 16.5201C23.8914 15.5303 23.0894 14.7283 22.0996 14.7283Z" fill="#A9A9A9"/>
</svg>
