<svg width="33" height="25" viewBox="0 0 33 25" fill="none" xmlns="http://www.w3.org/2000/svg">
<path d="M2.42493 4.84985H29.9074C31.247 4.84985 32.3324 3.76448 32.3324 2.42493C32.3324 1.08538 31.247 0 29.9074 0H2.42493C1.08538 0 0 1.08538 0 2.42493C0 3.76448 1.08538 4.84985 2.42493 4.84985Z" fill="#4D6BB0"/>
<path d="M29.9074 9.69971H2.42493C1.08538 9.69971 0 10.7851 0 12.1246C0 13.4642 1.08538 14.5496 2.42493 14.5496H29.9074C31.247 14.5496 32.3324 13.4642 32.3324 12.1246C32.3324 10.7851 31.247 9.69971 29.9074 9.69971Z" fill="#4D6BB0"/>
<path d="M29.9074 19.3993H2.42493C1.08538 19.3993 0 20.4847 0 21.8242C0 23.1638 1.08538 24.2491 2.42493 24.2491H29.9074C31.247 24.2491 32.3324 23.1638 32.3324 21.8242C32.3324 20.4847 31.247 19.3993 29.9074 19.3993Z" fill="#4D6BB0"/>
</svg>
