<svg width="24" height="25" viewBox="0 0 24 25" fill="none" xmlns="http://www.w3.org/2000/svg">
<path d="M22.5072 12.6885C22.4081 12.4856 22.4081 12.2529 22.5072 12.0501L23.4264 10.1698C23.9381 9.12281 23.5327 7.87495 22.5033 7.32878L20.6545 6.34781C20.455 6.24202 20.3183 6.05372 20.2792 5.83139L19.9176 3.76987C19.7163 2.62208 18.6546 1.85079 17.501 2.01401L15.4287 2.30714C15.205 2.33872 14.9838 2.2668 14.8215 2.10984L13.3173 0.654665C12.4797 -0.155616 11.1676 -0.155664 10.3301 0.654665L8.82583 2.10999C8.66352 2.267 8.44235 2.33876 8.21872 2.30728L6.14642 2.01415C4.99242 1.85083 3.93107 2.62222 3.72973 3.77002L3.36815 5.83144C3.32911 6.05381 3.19237 6.24206 2.99295 6.34791L1.14414 7.32887C0.114751 7.875 -0.290727 9.12296 0.22103 10.1699L1.14014 12.0502C1.2393 12.2531 1.2393 12.4858 1.14014 12.6886L0.220982 14.5689C-0.290775 15.6158 0.114703 16.8637 1.14409 17.4099L2.9929 18.3908C3.19237 18.4966 3.32911 18.6849 3.36815 18.9073L3.72973 20.9688C3.91302 22.0137 4.80898 22.7465 5.8387 22.7464C5.94012 22.7464 6.04303 22.7392 6.14647 22.7246L8.21877 22.4315C8.44225 22.3997 8.66357 22.4718 8.82588 22.6288L10.3301 24.0839C10.749 24.4891 11.2862 24.6917 11.8237 24.6916C12.361 24.6916 12.8986 24.489 13.3173 24.0839L14.8215 22.6288C14.9839 22.4718 15.2051 22.4001 15.4287 22.4315L17.501 22.7246C18.6551 22.8879 19.7163 22.1165 19.9176 20.9687L20.2793 18.9073C20.3183 18.6849 20.4551 18.4967 20.6545 18.3908L22.5033 17.4099C23.5327 16.8638 23.9381 15.6158 23.4264 14.5688L22.5072 12.6885ZM8.98087 5.97304C10.4178 5.97304 11.5868 7.14207 11.5868 8.57895C11.5868 10.0158 10.4178 11.1849 8.98087 11.1849C7.54398 11.1849 6.37496 10.0158 6.37496 8.57895C6.37496 7.14207 7.54398 5.97304 8.98087 5.97304ZM7.63582 17.5622C7.49705 17.7009 7.31516 17.7704 7.13331 17.7704C6.95146 17.7704 6.76951 17.701 6.63079 17.5622C6.35325 17.2846 6.35325 16.8346 6.63079 16.5571L16.0115 7.17639C16.289 6.89885 16.739 6.89885 17.0166 7.17639C17.2941 7.45392 17.2941 7.90392 17.0166 8.18146L7.63582 17.5622ZM14.6664 18.7656C13.2295 18.7656 12.0605 17.5966 12.0605 16.1597C12.0605 14.7228 13.2295 13.5538 14.6664 13.5538C16.1033 13.5538 17.2723 14.7228 17.2723 16.1597C17.2723 17.5966 16.1033 18.7656 14.6664 18.7656Z" fill="#A9A9A9"/>
<path d="M14.6663 14.9753C14.0132 14.9753 13.4818 15.5066 13.4818 16.1598C13.4818 16.8129 14.0132 17.3442 14.6663 17.3442C15.3195 17.3442 15.8508 16.8129 15.8508 16.1598C15.8508 15.5066 15.3195 14.9753 14.6663 14.9753Z" fill="#A9A9A9"/>
<path d="M8.98098 7.39441C8.32786 7.39441 7.79651 7.92576 7.79651 8.57888C7.79651 9.23201 8.32786 9.7634 8.98098 9.7634C9.63411 9.7634 10.1655 9.23205 10.1655 8.57888C10.1655 7.9258 9.63411 7.39441 8.98098 7.39441Z" fill="#A9A9A9"/>
</svg>
