<svg width="36" height="36" viewBox="0 0 36 36" fill="none" xmlns="http://www.w3.org/2000/svg">
<path d="M35.7799 5.58607L30.1068 11.2592L27.9282 9.04951L33.6013 3.32055C33.7188 3.19318 33.8842 3.12073 34.0575 3.12073C34.2308 3.12073 34.3962 3.19318 34.5137 3.32055L35.811 4.66124C35.9386 4.78334 36.0082 4.95405 36.0023 5.13059C35.9964 5.30714 35.9155 5.4728 35.7799 5.58607Z" fill="#783E22"/>
<path d="M23.5835 0.62069V2.48276H22.9628C22.62 2.48276 22.3421 2.76065 22.3421 3.10345H18.618C18.618 2.76065 18.3401 2.48276 17.9973 2.48276H16.7559C16.4131 2.48276 16.1352 2.76065 16.1352 3.10345H12.4111C12.4111 2.76065 12.1332 2.48276 11.7904 2.48276H11.1697V0.62069C11.1697 0.277892 11.4476 0 11.7904 0H22.9628C23.3056 0 23.5835 0.277892 23.5835 0.62069Z" fill="#FEC108"/>
<path d="M4.96283 16.7587C7.70521 16.7587 9.92835 14.5355 9.92835 11.7932C9.92835 9.05077 7.70521 6.82764 4.96283 6.82764C2.22045 6.82764 -0.00268555 9.05077 -0.00268555 11.7932C-0.00268555 14.5355 2.22045 16.7587 4.96283 16.7587Z" fill="#F44335"/>
<path d="M24.825 3.10336V9.50267L22.3423 11.9854V3.10336C22.3423 2.76056 22.6202 2.48267 22.963 2.48267H24.2044C24.5472 2.48267 24.825 2.76056 24.825 3.10336Z" fill="#FFDC00"/>
<path d="M24.825 19.1605V35.3791C24.825 35.7219 24.5472 35.9998 24.2044 35.9998H22.963C22.6202 35.9998 22.3423 35.7219 22.3423 35.3791V21.6433L24.825 19.1605Z" fill="#FFDC00"/>
<path d="M18.6183 3.10336V15.6909L16.1355 18.1737V3.10336C16.1355 2.76056 16.4134 2.48267 16.7562 2.48267H17.9976C18.3404 2.48267 18.6183 2.76056 18.6183 3.10336Z" fill="#FFDC00"/>
<path d="M18.6183 25.3677V35.3794C18.6183 35.7222 18.3404 36.0001 17.9976 36.0001H16.7562C16.4134 36.0001 16.1355 35.7222 16.1355 35.3794V27.8504L18.6183 25.3677Z" fill="#FFDC00"/>
<path d="M12.4112 3.10336V21.8854L9.92847 24.3682V3.10336C9.92847 2.76056 10.2064 2.48267 10.5492 2.48267H11.7905C12.1333 2.48267 12.4112 2.76056 12.4112 3.10336Z" fill="#FFDC00"/>
<path d="M12.4112 31.5745V35.3793C12.4112 35.7221 12.1333 36 11.7905 36H10.5492C10.2064 36 9.92847 35.7221 9.92847 35.3793V34.0572L12.4112 31.5745Z" fill="#FFDC00"/>
<path d="M8.43868 8.3173L1.48696 15.269C0.945197 14.7501 0.530934 14.1127 0.276611 13.407L6.53937 7.11316C7.25623 7.36401 7.90599 7.77595 8.43868 8.3173Z" fill="#C81E1E"/>
<path d="M9.64872 10.198L3.37354 16.4731C2.6719 16.2135 2.03612 15.8023 1.51147 15.269L8.43837 8.31726C8.97791 8.84533 9.39159 9.48813 9.64872 10.198Z" fill="#C81E1E"/>
<path d="M30.6715 13.314L8.17153 35.814C8.05498 35.9315 7.89634 35.9976 7.73084 35.9976C7.56534 35.9976 7.40669 35.9315 7.29015 35.814L3.29291 31.854C3.14362 31.702 3.0827 31.4841 3.13153 31.2767C3.20601 30.9354 1.98946 32.3381 25.8426 8.48501C26.0317 8.2939 26.3223 8.24629 26.5626 8.36707L27.9281 9.04983L30.1191 11.2409L30.8019 12.594C30.9195 12.8368 30.8669 13.1278 30.6715 13.314Z" fill="#F57C00"/>
<path d="M29.6101 11.8367L7.11007 34.3367C6.99353 34.4542 6.83488 34.5203 6.66938 34.5203C6.50388 34.5203 6.34524 34.4542 6.22869 34.3367L3.12524 31.2767C3.15037 31.1644 3.20624 31.0612 3.28662 30.9788L25.8425 8.48501C26.0316 8.2939 26.3223 8.24629 26.5625 8.36707L27.928 9.04983L29.4673 10.5891L29.7342 11.1229C29.8504 11.3628 29.8004 11.6501 29.6101 11.8367Z" fill="#FF9801"/>
</svg>
