<svg width="31" height="25" viewBox="0 0 31 25" fill="none" xmlns="http://www.w3.org/2000/svg">
<path d="M30.6705 13.2258C30.7181 14.328 30.3123 15.4035 29.5422 16.2164C28.772 17.0292 27.7004 17.5131 26.5623 17.5617C26.4958 17.5647 26.4293 17.5662 26.363 17.5662C26.0606 17.566 25.7592 17.5343 25.4638 17.4717C24.5873 18.7821 23.4381 19.901 22.0896 20.7568C20.7411 21.6125 19.223 22.1863 17.6324 22.4413C17.4443 22.9766 17.0689 23.4313 16.5713 23.727C16.0737 24.0227 15.485 24.1407 14.907 24.0606C14.3291 23.9806 13.7982 23.7075 13.4061 23.2885C13.014 22.8696 12.7854 22.3312 12.7597 21.7663C12.7341 21.2015 12.913 20.6457 13.2657 20.1951C13.6183 19.7444 14.1224 19.4273 14.6909 19.2984C15.2593 19.1696 15.8564 19.2371 16.3789 19.4893C16.9014 19.7416 17.3165 20.1627 17.5524 20.6799C19.7918 20.2788 21.8148 19.1295 23.2688 17.4322C24.7229 15.7349 25.5159 13.5973 25.5095 11.3919C25.5095 6.1817 21.1325 1.94293 15.7524 1.94293C10.3723 1.94293 5.99535 6.1817 5.99535 11.3919C5.99506 13.003 6.42023 14.5874 7.23045 15.9945C7.25791 16.0409 7.27852 16.0908 7.29168 16.1428C7.36994 16.3534 7.36157 16.5852 7.26832 16.79C7.17506 16.9949 7.00404 17.1571 6.79067 17.2433C6.2682 17.4562 5.70704 17.5659 5.14018 17.5658C5.07347 17.5658 5.00662 17.5643 4.93962 17.5613C3.80206 17.512 2.73108 17.0279 1.96152 16.2151C1.19196 15.4024 0.786637 14.3272 0.834416 13.2254C0.853623 12.7861 0.842905 12.3941 0.832429 12.015C0.822675 11.6581 0.812499 11.289 0.829238 10.9039C0.879193 9.82808 1.35704 8.81276 2.16269 8.07054C2.96834 7.32832 4.0393 6.91678 5.15126 6.92211C6.93686 2.96573 11.0163 0.193665 15.7524 0.193665C20.4886 0.193665 24.5681 2.96573 26.3537 6.92217C27.4658 6.91603 28.5371 7.32721 29.3429 8.06945C30.1487 8.81169 30.6263 9.82731 30.6756 10.9032C30.6924 11.2889 30.6823 11.658 30.6724 12.0149C30.6621 12.394 30.6513 12.7862 30.6705 13.2258ZM23.3272 11.3919C23.3268 12.5157 23.0598 13.6244 22.5469 14.6325C22.034 15.6406 21.2889 16.5212 20.369 17.2062C19.4491 17.8913 18.379 18.3627 17.2413 18.5839C16.1035 18.8052 14.9285 18.7704 13.8068 18.4823L10.7408 20.197C10.5861 20.2835 10.4084 20.3236 10.2302 20.3123C10.0519 20.301 9.8811 20.2388 9.73938 20.1335C9.59765 20.0281 9.49135 19.8845 9.43394 19.7207C9.37652 19.5568 9.37056 19.3802 9.41681 19.2131L10.2004 16.3823C8.90274 15.024 8.18071 13.2424 8.17798 11.3919C8.17798 7.34596 11.5757 4.05465 15.7524 4.05465C19.9292 4.05465 23.3272 7.34596 23.3272 11.3919ZM13.6466 11.3919C13.6466 11.1599 13.5514 10.9375 13.3821 10.7734C13.2127 10.6094 12.983 10.5173 12.7434 10.5173H12.7419C12.5634 10.5176 12.3889 10.5692 12.2406 10.6655C12.0923 10.7618 11.9768 10.8985 11.9087 11.0583C11.8406 11.2182 11.823 11.394 11.858 11.5635C11.8931 11.7331 11.9792 11.8888 12.1056 12.0109C12.232 12.1331 12.3929 12.2162 12.568 12.2498C12.7432 12.2835 12.9247 12.266 13.0896 12.1998C13.2546 12.1336 13.3955 12.0214 13.4947 11.8777C13.5938 11.7339 13.6468 11.5648 13.6468 11.3919H13.6466ZM16.6558 11.3919C16.6557 11.3633 16.6541 11.3347 16.651 11.3062C16.6481 11.2776 16.6437 11.2492 16.6378 11.2211C16.6324 11.193 16.6251 11.1654 16.616 11.1383C16.6077 11.1109 16.5974 11.084 16.5866 11.0572C16.5758 11.0304 16.5625 11.0053 16.5487 10.9802C16.5349 10.955 16.5198 10.9305 16.5035 10.9068C16.4871 10.8828 16.4693 10.8596 16.4505 10.8374C16.4319 10.8151 16.412 10.7939 16.3909 10.7738C16.3704 10.7534 16.3482 10.7342 16.3253 10.7155C16.3024 10.698 16.2783 10.6805 16.2536 10.6648C16.2291 10.649 16.2038 10.6344 16.1778 10.6211C16.1518 10.6076 16.1248 10.5954 16.0976 10.5843C16.0705 10.5733 16.0428 10.5638 16.0146 10.5558C15.9583 10.5382 15.9001 10.5269 15.8412 10.5219C15.7527 10.5137 15.6635 10.5178 15.5763 10.5342C15.5472 10.5399 15.5185 10.5471 15.4902 10.5558C15.462 10.5638 15.4343 10.5733 15.4071 10.5843C15.38 10.5954 15.353 10.6076 15.3271 10.6211C15.3012 10.6345 15.2759 10.649 15.2511 10.6648C15.2264 10.6805 15.2024 10.698 15.1801 10.7155C15.1567 10.7342 15.135 10.7534 15.1139 10.7738C15.0928 10.7939 15.0729 10.8151 15.0542 10.8374C15.0356 10.8596 15.0181 10.8828 15.0019 10.9068C14.9854 10.9305 14.9701 10.955 14.9562 10.9802C14.9423 11.0052 14.9298 11.0309 14.9188 11.0572C14.9073 11.0837 14.8973 11.1108 14.8887 11.1383C14.8803 11.1651 14.8731 11.1931 14.8671 11.2211C14.8611 11.2492 14.8567 11.2776 14.8537 11.3062C14.8508 11.3348 14.8495 11.3633 14.8495 11.3919C14.8495 11.4205 14.8508 11.4496 14.8537 11.4782C14.8567 11.5066 14.8612 11.5348 14.8671 11.5627C14.8731 11.5907 14.8803 11.6187 14.8887 11.6461C14.8973 11.6734 14.9073 11.7003 14.9188 11.7266C14.9298 11.7531 14.9423 11.779 14.9562 11.8041C14.97 11.8292 14.9857 11.8537 15.0019 11.8776C15.0181 11.9014 15.0356 11.9244 15.0542 11.9464C15.073 11.9688 15.0929 11.9902 15.1139 12.0106C15.135 12.0304 15.1567 12.0502 15.1801 12.0683C15.2028 12.0865 15.2265 12.1034 15.2511 12.119C15.2759 12.1348 15.3011 12.1499 15.3271 12.1633C15.3794 12.1897 15.434 12.2116 15.4902 12.2286C15.5185 12.2368 15.5474 12.2438 15.5763 12.2496C15.6343 12.2611 15.6934 12.2668 15.7527 12.2665C15.9919 12.2659 16.2213 12.1739 16.3909 12.0106C16.4325 11.9696 16.4702 11.9251 16.5035 11.8776C16.5198 11.8537 16.5348 11.8292 16.5487 11.8041C16.5625 11.7791 16.5752 11.7528 16.5866 11.7266C16.598 11.7004 16.6077 11.6729 16.616 11.6461C16.6251 11.6188 16.6323 11.5909 16.6378 11.5627C16.6437 11.5348 16.6481 11.5066 16.651 11.4782C16.654 11.4495 16.6556 11.4206 16.6556 11.3918L16.6558 11.3919ZM19.6663 11.3919C19.6663 11.1599 19.5712 10.9375 19.4018 10.7734C19.2324 10.6094 19.0027 10.5173 18.7631 10.5173H18.7614C18.5829 10.5176 18.4084 10.5692 18.2601 10.6655C18.1118 10.7618 17.9963 10.8985 17.9282 11.0584C17.8602 11.2182 17.8425 11.394 17.8776 11.5636C17.9126 11.7331 17.9988 11.8888 18.1251 12.011C18.2515 12.1331 18.4124 12.2162 18.5876 12.2499C18.7627 12.2835 18.9442 12.266 19.1092 12.1998C19.2741 12.1335 19.4151 12.0214 19.5142 11.8776C19.6134 11.7338 19.6663 11.5648 19.6663 11.3919Z" fill="#A9A9A9"/>
</svg>
