<svg width="25" height="21" viewBox="0 0 25 21" fill="none" xmlns="http://www.w3.org/2000/svg">
<path d="M18.0827 7.14305H24.7447V4.17646C24.7447 2.28901 23.1437 0.753479 21.1757 0.753479H3.56894C1.60101 0.753479 0 2.28901 0 4.17646V16.9556C0 18.843 1.60101 20.3786 3.56894 20.3786H21.1757C23.1437 20.3786 24.7447 18.843 24.7447 16.9556V13.989H18.0827C16.1147 13.989 14.5137 12.4535 14.5137 10.566C14.5137 8.67858 16.1147 7.14305 18.0827 7.14305Z" fill="#A9A9A9"/>
<path d="M18.0697 8.34088C16.8867 8.34088 15.9242 9.30334 15.9242 10.4864C15.9242 11.6695 16.8866 12.6319 18.0697 12.6319H24.7446V8.34093L18.0697 8.34088ZM19.0233 11.2016H18.0697C17.6747 11.2016 17.3546 10.8813 17.3546 10.4864C17.3546 10.0915 17.6748 9.77125 18.0697 9.77125H19.0233C19.4182 9.77125 19.7384 10.0915 19.7384 10.4864C19.7384 10.8813 19.4182 11.2016 19.0233 11.2016Z" fill="#A9A9A9"/>
</svg>
