<svg width="37" height="34" viewBox="0 0 37 34" fill="none" xmlns="http://www.w3.org/2000/svg">
<path d="M28.2769 0.643885C27.9843 0.390586 27.6409 0.204898 27.2706 0.0996765C26.9003 -0.00554457 26.5119 -0.027784 26.1323 0.0344983L4.09348 3.64397C2.94967 3.82715 1.90819 4.41992 1.15739 5.31505C0.406593 6.21019 -0.00394527 7.34859 2.85807e-05 8.52437V10.7854C2.85807e-05 11.0238 0.0932897 11.2524 0.259296 11.4209C0.425302 11.5895 0.650455 11.6842 0.885223 11.6842H28.3253C28.5601 11.6842 28.7852 11.5895 28.9513 11.4209C29.1173 11.2524 29.2105 11.0238 29.2105 10.7854V2.69669C29.2108 2.30624 29.1275 1.9204 28.9663 1.56592C28.8051 1.21144 28.5699 0.896824 28.2769 0.643885Z" fill="url(#paint0_linear_28_214)"/>
<path d="M30.671 7.14038H2.62895C1.93194 7.14113 1.2637 7.41493 0.770841 7.90171C0.277983 8.38848 0.000761102 9.04847 0 9.73687V28.7778C0.00143481 29.925 0.463519 31.0249 1.28491 31.8362C2.10629 32.6475 3.21992 33.1039 4.38155 33.1053H30.671C31.8326 33.1039 32.9463 32.6475 33.7677 31.8362C34.5891 31.025 35.0512 29.9251 35.0526 28.7778V11.4678C35.0513 10.3205 34.5892 9.22056 33.7678 8.40928C32.9464 7.59801 31.8327 7.14167 30.671 7.14038Z" fill="url(#paint1_linear_28_214)"/>
<path d="M35.2455 14.2808H23.841C22.681 14.2856 21.5702 14.7323 20.7517 15.523C19.9332 16.3138 19.4736 17.3842 19.4736 18.5001C19.4736 19.6159 19.9332 20.6864 20.7517 21.4771C21.5702 22.2679 22.681 22.7145 23.841 22.7194H35.2455C35.7106 22.7189 36.1566 22.5409 36.4855 22.2245C36.8144 21.9081 36.9994 21.4791 36.9999 21.0316V15.9684C36.9994 15.521 36.8144 15.092 36.4855 14.7756C36.1566 14.4592 35.7106 14.2812 35.2455 14.2808Z" fill="url(#paint2_linear_28_214)"/>
<path d="M23.6929 20.1228C24.5891 20.1228 25.3157 19.3963 25.3157 18.5C25.3157 17.6038 24.5891 16.8772 23.6929 16.8772C22.7966 16.8772 22.0701 17.6038 22.0701 18.5C22.0701 19.3963 22.7966 20.1228 23.6929 20.1228Z" fill="url(#paint3_linear_28_214)"/>
<defs>
<linearGradient id="paint0_linear_28_214" x1="1.84942" y1="5.84221" x2="28.858" y2="5.84221" gradientUnits="userSpaceOnUse">
<stop stop-color="#37AA79"/>
<stop offset="1" stop-color="#398A70"/>
</linearGradient>
<linearGradient id="paint1_linear_28_214" x1="2.78151" y1="20.1228" x2="35.4669" y2="20.1228" gradientUnits="userSpaceOnUse">
<stop stop-color="#34CA82"/>
<stop offset="1" stop-color="#37A477"/>
</linearGradient>
<linearGradient id="paint2_linear_28_214" x1="20.8626" y1="18.5" x2="37.2066" y2="18.5" gradientUnits="userSpaceOnUse">
<stop stop-color="#FED200"/>
<stop offset="1" stop-color="#F59815"/>
</linearGradient>
<linearGradient id="paint3_linear_28_214" x1="22.0302" y1="18.5" x2="25.2267" y2="18.5" gradientUnits="userSpaceOnUse">
<stop stop-color="white"/>
<stop offset="1" stop-color="#F2EBE6"/>
</linearGradient>
</defs>
</svg>
