<svg width="55" height="50" viewBox="0 0 55 50" fill="none" xmlns="http://www.w3.org/2000/svg">
<path fill-rule="evenodd" clip-rule="evenodd" d="M23.0677 16.1649L16.0289 30.9498C16.0022 31.0048 15.9937 31.067 16.0047 31.127C16.0157 31.1872 16.0458 31.2423 16.0903 31.2842L35.1003 49.5003C35.1544 49.5521 35.2262 49.581 35.3011 49.581C35.3759 49.581 35.4479 49.5521 35.5018 49.5003L54.5118 31.2854C54.5563 31.2435 54.5864 31.1884 54.5974 31.1282C54.6085 31.068 54.5999 31.0059 54.5732 30.951L47.5344 16.1661C47.5117 16.1164 47.4751 16.0743 47.4292 16.0449C47.3833 16.0155 47.3298 15.9999 47.2751 16H23.3293C23.2744 15.9993 23.2205 16.0145 23.1741 16.0438C23.1277 16.0731 23.0908 16.1151 23.0677 16.1649Z" fill="#50AF95"/>
<path fill-rule="evenodd" clip-rule="evenodd" d="M37.7428 32.4674C37.6063 32.4776 36.9013 32.5197 35.3283 32.5197C34.0773 32.5197 33.1891 32.4822 32.8774 32.4674C28.0428 32.2547 24.4342 31.4131 24.4342 30.4054C24.4342 29.3979 28.0428 28.5574 32.8774 28.3413V31.6292C33.1937 31.652 34.0989 31.7054 35.3499 31.7054C36.8511 31.7054 37.603 31.6429 37.7383 31.6303V28.3436C42.5627 28.5585 46.1634 29.4 46.1634 30.4054C46.1634 31.4108 42.5639 32.2524 37.7383 32.4662L37.7428 32.4674ZM37.7428 28.0035V25.0612H44.4756V20.5747H26.1447V25.0612H32.8763V28.0023C27.4048 28.2537 23.29 29.3376 23.29 30.6363C23.29 31.9352 27.4048 33.0178 32.8763 33.2704V42.6986H37.7416V33.2669C43.2007 33.0155 47.3086 31.9329 47.3086 30.6352C47.3086 29.3375 43.2042 28.2548 37.7416 28.0023L37.7428 28.0035Z" fill="white"/>
<path d="M16.4 32.8001C25.4575 32.8001 32.8001 25.4575 32.8001 16.4C32.8001 7.34253 25.4575 0 16.4 0C7.34253 0 0 7.34253 0 16.4C0 25.4575 7.34253 32.8001 16.4 32.8001Z" fill="#627EEA"/>
<path d="M16.9111 4.1001V13.1918L24.5956 16.6256L16.9111 4.1001Z" fill="white" fill-opacity="0.602"/>
<path d="M16.911 4.1001L9.22559 16.6256L16.911 13.1918V4.1001Z" fill="white"/>
<path d="M16.9111 22.5174V28.6951L24.6006 18.0566L16.9111 22.5174Z" fill="white" fill-opacity="0.602"/>
<path d="M16.911 28.6951V22.5164L9.22559 18.0566L16.911 28.6951Z" fill="white"/>
<path d="M16.9111 21.0888L24.5956 16.627L16.9111 13.1953V21.0888Z" fill="white" fill-opacity="0.2"/>
<path d="M9.22559 16.627L16.911 21.0888V13.1953L9.22559 16.627Z" fill="white" fill-opacity="0.602"/>
</svg>
