<svg width="23" height="23" viewBox="0 0 23 23" fill="none" xmlns="http://www.w3.org/2000/svg">
<g opacity="0.5">
<path fill-rule="evenodd" clip-rule="evenodd" d="M11.8001 3.03611C6.9599 3.03611 3.03612 6.95989 3.03612 11.8001C3.03612 16.6404 6.9599 20.5641 11.8001 20.5641C16.6404 20.5641 20.5642 16.6404 20.5642 11.8001C20.5642 6.95989 16.6404 3.03611 11.8001 3.03611ZM1.7168 11.8001C1.7168 6.23126 6.23126 1.7168 11.8001 1.7168C17.369 1.7168 21.8834 6.23126 21.8834 11.8001C21.8834 17.369 17.369 21.8835 11.8001 21.8835C6.23126 21.8835 1.7168 17.369 1.7168 11.8001ZM7.37101 11.8001C7.37101 11.4358 7.66634 11.1405 8.03066 11.1405H15.5696C15.9339 11.1405 16.2292 11.4358 16.2292 11.8001C16.2292 12.1644 15.9339 12.4598 15.5696 12.4598H8.03066C7.66634 12.4598 7.37101 12.1644 7.37101 11.8001Z" fill="#998B6F"/>
</g>
</svg>
