<svg width="23" height="23" viewBox="0 0 23 23" fill="none" xmlns="http://www.w3.org/2000/svg">
<g opacity="0.5">
<path fill-rule="evenodd" clip-rule="evenodd" d="M11.2005 3.03611C6.36029 3.03611 2.43651 6.95989 2.43651 11.8001C2.43651 16.6404 6.36029 20.5641 11.2005 20.5641C16.0408 20.5641 19.9646 16.6404 19.9646 11.8001C19.9646 6.95989 16.0408 3.03611 11.2005 3.03611ZM1.11719 11.8001C1.11719 6.23126 5.63165 1.7168 11.2005 1.7168C16.7694 1.7168 21.2838 6.23126 21.2838 11.8001C21.2838 17.369 16.7694 21.8835 11.2005 21.8835C5.63165 21.8835 1.11719 17.369 1.11719 11.8001ZM11.2005 7.371C11.5649 7.371 11.8602 7.66634 11.8602 8.03066V11.1405H14.97C15.3343 11.1405 15.6296 11.4358 15.6296 11.8001C15.6296 12.1644 15.3343 12.4598 14.97 12.4598H11.8602V15.5696C11.8602 15.9339 11.5649 16.2293 11.2005 16.2293C10.8362 16.2293 10.5409 15.9339 10.5409 15.5696V12.4598H7.43105C7.06673 12.4598 6.7714 12.1644 6.7714 11.8001C6.7714 11.4358 7.06673 11.1405 7.43105 11.1405H10.5409V8.03066C10.5409 7.66634 10.8362 7.371 11.2005 7.371Z" fill="#998B6F"/>
</g>
</svg>
